**ABCDEFGHIJKLMNOPQRSTUVWXYZabcdefghijklmnopqrstuvwxyz**************************
**PARASOLID !"#$%&'()*+,-./:;<=>?@[\]^_`{|}~0123456789**************************
**PART1;
MC=AMD64;
MC_MODEL=Intel64 Family 6 Model 85 Stepping 4, GenuineIntel;
MC_ID=unknown;
OS=Windows_NT;
OS_RELEASE=unknown;
FRU=Parasolid Version 35.1, build 251, 11- 4-2023;
APPL=SOLIDWORKS 2024-2024157;
SITE=;
USER=unknown;
FORMAT=text;
GUISE=transmit;
KEY=i-1;
FILE=i-1.x_t;
DATE=Sat Sep 14 14:50:41 2024;
**PART2;
SCH=SCH_3501251_35102;
USFLD_SIZE=0;
**PART3;
**END_OF_HEADER*****************************************************************
T51 : TRANSMIT FILE created by modeller version 350125117 SCH_3000000_300000 12
 1 224 2 3 0 0 0 0 0 0 1e3 1e-8 0 4 0 1 0 3 1 5 6 7 8 0 0 9 10 11 0 0 0 0 0 0 81
 2 2 223 12 1 13 0 0 0 0 14 70 3 0 4 T1 0 0 9 20 1 15 15 13 5 156 0 1 0 16 0 0 9
 16 50 6 3 0 16 0 0 0 +0 0 0 0 0 1 1 0 0 134 7 102 0 10 17 0 0 +18 19 29 8 153 0
 11 20 0 1.00203384387921 .1500245452277365 0 19 9 155 0 1 0 0 5 V0 16 10 100 0
 ?21 0 22 7 0 0 1 18 11 151 0 23 0 24 8 ?1 17 23 0 0 0 0 11 25 26 0 21 -18 24 14
8 0 27 11 28 20 ?1 17 27 0 29 21 25 24 30 22 0 31 +18 28 145 0 25 24 32 33 ?1 29
 20 150 0 24 33 8 .835645880525564 .15 0 29 33 147 0 28 34 20 1.002050155722354
 .1499422627214226 0 29 34 144 0 32 35 33 .835392707872484 .1000228291825122 0 1
8 32 142 0 36 28 37 34 ?1 29 35 141 0 37 38 34 .668979213925564 .1 0 18 37 139 0
 39 32 40 35 ?1 29 38 138 0 40 41 35 .835407433416964 .0999469593784323 0 18 40
 136 0 42 37 43 38 ?1 29 41 135 0 43 44 38 .500649141763066 .000149586224979778
 0 18 43 133 0 45 40 46 41 ?1 29 44 132 0 46 47 41 150525292322875e-30 366768007
2693875e-35 0 18 46 130 0 48 43 49 44 ?1 29 47 129 0 49 50 44 .500770892148609 -
.0003414001541002245 0 18 49 127 0 51 46 52 47 ?1 29 50 126 0 52 53 47 .66840281
9951492 .0500524243350819 0 18 52 124 0 54 49 55 50 ?1 29 53 123 0 55 56 50 .502
312547325564 .05 -16940658945086e-34 18 55 121 0 57 52 58 53 ?1 29 56 120 0 58 5
9 53 .668402819951478 .0498703207869467 0 18 58 118 0 60 55 61 56 ?1 29 59 117 0
 61 62 56 -2 -2 0 18 61 115 0 63 58 64 59 ?1 29 62 114 0 64 65 59 -2 2 0 18 64 1
12 0 66 61 67 62 ?1 29 65 111 0 67 68 62 5 2 0 18 67 109 0 69 64 70 65 ?1 29 68
 108 0 70 0 65 5 -2 0 18 70 106 0 71 67 0 68 ?1 17 71 0 72 69 73 70 63 74 0 75 +
15 72 5 0 71 16 76 17 69 0 72 66 71 67 75 77 0 78 +17 73 0 72 71 66 61 79 80 0 0
 -17 63 0 0 0 0 61 71 74 0 73 -16 74 10 0 ?71 77 0 81 0 0 1 17 75 0 0 0 0 70 69
 77 0 0 -16 77 16 0 ?69 82 74 83 0 0 1 16 82 22 0 ?78 80 77 84 0 0 1 30 83 18 0
 77 81 84 0 +5 0 0 0 1 0 30 81 12 0 74 0 83 0 +0 -2 0 1 0 0 30 84 24 0 82 83 85
 0 +0 2 0 1 0 0 30 85 30 0 80 84 86 0 +-2 0 0 0 1 0 16 80 28 0 ?79 87 82 85 0 0
 1 30 86 36 0 87 85 88 0 +.668402819947556 -525678004826037e-25 0 -7864688614977
46e-25 -1 0 16 87 34 0 ?60 89 80 86 0 0 1 134 88 42 0 89 86 90 0 +91 92 16 89 40
 0 ?57 93 87 88 0 0 1 134 90 48 0 93 88 94 0 +95 96 136 91 3 46 3 44 6 FFF1 97 9
8 99 135 92 2 0 45 138 97 .668402819951478 .0498703207869467 16940658945086e-34
 .66835676568709 .049858491577443 16940658945086e-34 .668067637340372 .049782288
4649528 16940658945086e-34 .667236621510299 .049606043249685 16940658945086e-34
 .666036641987816 .0493422755495442 16940658945086e-34 .664442989929943 .0490224
557467708 16940658945086e-34 .662531189577011 .0486619442712833 16940658945086e-
34 .660279937866706 .0482878290868916 16940658945086e-34 .657711741431387 .04788
22643958796 16940658945086e-34 .654836168610094 .0474273542016826 16940658945086
e-34 .651665493552642 .0469290125128152 16940658945086e-34 .646886141546583 .046
2053945766311 16940658945086e-34 .640285825197413 .0452478001916169 169406589450
86e-34 .633287060895167 .04433522547768905 16940658945086e-34 .625600790017905 .
04341418002415595 16940658945086e-34 .619095862847298 .04268835131133735 1694065
8945086e-34 .612395796198231 .04196926498784215 16940658945086e-34 .607185752952
005 .0414418086609666 16940658945086e-34 .601882891252314 .04094781734536685 169
40658945086e-34 .596509832160736 .0405095193158983 16940658945086e-34 .591090528
861451 .0401246717153777 16940658945086e-34 .585647712668365 .0398181446807446 1
6940658945086e-34 .580205086601749 .0395832078619209 16940658945086e-34 .5747849
92874138 .0394316803386635 16940658945086e-34 .567672312001159 .0393275052926961
 16940658945086e-34 .560666761409917 .0393663137397567 16940658945086e-34 .55380
0729185671 .03951153686187465 16940658945086e-34 .548840502622261 .0396692977415
202 16940658945086e-34 .544035836340957 .0398644310662602 16940658945086e-34 .53
9409965112712 .04016539396074055 16940658945086e-34 .534982296206668 .0405596865
216235 16940658945086e-34 .530774540710322 .04105193248200745 16940658945086e-34
 .526800879379525 .04158733140820515 16940658945086e-34 .523074768966504 .042136
05247644535 16940658945086e-34 .519617166720653 .04273606151573335 1694065894508
6e-34 .516444255511024 .04339802378253185 16940658945086e-34 .513564945936944 .0
4409780724846455 16940658945086e-34 .510987228285346 .0448323758695965 169406589
45086e-34 .508768099997776 .0456710454913867 16940658945086e-34 .50680556716803
 .0463237269127641 16940658945086e-34 .505212621565308 .0471070723037466 1694065
8945086e-34 .503979608802843 .0479304267954711 16940658945086e-34 .5030848398422
35 .0487085784596437 16940658945086e-34 .502518556495927 .0493528845711179 16940
658945086e-34 .502308972627643 .0498175354993001 16940658945086e-34 .50231254732
5564 .05 16940658945086e-34 127 44 98 4 1 1 1 1 1 1 1 1 1 1 1 1 1 1 1 1 1 1 1 1
 1 1 1 1 1 1 1 1 1 1 1 1 1 1 1 1 1 1 1 1 1 1 4 128 44 99 .00168216488018417 .002
171540145212005 .00487220003948517 .00862917017188315 .01341528661782516 .019213
91402548215 .0259816997254303 .0337053408558741 .0423530852373848 .0518843478318
723 .0622638333720036 .085362612773844 .1112260254546256 .125061960584462 .15424
16323528625 .169463691558726 .1850193891547445 .200835702245712 .216850463729724
5 .232985190189659 .2491752107479425 .2653541910783055 .2814555830097465 .297418
776421543 .328645666509643 .343785069382166 .3585230488706015 .3728024185686065
 .386568599920465 .3997654826306565 .4123498172664725 .4242596248984895 .4354408
06984409 .445859381517784 .455479445924134 .464273449090715 .47222406925948 .479
304964418043 .485375892187912 .490610758101947 .495037724039398 .498550469559746
 .501085700071583 .502753601342872 16 93 46 0 ?100 101 89 90 0 0 1 30 94 54 0 10
1 90 102 0 +.47168264846699 .116963620075139 0 .2406816750806425 -.9706041063587
03 0 136 95 3 46 3 44 6 FFF1 103 104 105 135 96 2 0 45 138 103 .502312547325564
 .05 -16940658945086e-34 .502315921741617 .0501722414434569 -16940658945086e-34
 .502520652291166 .0506050313682382 -16940658945086e-34 .503030939217187 .051210
6700951869 -16940658945086e-34 .504020021305892 .0516280423766297 -1694065894508
6e-34 .505230350684772 .0521382213873664 -16940658945086e-34 .506837646499279 .0
524840966274905 -16940658945086e-34 .508761393839594 .0527653121522748 -16940658
945086e-34 .511006974197174 .0530691986334458 -16940658945086e-34 .5135765699885
04 .0532796201764502 -16940658945086e-34 .516455315786091 .0533629471347657 -169
40658945086e-34 .519627551827378 .0533845411894844 -16940658945086e-34 .52308188
9376675 .0534269643445297 -16940658945086e-34 .52680488990862 .0534556958073797
 -16940658945086e-34 .530779792767888 .0533978830747767 -16940658945086e-34 .534
987984668041 .0532776681566312 -16940658945086e-34 .539414281521249 .05317452195
61605 -16940658945086e-34 .544038295924275 .0530492029016805 -16940658945086e-34
 .548841520205981 .0529667663579751 -16940658945086e-34 .553801502408229 .052864
8875784057 -16940658945086e-34 .558897598080024 .0527550660403694 -1694065894508
6e-34 .564108090931905 .0526372455125687 -16940658945086e-34 .569411443384898 .0
525197682784848 -16940658945086e-34 .576600813755769 .0523580788890607 -16940658
945086e-34 .583837020262638 .0522035284610313 -16940658945086e-34 .5910881131667
25 .0520438015114587 -16940658945086e-34 .596507508058658 .0519226544949595 -169
40658945086e-34 .601880378709968 .0518085521548049 -16940658945086e-34 .60718361
0620249 .0516878275487327 -16940658945086e-34 .612394228670045 .0515762296111467
 -16940658945086e-34 .617490343239278 .0514647143353908 -16940658945086e-34 .623
994178352857 .051319493695863 -16940658945086e-34 .63027425442005 .0511846185731
106 -16940658945086e-34 .636303627231276 .0510491337350141 -16940658945086e-34 .
640512576695576 .0509591314083971 -16940658945086e-34 .646698613281264 .05082008
63765325 -16940658945086e-34 .652439624695629 .0506979720250591 -16940658945086e
-34 .657711542935898 .0505794013142747 -16940658945086e-34 .66027852945665 .0505
279507273685 -16940658945086e-34 .66252850675399 .0504625272282865 -169406589450
86e-34 .664441490619832 .0503622646177803 -16940658945086e-34 .666035045671803 .
0502584085812715 -16940658945086e-34 .667237052986093 .0501593418537228 -1694065
8945086e-34 .668065165695806 .0500929016681723 -16940658945086e-34 .668356800219
103 .0500577219499988 -16940658945086e-34 .668402819951478 .0500524243350835 -16
940658945086e-34 127 44 104 4 1 1 1 1 1 1 1 1 1 1 1 1 1 1 1 1 1 1 1 1 1 1 1 1 1
 1 1 1 1 1 1 1 1 1 1 1 1 1 1 1 1 1 4 128 44 105 .502753601342872 .50432805403117
3 .506749406214855 .509725544766804 .513666372259735 .518490931004518 .524260207
924474 .530988691362846 .538642204875445 .547189153822398 .556606524572198 .5668
69126028718 .577927135667704 .589732425198819 .602237709769131 .615385652692521
 .629126961596891 .643395641664741 .658129279979904 .673268788568859 .6887497278
99631 .704502584301897 .720468054475976 .752734831318198 .768902921814218 .78500
1824742463 .800967077585858 .816719933988124 .832200655499629 .847340271418252 .
862074536612839 .890084314117716 .903231443938907 .915735682114533 .927542884014
285 .958286879452436 .966830745939519 .974459911927041 .981136578539187 .9868435
12990877 .991544908841655 .995229247033406 .997874620108482 .998350156054739 16
 101 52 0 ?51 106 93 94 0 0 1 134 102 60 0 106 94 107 0 +108 109 16 106 58 0 ?48
 110 101 102 0 0 1 134 107 66 0 110 102 111 0 +112 113 136 108 3 46 3 44 6 FFF1
 114 115 116 135 109 2 0 45 138 114 .500770892148614 -.000341400154098996 169406
58945086e-34 .500557917190545 -.0003942117683553015 16940658945086e-34 .49964616
2511062 -.000638978186406668 16940658945086e-34 .497060591112698 -.0011873366778
57712 16940658945086e-34 .493444002486928 -.001982299629137415 16940658945086e-3
4 .488640933936242 -.00294619662682928 16940658945086e-34 .482879006102021 -.004
03273325090852 16940658945086e-34 .476094014211289 -.00516026975670169 169406589
45086e-34 .468353790447042 -.00638259115291171 16940658945086e-34 .4596871725898
17 -.00775363374129796 16940658945086e-34 .450131153396397 -.00925557343777422 1
6940658945086e-34 .4357267825055375 -.01143646764676526 16940658945086e-34 .4158
34252185589 -.01432253769037666 16940658945086e-34 .3947408494274865 -.017072924
0595573 16940658945086e-34 .371575387594547 -.0198488401807946 16940658945086e-3
4 .351970348362571 -.0220363973931227 16940658945086e-34 .3317771830793135 -.024
2036338847114 16940658945086e-34 .316074762504379 -.0257933214670805 16940658945
086e-34 .30009259868657 -.0272821496789553 16940658945086e-34 .2838988686843255
 -.02860312527213995 16940658945086e-34 .2675657644074465 -.029763007938491 1694
0658945086e-34 .2511617952011365 -.03068684218697055 16940658945086e-34 .2347583
99012365 -.03139491245336325 16940658945086e-34 .218422912483324 -.0318515975053
186 16940658945086e-34 .1969861793889235 -.03216556809458865 16940658945086e-34
 .175872323603088 -.03204860426814295 16940658945086e-34 .1551789587754735 -.031
61091988270285 16940658945086e-34 .1402294545273796 -.03113544826162185 16940658
945086e-34 .1257487895689186 -.0305473407520801 16940658945086e-34 .111806990602
084 -.02964027611803735 16940658945086e-34 .0984625487156827 -.0284519275092495
 16940658945086e-34 .0857808984197459 -.0269683595708281 16940658945086e-34 .073
8047787438006 -.0253547339754928 16940658945086e-34 .0625747466607693 -.02370095
710575745 16940658945086e-34 .0521539647066885 -.02189260468792325 1694065894508
6e-34 .042591206030646 -.01989753296914365 16940658945086e-34 .0339133260677017
 -.0177884728733315 16940658945086e-34 .02614440654616565 -.01557457465827505 16
940658945086e-34 .0194562306464994 -.01304692901053216 16940658945086e-34 .01354
140145526718 -.01107982860360124 16940658945086e-34 .0087404620734017 -.00871892
328838545 16940658945086e-34 .00502431538314431 -.00623743553362141 169406589450
86e-34 .002327593327618725 -.003892183463972745 16940658945086e-34 .000620885946
42721 -.001950325197958575 16940658945086e-34 -1077369389900154e-20 -.0005499252
49074829 16940658945086e-34 0 0 16940658945086e-34 127 44 115 4 1 1 1 1 1 1 1 1
 1 1 1 1 1 1 1 1 1 1 1 1 1 1 1 1 1 1 1 1 1 1 1 1 1 1 1 1 1 1 1 1 1 1 4 128 44 11
6 .00145751184458488 .002171540145212005 .00487220003948517 .00862917017188315 .
01341528661782516 .01921391402548215 .0259816997254303 .0337053408558741 .042353
0852373848 .0518843478318723 .0622638333720036 .085362612773844 .111226025454625
6 .125061960584462 .1542416323528625 .169463691558726 .1850193891547445 .2008357
02245712 .2168504637297245 .232985190189659 .2491752107479425 .2653541910783055
 .2814555830097465 .297418776421543 .328645666509643 .343785069382166 .358523048
8706015 .3728024185686065 .386568599920465 .3997654826306565 .4123498172664725 .
4242596248984895 .435440806984409 .445859381517784 .455479445924134 .46427344909
0715 .47222406925948 .479304964418043 .485375892187912 .490610758101947 .4950377
24039398 .498550469559746 .501085700071583 .502753601342872 16 110 64 0 ?117 118
 106 107 0 0 1 30 111 72 0 118 107 119 0 +.823773886645096 .1598859935899435 0 .
190534051411836 -.981680587183322 0 136 112 3 46 3 44 6 FFF1 120 121 122 135 113
 2 0 45 138 120 150525292322875e-30 3667680072693875e-35 0 101700691441964e-19 .
000519114229514744 0 .000627202412544452 .00182348908747965 0 .00216514356721968
 .003648808678366885 0 .00514611362935965 .00490671668212038 0 .0087938954312638
8 .00644433259359001 0 .01363808456254542 .00748675743155299 0 .0194360191264099
 .00833430595150883 0 .0262039182669603 .0092501819066104 0 .03394835951529495 .
00988436619454358 0 .04262454032689885 .01013550325480602 0 .0521852641304251 .0
1020058504263802 0 .0625962066968463 .0103284431411572 0 .0738168659867103 .0104
1503618695772 0 .0857967274751652 .0102407958210093 0 .0984796930382428 .0098784
8305031488 0 .111819999728903 .00956761326597065 0 .1257562024564026 .0091899172
649268 0 .1402325214081126 .00894146380327261 0 .1551812891822955 .0086344138674
6039 0 .170540285978322 .00830342544820877 0 .1862440616081065 .0079483290714006
8 0 .2022277044946685 .00759426733904114 0 .22389557017129 .00710695568440361 0
 .245704594120651 .00664115996907526 0 .26755848381467 .00615976286340512 0 .283
891864139983 .00579464086452257 0 .3000850262063225 .00545075064156685 0 .316068
3057921845 .00508690173503018 0 .3317724587528675 .00475055946907965 0 .34713151
250342 .0044144663355757 0 .366733260410984 .003976789439226125 0 .3856606264588
155 .00357029264019739 0 .403832404159578 .00316195823516169 0 .416517652926517
 .00289070244737544 0 .4351615957052115 .00247163806233204 0 .452464288118781 .0
0210360063647937 0 .468353192208508 .00174624330171726 0 .476089769440738 .00159
1177649441005 0 .482870920409361 .001393999382495606 0 .488636415203528 .0010918
20378670658 0 .493439191390204 .000778811237026533 0 .497061891527324 .000480236
475289303 0 .499588430833866 .0002775300823595165 0 .500483645389303 .0001682668
58407514 0 .500649141763066 .00014958622497932 0 127 44 121 4 1 1 1 1 1 1 1 1 1
 1 1 1 1 1 1 1 1 1 1 1 1 1 1 1 1 1 1 1 1 1 1 1 1 1 1 1 1 1 1 1 1 1 4 128 44 122
 .502753601342872 .504328054031173 .506749406214855 .509725544766804 .5136663722
59735 .518490931004518 .524260207924474 .530988691362846 .538642204875445 .54718
9153822398 .556606524572198 .566869126028718 .577927135667704 .589732425198819 .
602237709769131 .615385652692521 .629126961596891 .643395641664741 .658129279979
904 .673268788568859 .688749727899631 .704502584301897 .720468054475976 .7527348
31318198 .768902921814218 .785001824742463 .800967077585858 .816719933988124 .83
2200655499629 .847340271418252 .862074536612839 .890084314117716 .90323144393890
7 .915735682114533 .927542884014285 .958286879452436 .966830745939519 .974459911
927041 .981136578539187 .986843512990877 .991544908841655 .995229247033406 .9978
74620108482 .998433893827126 16 118 70 0 ?42 123 110 111 0 0 1 134 119 78 0 123
 111 124 0 +125 126 16 123 76 0 ?39 127 118 119 0 0 1 134 124 84 0 127 119 128 0
 +129 130 136 125 3 46 3 44 6 FFF1 131 132 133 135 126 2 0 45 138 131 .835407433
416964 .0999469593784323 0 .835196098092388 .0999059413771358 0 .834854280381731
 .0998077335013965 0 .833903288110168 .0996060431950504 0 .832703308587598 .0993
422754953071 0 .831109656529619 .0990224556930617 0 .829197856176568 .0986619442
182075 0 .826946604466139 .0982878290345615 0 .824378408030685 .0978822643444003
 0 .821502835209241 .0974273541511559 0 .818332160151625 .0969290124633388 0 .81
3552808145326 .0962053945287381 0 .806952491795839 .0952478001459103 0 .79995372
7493291 .094335225434301 0 .792267456615723 .0934141799833141 0 .785762529444876
 .0926883512726504 0 .779062462795571 .0919692649513747 0 .77385241954917 .09144
18086262251 0 .768549557849315 .0909478173123821 0 .763176498757592 .09050951928
46934 0 .75775719545818 .0901246716859681 0 .752314379264992 .0898181446531381 0
 .746871753198298 .0895832078361173 0 .741451659470637 .0894316803146555 0 .7343
38978597623 .0893275052710443 0 .727333428006394 .0893663137204256 0 .7204673957
82196 .0895115368448181 0 .715507169218838 .0896692977261068 0 .7107025029376 .0
898644310524385 0 .706076631709455 .0901653939484512 0 .701648962803541 .0905596
86510801 0 .697441207307358 .0910519324725788 0 .693467545976739 .09158733140009
28 0 .689741435563899 .0921360524695674 0 .686283833318247 .0927360615100008 0 .
683110922108837 .0933980237778504 0 .680231612534989 .0940978072447369 0 .677653
894883634 .0948323758667228 0 .675434766596342 .0956710454892482 0 .673472233766
812 .0963237269112757 0 .671879288164349 .0971070723027859 0 .670646275402157 .0
979304267949188 0 .669751506441807 .0987085784593879 0 .669185223095713 .0993528
845710496 0 .668975639227582 .0998175354993013 0 .668979213925564 .1 0 127 44 13
2 4 1 1 1 1 1 1 1 1 1 1 1 1 1 1 1 1 1 1 1 1 1 1 1 1 1 1 1 1 1 1 1 1 1 1 1 1 1 1
 1 1 1 1 4 128 44 133 .00067920327189792 .002171540145212005 .00487220003948517
 .00862917017188315 .01341528661782516 .01921391402548215 .0259816997254303 .033
7053408558741 .0423530852373848 .0518843478318723 .0622638333720036 .08536261277
3844 .1112260254546256 .125061960584462 .1542416323528625 .169463691558726 .1850
193891547445 .200835702245712 .2168504637297245 .232985190189659 .24917521074794
25 .2653541910783055 .2814555830097465 .297418776421543 .328645666509643 .343785
069382166 .3585230488706015 .3728024185686065 .386568599920465 .3997654826306565
 .4123498172664725 .4242596248984895 .435440806984409 .445859381517784 .45547944
5924134 .464273449090715 .47222406925948 .479304964418043 .485375892187912 .4906
10758101947 .495037724039398 .498550469559746 .501085700071583 .502753601342872
 16 127 82 0 ?134 26 123 124 0 0 1 30 128 90 0 26 124 17 0 +.992759679221822 .19
680659831509 0 .194457675309626 -.980910909569863 0 136 129 3 46 3 44 6 FFF1 135
 136 137 135 130 2 0 45 138 135 .668979213925564 .1 0 .668982588341624 .10017224
14434566 0 .669187318891189 .1006050313682304 0 .669697605817233 .10121067009515
98 0 .670686687905954 .1016280423765652 0 .671897017284852 .1021382213872562 0 .
673504313099373 .1024840966273198 0 .675428060439698 .1027653121520314 0 .677673
64079729 .1030691986331176 0 .680243236588627 .103279620176025 0 .68312198238621
8 .103362947134232 0 .686294218427506 .103384541188831 0 .689748555976804 .10342
69643437458 0 .693471556508751 .1034556958064552 0 .697446459368016 .10339788307
37022 0 .701654651268165 .103277668155398 0 .706080948121369 .1031745219547602 0
 .71070496252439 .1030492029001056 0 .715508186806094 .102966766356219 0 .720468
169008337 .1028648875764624 0 .725564264680128 .1027550660382338 0 .730774757532
005 .1026372455102364 0 .736078109984993 .1025197682759524 0 .743267480355858 .1
02358078886257 0 .750503686862721 .1022035284579544 0 .757754779766802 .10204380
15081082 0 .76317417465873 .1019226544914044 0 .768547045310036 .101808552151047
 0 .773850277220312 .1016878275447746 0 .779060895270104 .101576229606992 0 .784
157009839334 .101464714331044 0 .790660844952907 .1013194936912706 0 .7969409210
20095 .1011846185682812 0 .802970293831315 .1010491337299572 0 .807179243295613
 .1009591314031812 0 .813365279881295 .1008200863710832 0 .819106291295656 .1006
979720193932 0 .82437820953592 .1005794013084098 0 .82694519605667 .100527950721
4066 0 .829195173354008 .1004625272222398 0 .831108157219846 .1003622646116614 0
 .832701712271813 .1002584085750924 0 .833903719586099 .1001593418474982 0 .8348
47297362867 .1000836378015828 0 .835192653675186 .100035894810941 0 .83539270787
2484 .1000228291825122 0 127 44 136 4 1 1 1 1 1 1 1 1 1 1 1 1 1 1 1 1 1 1 1 1 1
 1 1 1 1 1 1 1 1 1 1 1 1 1 1 1 1 1 1 1 1 1 4 128 44 137 .502753601342872 .504328
054031173 .506749406214855 .509725544766804 .513666372259735 .518490931004518 .5
24260207924474 .530988691362846 .538642204875445 .547189153822398 .5566065245721
98 .566869126028718 .577927135667704 .589732425198819 .602237709769131 .61538565
2692521 .629126961596891 .643395641664741 .658129279979904 .673268788568859 .688
749727899631 .704502584301897 .720468054475976 .752734831318198 .768902921814218
 .785001824742463 .800967077585858 .816719933988124 .832200655499629 .8473402714
18252 .862074536612839 .890084314117716 .903231443938907 .915735682114533 .92754
2884014285 .958286879452436 .966830745939519 .974459911927041 .981136578539187 .
986843512990877 .991544908841655 .995229247033406 .997874620108482 .999299022454
908 16 26 88 0 ?25 22 127 128 0 0 1 134 17 96 0 22 128 7 0 +138 139 16 22 94 0 ?
27 10 26 17 0 0 1 136 138 3 46 3 44 6 FFF1 140 141 142 135 139 2 0 45 138 140 1.
002050155722354 .1499422627214226 0 1.001853396006428 .1499032566949016 0 1.0015
14095158994 .1498062803389808 0 1.000569954710168 .1496060431950504 0 .999369975
187598 .149342275495307 0 .997776323129619 .1490224556930616 0 .995864522776567
 .1486619442182074 0 .993613271066139 .1482878290345614 0 .991045074630685 .1478
822643444002 0 .988169501809241 .147427354151156 0 .984998826751625 .14692901246
33388 0 .980219474745326 .146205394528738 0 .973619158395839 .1452478001459104 0
 .966620394093291 .144335225434301 0 .958934123215723 .143414179983314 0 .952429
196044875 .1426883512726504 0 .945729129395571 .1419692649513748 0 .940519086149
17 .141441808626225 0 .935216224449315 .140947817312382 0 .929843165357592 .1405
095192846934 0 .92442386205818 .140124671685968 0 .918981045864992 .139818144653
138 0 .913538419798298 .1395832078361172 0 .908118326070637 .1394316803146554 0
 .901005645197623 .1393275052710442 0 .894000094606394 .1393663137204256 0 .8871
34062382196 .139511536844818 0 .882173835818838 .1396692977261068 0 .87736916953
76 .1398644310524384 0 .872743298309455 .1401653939484512 0 .868315629403541 .14
0559686510801 0 .864107873907358 .1410519324725788 0 .860134212576739 .141587331
4000928 0 .856408102163899 .1421360524695674 0 .852950499918247 .142736061510001
 0 .849777588708837 .1433980237778504 0 .846898279134989 .144097807244737 0 .844
320561483634 .1448323758667228 0 .842101433196342 .1456710454892482 0 .840138900
366812 .1463237269112756 0 .838545954764349 .147107072302786 0 .837312942002157
 .1479304267949188 0 .836418173041807 .148708578459388 0 .835851889695713 .14935
28845710496 0 .835642305827582 .1498175354993012 0 .835645880525564 .15 0 127 44
 141 4 1 1 1 1 1 1 1 1 1 1 1 1 1 1 1 1 1 1 1 1 1 1 1 1 1 1 1 1 1 1 1 1 1 1 1 1 1
 1 1 1 1 1 4 128 44 142 .000736482143226322 .002171540145212005 .004872200039485
17 .00862917017188315 .01341528661782516 .01921391402548215 .0259816997254303 .0
337053408558741 .0423530852373848 .0518843478318723 .0622638333720036 .085362612
773844 .1112260254546256 .125061960584462 .1542416323528625 .169463691558726 .18
50193891547445 .200835702245712 .2168504637297245 .232985190189659 .249175210747
9425 .2653541910783055 .2814555830097465 .297418776421543 .328645666509643 .3437
85069382166 .3585230488706015 .3728024185686065 .386568599920465 .39976548263065
65 .4123498172664725 .4242596248984895 .435440806984409 .445859381517784 .455479
445924134 .464273449090715 .47222406925948 .479304964418043 .485375892187912 .49
0610758101947 .495037724039398 .498550469559746 .501085700071583 .50275360134287
2 17 25 0 29 27 21 28 23 26 0 30 +15 29 9 0 25 16 0 17 21 0 29 25 27 11 31 10 0
 0 +17 30 0 0 0 0 28 27 22 0 0 -17 31 0 0 0 0 24 21 10 0 0 -14 16 1 143 ?0 0 72
 5 6 +0 0 0 0 5 81 1 143 224 144 16 145 0 0 0 146 80 1 144 147 148 9000 1 1 1 1
 1 1 1 1 0 FFFFTFTFFFFFFF1 81 1 145 203 149 16 0 143 0 0 150 82 1 146 541720705
 80 1 149 0 151 8001 0 0 0 0 3 5 0 0 0 FFFFTFTFFFFFFF2 83 3 150 .792156862745098
 .819607843137255 .933333333333333 79 15 151 SDL/TYSA_COLOUR79 14 148 SWEntUncha
nged17 134 0 152 42 39 32 153 127 0 0 +15 152 8 0 42 16 29 17 42 0 152 39 134 40
 36 118 0 154 +17 39 0 152 134 42 37 154 123 0 153 +17 153 0 0 0 0 37 134 127 0
 0 -17 154 0 0 0 0 40 39 123 0 0 -17 36 0 0 0 0 32 42 118 0 134 -17 117 0 155 51
 48 43 156 110 0 0 +15 155 7 0 51 16 152 17 51 0 155 48 117 49 45 101 0 157 +17
 48 0 155 117 51 46 157 106 0 156 +17 156 0 0 0 0 46 117 110 0 0 -17 157 0 0 0 0
 49 48 106 0 0 -17 45 0 0 0 0 43 51 101 0 117 -17 100 0 76 60 57 52 158 93 0 0 +
15 76 6 0 60 16 155 17 60 0 76 57 100 58 54 87 0 159 +17 57 0 76 100 60 55 159 8
9 0 158 +17 158 0 0 0 0 55 100 93 0 0 -17 159 0 0 0 0 58 57 89 0 0 -17 54 0 0 0
 0 52 60 87 0 100 -17 79 0 0 0 0 64 73 80 0 0 +17 78 0 0 0 0 67 66 82 0 0 +17 66
 0 72 73 69 64 78 82 0 79 -136 18 3 46 3 44 6 FFF1 160 161 162 135 19 2 0 45 138
 160 .835645880525564 .15 0 .835649254941612 .150172241443457 0 .835853985491145
 .1506050313682455 0 .836364272417147 .151210670095211 0 .837353354505838 .15162
80423766875 0 .838563683884699 .152138221387465 0 .840170979699195 .152484096627
6435 0 .8420947270395 .152765312152493 0 .844340307397071 .15306919863374 0 .846
909903188393 .1532796201768315 0 .849788648985978 .1533629471352445 0 .852960885
027264 .1533845411900705 0 .856415222576559 .153426964345233 0 .860138223108504
 .153455695808209 0 .864113125967773 .1533978830757405 0 .86832131786793 .153277
6681577375 0 .872747614721141 .1531745219574165 0 .877371629124172 .153049202903
093 0 .882174853405881 .1529667663595505 0 .887134835608132 .152864887580149 0 .
89223093127993 .152755066042285 0 .897441424131816 .152637245514661 0 .902744776
584812 .1525197682807565 0 .909934146955689 .152358078891576 0 .917170353462563
 .1522035284637915 0 .924421446366656 .1520438015144645 0 .929840841258592 .1519
226544981485 0 .935213711909906 .151808552158176 0 .940516943820191 .15168782755
22835 0 .945727561869991 .151576229614874 0 .950823676439229 .1514647143392905 0
 .957327511552812 .151319493699983 0 .96360758762001 .151184618577443 0 .9696369
6043124 .1510491337395505 0 .973845909895544 .150959131413076 0 .980031946481236
 .150820086381421 0 .985772957895605 .150697972030142 0 .991044876135879 .150579
401319536 0 .993611862656632 .150527950732717 0 .995861839953975 .15046252723371
1 0 .99777482381982 .1503622646232695 0 .999368378871794 .150258408586815 0 1.00
0570386186088 .150159341859307 0 1.0015064643724 .1500842395119665 0 1.001848826
210314 .150037338962412 0 1.00203384387921 .1500245452277365 0 127 44 161 4 1 1
 1 1 1 1 1 1 1 1 1 1 1 1 1 1 1 1 1 1 1 1 1 1 1 1 1 1 1 1 1 1 1 1 1 1 1 1 1 1 1 1
 4 128 44 162 .502753601342872 .504328054031173 .506749406214855 .50972554476680
4 .513666372259735 .518490931004518 .524260207924474 .530988691362846 .538642204
875445 .547189153822398 .556606524572198 .566869126028718 .577927135667704 .5897
32425198819 .602237709769131 .615385652692521 .629126961596891 .643395641664741
 .658129279979904 .673268788568859 .688749727899631 .704502584301897 .7204680544
75976 .752734831318198 .768902921814218 .785001824742463 .800967077585858 .81671
9933988124 .832200655499629 .847340271418252 .862074536612839 .890084314117716 .
903231443938907 .915735682114533 .927542884014285 .958286879452436 .966830745939
519 .974459911927041 .981136578539187 .986843512990877 .991544908841655 .9952292
47033406 .997874620108482 .999237392478126 74 20 15 9 0 0 163 164 165 166 167 13
 145 2 143 0 0 0 0 0 0 0 0 0 0 0 81 2 163 154 168 1 0 164 0 0 0 169 81 2 164 177
 170 1 163 165 0 0 0 171 81 2 165 178 172 1 164 166 0 0 173 0 81 1 166 180 174 1
 165 167 0 0 175 81 2 167 182 176 1 166 13 0 0 0 0 81 2 13 185 177 1 167 2 0 0 1
78 0 80 2 177 179 180 8004 0 0 0 0 3 5 0 0 0 FFTFFFFFFFFFFF2 3 83 1 178 1 79 16
 180 SDL/TYSA_DENSITY80 2 176 181 182 9000 0 0 0 0 3 5 0 0 0 FFTFFFFFFFFFFF9 1 7
9 16 182 BODY_RECIPE_200180 1 174 183 184 9000 1 1 1 1 1 1 1 1 0 FFTFFFFFFFFFFF1
 82 1 175 2629704 79 10 184 BODY_MATCH80 2 172 185 186 9000 0 0 0 0 3 5 0 0 0 FF
TFTTTFFTFFFF10 10 98 14 173 83 117 114 102 97 99 101 45 80 108 97 110 101 50 79
 23 186 SWIMPLICITBODYNAME_ID_U80 2 170 187 188 9000 0 0 0 0 3 5 0 0 0 FFTFFFFFF
FFFFF9 1 82 1 171 98 79 30 188 LAST_BODY_MODIFYING_FEATURE_ID80 2 168 189 190 90
00 0 0 0 0 3 5 0 0 0 FFTFFFFFFFFFFF9 1 82 1 169 105 79 19 190 ENT_TIME_STAMP_200
180 2 12 191 192 9000 0 0 0 0 3 5 0 0 0 FFTFFFFFFFFFFF9 1 82 1 14 102 79 12 192
 ATOM_ID_20011 0 
