**ABCDEFGHIJKLMNOPQRSTUVWXYZabcdefghijklmnopqrstuvwxyz**************************
**PARASOLID !"#$%&'()*+,-./:;<=>?@[\]^_`{|}~0123456789**************************
**PART1;
MC=AMD64;
MC_MODEL=Intel64 Family 6 Model 85 Stepping 4, GenuineIntel;
MC_ID=unknown;
OS=Windows_NT;
OS_RELEASE=unknown;
FRU=Parasolid Version 35.1, build 251, 11- 4-2023;
APPL=SOLIDWORKS 2024-2024157;
SITE=;
USER=unknown;
FORMAT=text;
GUISE=transmit;
KEY=i-2;
FILE=i-2.x_t;
DATE=Sat Sep 14 15:12:48 2024;
**PART2;
SCH=SCH_3501251_35102;
USFLD_SIZE=0;
**PART3;
**END_OF_HEADER*****************************************************************
T51 : TRANSMIT FILE created by modeller version 350125117 SCH_3000000_300000 12
 1 209 2 3 0 0 0 0 0 0 1e3 1e-8 0 4 0 1 0 3 1 5 6 7 8 0 0 9 10 11 0 0 0 0 0 0 81
 2 2 208 12 1 13 0 0 0 0 14 70 3 0 4 T1 0 0 10 20 1 15 15 13 5 141 0 1 0 16 0 0
 9 16 50 6 3 0 16 0 0 0 +0 0 0 0 0 1 1 0 0 134 7 87 0 10 17 0 0 +18 19 29 8 137
 0 11 20 0 1.00203384387921 .193971198665553 0 19 9 140 0 1 0 0 5 V0 16 10 85 0
 ?21 0 22 7 0 0 1 18 11 135 0 23 0 24 8 ?1 17 23 0 0 0 0 11 25 26 0 21 -18 24 13
2 0 27 11 28 20 ?1 17 27 0 29 21 25 24 30 22 0 31 +18 28 129 0 25 24 32 33 ?1 29
 20 134 0 24 33 8 .835645880525564 .193946653437816 0 29 33 131 0 28 34 20 1.002
050155722354 .1938889161592385 0 29 34 128 0 32 35 33 .835392707872484 .14396948
26203286 0 18 32 126 0 36 28 37 34 ?1 29 35 125 0 37 38 34 .668979213925564 .143
946653437816 0 18 37 123 0 39 32 40 35 ?1 29 38 122 0 40 41 35 .835407433416964
 .1438936128162484 0 18 40 120 0 42 37 43 38 ?1 29 41 119 0 43 44 38 .5021481417
71034 .04442504824805215 0 18 43 117 0 45 40 46 41 ?1 29 44 116 0 46 47 41 27811
349054587e-30 -746815883038993e-32 0 18 46 114 0 48 43 49 44 ?1 29 47 113 0 49 5
0 44 .502312547325564 .0439466534378161 0 18 49 111 0 51 46 52 47 ?1 29 50 110 0
 52 53 47 .668402819951478 .0939990777728996 0 18 52 108 0 54 49 55 50 ?1 29 53
 107 0 55 56 50 .502312547325564 .0939466534378161 -16940658945086e-34 18 55 105
 0 57 52 58 53 ?1 29 56 104 0 58 59 53 .668402819951478 .0938169742250471 0 18 5
8 102 0 60 55 61 56 ?1 29 59 101 0 61 62 56 -2 -2 0 18 61 99 0 63 58 64 59 ?1 29
 62 98 0 64 65 59 -2 2 0 18 64 96 0 66 61 67 62 ?1 29 65 95 0 67 68 62 5 2 0 18
 67 93 0 69 64 70 65 ?1 29 68 92 0 70 0 65 5 -2 0 18 70 90 0 71 67 0 68 ?1 17 71
 0 72 69 73 70 63 74 0 75 +15 72 5 0 71 16 76 17 69 0 72 66 71 67 75 77 0 78 +17
 73 0 72 71 66 61 79 80 0 0 -17 63 0 0 0 0 61 71 74 0 73 -16 74 10 0 ?71 77 0 81
 0 0 1 17 75 0 0 0 0 70 69 77 0 0 -16 77 15 0 ?69 82 74 83 0 0 1 16 82 20 0 ?78
 80 77 84 0 0 1 30 83 17 0 77 81 84 0 +5 0 0 0 1 0 30 81 12 0 74 0 83 0 +0 -2 0
 1 0 0 30 84 22 0 82 83 85 0 +0 2 0 1 0 0 30 85 27 0 80 84 86 0 +-2 0 0 0 1 0 16
 80 25 0 ?79 87 82 85 0 0 1 30 86 32 0 87 85 88 0 +.668402819951535 407502329957
635e-27 0 609665785053364e-27 -1 0 16 87 30 0 ?60 89 80 86 0 0 1 134 88 37 0 89
 86 90 0 +91 92 16 89 35 0 ?57 93 87 88 0 0 1 134 90 42 0 93 88 94 0 +95 96 136
 91 3 46 3 44 6 FFF1 97 98 99 135 92 2 0 45 138 97 .668402819951478 .09381697422
50471 16940658945086e-34 .66835676568709 .0938051450155433 16940658945086e-34 .6
68067637340373 .0937289419030527 16940658945086e-34 .667236621510299 .0935526966
877835 16940658945086e-34 .666036641987817 .0932889289876406 16940658945086e-34
 .664442989929945 .0929691091848645 16940658945086e-34 .662531189577013 .0926085
977093737 16940658945086e-34 .660279937866709 .0922344825249781 16940658945086e-
34 .657711741431391 .0918289178339618 16940658945086e-34 .654836168610098 .09137
40076397598 16940658945086e-34 .651665493552647 .090875665950887 16940658945086e
-34 .646886141546589 .0901520480146948 16940658945086e-34 .640285825197421 .0891
944536296693 16940658945086e-34 .633287060895177 .0882818789157294 1694065894508
6e-34 .625600790017916 .0873608334621831 16940658945086e-34 .61909586284731 .086
6350047493534 16940658945086e-34 .612395796198245 .0859159184258467 169406589450
86e-34 .60718575295202 .0853884620989623 16940658945086e-34 .60188289125233 .084
8944707833534 16940658945086e-34 .596509832160752 .0844561727538757 169406589450
86e-34 .591090528861468 .0840713251533458 16940658945086e-34 .585647712668382 .0
837647981187034 16940658945086e-34 .580205086601767 .0835298612998704 1694065894
5086e-34 .574784992874156 .0833783337766037 16940658945086e-34 .567672312001177
 .0832741587306241 16940658945086e-34 .560666761409935 .0833129671776727 1694065
8945086e-34 .553800729185689 .0834581902997789 16940658945086e-34 .5488405026222
78 .083615951179416 16940658945086e-34 .544035836340975 .0838110845041477 169406
58945086e-34 .539409965112729 .0841120473986202 16940658945086e-34 .534982296206
684 .0845063399594955 16940658945086e-34 .530774540710337 .0849985859198723 1694
0658945086e-34 .52680087937954 .0855339848460631 16940658945086e-34 .52307476896
6517 .086082705914297 16940658945086e-34 .519617166720665 .0866827149535791 1694
0658945086e-34 .516444255511036 .0873446772203721 16940658945086e-34 .5135649459
36954 .0880444606862999 16940658945086e-34 .510987228285355 .0887790293074274 16
940658945086e-34 .508768099997783 .0896176989292139 16940658945086e-34 .50680556
7168036 .0902703803505878 16940658945086e-34 .505212621565313 .0910537257415676
 16940658945086e-34 .503979608802846 .09187708023329 16940658945086e-34 .5030848
39842237 .0926552318974612 16940658945086e-34 .502518556495928 .0932995380089343
 16940658945086e-34 .502308972627643 .0937641889371161 16940658945086e-34 .50231
2547325564 .0939466534378161 16940658945086e-34 127 44 98 4 1 1 1 1 1 1 1 1 1 1
 1 1 1 1 1 1 1 1 1 1 1 1 1 1 1 1 1 1 1 1 1 1 1 1 1 1 1 1 1 1 1 1 4 128 44 99 .00
168216488018417 .002171540145212005 .00487220003948517 .00862917017188315 .01341
528661782516 .01921391402548215 .0259816997254303 .0337053408558741 .04235308523
73848 .0518843478318723 .0622638333720036 .085362612773844 .1112260254546256 .12
5061960584462 .1542416323528625 .169463691558726 .1850193891547445 .200835702245
712 .2168504637297245 .232985190189659 .2491752107479425 .2653541910783055 .2814
555830097465 .297418776421543 .328645666509643 .343785069382166 .358523048870601
5 .3728024185686065 .386568599920465 .3997654826306565 .4123498172664725 .424259
6248984895 .435440806984409 .445859381517784 .455479445924134 .464273449090715 .
47222406925948 .479304964418043 .485375892187912 .490610758101947 .4950377240393
98 .498550469559746 .501085700071583 .502753601342872 16 93 40 0 ?100 101 89 90
 0 0 1 30 94 47 0 101 90 102 0 +.462761839209056 .1590331148301975 0 .3250043445
89307 -.945712522914905 0 136 95 3 46 3 44 6 FFF1 103 104 105 135 96 2 0 45 138
 103 .502312547325564 .0939466534378161 -16940658945086e-34 .502315921741617 .09
4118894881273 -16940658945086e-34 .502520652291166 .0945516848060543 -1694065894
5086e-34 .503030939217187 .095157323533003 -16940658945086e-34 .504020021305892
 .0955746958144458 -16940658945086e-34 .505230350684772 .0960848748251825 -16940
658945086e-34 .506837646499279 .0964307500653066 -16940658945086e-34 .5087613938
39594 .0967119655900909 -16940658945086e-34 .511006974197174 .0970158520712619 -
16940658945086e-34 .513576569988504 .0972262736142663 -16940658945086e-34 .51645
5315786091 .0973096005725818 -16940658945086e-34 .519627551827378 .0973311946273
005 -16940658945086e-34 .523081889376675 .0973736177823458 -16940658945086e-34 .
52680488990862 .0974023492451958 -16940658945086e-34 .530779792767888 .097344536
5125928 -16940658945086e-34 .534987984668041 .0972243215944473 -16940658945086e-
34 .539414281521249 .0971211753939766 -16940658945086e-34 .544038295924275 .0969
958563394966 -16940658945086e-34 .548841520205981 .0969134197957912 -16940658945
086e-34 .553801502408229 .0968115410162218 -16940658945086e-34 .558897598080024
 .0967017194781855 -16940658945086e-34 .564108090931905 .0965838989503848 -16940
658945086e-34 .569411443384898 .0964664217163009 -16940658945086e-34 .5766008137
55769 .0963047323268768 -16940658945086e-34 .583837020262638 .0961501818988474 -
16940658945086e-34 .591088113166725 .0959904549492748 -16940658945086e-34 .59650
7508058658 .0958693079327756 -16940658945086e-34 .601880378709968 .0957552055926
21 -16940658945086e-34 .607183610620249 .0956344809865488 -16940658945086e-34 .6
12394228670045 .0955228830489628 -16940658945086e-34 .617490343239278 .095411367
7732069 -16940658945086e-34 .623994178352857 .0952661471336791 -16940658945086e-
34 .63027425442005 .0951312720109267 -16940658945086e-34 .636303627231276 .09499
57871728302 -16940658945086e-34 .640512576695576 .0949057848462131 -169406589450
86e-34 .646698613281264 .0947667398143486 -16940658945086e-34 .652439624695629 .
0946446254628752 -16940658945086e-34 .657711542935898 .0945260547520908 -1694065
8945086e-34 .66027852945665 .0944746041651846 -16940658945086e-34 .6625285067539
9 .0944091806661027 -16940658945086e-34 .664441490619832 .0943089180555964 -1694
0658945086e-34 .666035045671803 .0942050620190875 -16940658945086e-34 .667237052
986093 .0941059952915388 -16940658945086e-34 .668065165695806 .0940395551059884
 -16940658945086e-34 .668356800219103 .0940043753878149 -16940658945086e-34 .668
402819951478 .0939990777728996 -16940658945086e-34 127 44 104 4 1 1 1 1 1 1 1 1
 1 1 1 1 1 1 1 1 1 1 1 1 1 1 1 1 1 1 1 1 1 1 1 1 1 1 1 1 1 1 1 1 1 1 4 128 44 10
5 .502753601342872 .504328054031173 .506749406214855 .509725544766804 .513666372
259735 .518490931004518 .524260207924474 .530988691362846 .538642204875445 .5471
89153822398 .556606524572198 .566869126028718 .577927135667704 .589732425198819
 .602237709769131 .615385652692521 .629126961596891 .643395641664741 .6581292799
79904 .673268788568859 .688749727899631 .704502584301897 .720468054475976 .75273
4831318198 .768902921814218 .785001824742463 .800967077585858 .816719933988124 .
832200655499629 .847340271418252 .862074536612839 .890084314117716 .903231443938
907 .915735682114533 .927542884014285 .958286879452436 .966830745939519 .9744599
11927041 .981136578539187 .986843512990877 .991544908841655 .995229247033406 .99
7874620108482 .998350156054739 16 101 45 0 ?51 106 93 94 0 0 1 134 102 52 0 106
 94 107 0 +108 109 16 106 50 0 ?48 110 101 102 0 0 1 134 107 57 0 110 102 111 0
 +112 113 136 108 3 46 3 44 6 FFF1 114 115 116 135 109 2 0 45 138 114 .502312547
325564 .0439466534378161 16940658945086e-34 .502103600306583 .0438748465331679 1
6940658945086e-34 .50121074129146 .0435487041102821 16940658945086e-34 .49866586
376121 .0427700179115318 16940658945086e-34 .495108667261234 .04165279790482695
 16940658945086e-34 .490376350553886 .0402611995314305 16940658945086e-34 .48469
3126938522 .0386617881218545 16940658945086e-34 .477987377488129 .03693077144513
765 16940658945086e-34 .470331895964976 .03502020135599785 16940658945086e-34 .4
61760377413913 .0328785292239253 16940658945086e-34 .452308349851552 .0305269046
372439 16940658945086e-34 .4380533849292875 .0270654792718835 16940658945086e-34
 .4183560628649785 .022411366908989 16940658945086e-34 .3974422436970395 .017787
140418471 16940658945086e-34 .374452369320609 .01295405046551798 16940658945086e
-34 .354981628330623 .00902598546548993 16940658945086e-34 .334919188965561 .005
06628758719342 16940658945086e-34 .319309969112375 .00208305140558041 1694065894
5086e-34 .303411241490761 -.000823761983550576 16940658945086e-34 .2872854639317
23 -.003580927425937215 16940658945086e-34 .271005644079029 -.00618884023284239
 16940658945086e-34 .2546338688582105 -.00856625958693019 16940658945086e-34 .23
8243585827372 -.0107272130465407 16940658945086e-34 .2218991844625285 -.01263001
64903657 16940658945086e-34 .2004255176739115 -.01484083819971194 16940658945086
e-34 .179237590104687 -.01659086896393285 16940658945086e-34 .1584430575417 -.01
798202216694515 16940658945086e-34 .143406380101555 -.0188272766570194 169406589
45086e-34 .1288299953121832 -.01951809029794095 16940658945086e-34 .114765893811
4552 -.01984132583246915 16940658945086e-34 .1012760751115502 -.0198295970602952
5 16940658945086e-34 .0884249387534279 -.01946313941938985 16940658945086e-34 .0
76269959961748 -.0189038331676632 16940658945086e-34 .0648597696044644 -.0182382
6911716495 16940658945086e-34 .0542476009692633 -.01734609142198525 169406589450
86e-34 .04447953156402605 -.01619074572521505 16940658945086e-34 .03558893033527
665 -.0148428073289599 16940658945086e-34 .02760076096181245 -.0133093242773085
 16940658945086e-34 .0206688487941201 -.01136556389698434 16940658945086e-34 .01
456219313866524 -.00991564445110252 16940658945086e-34 .0095379604925456 -.00797
221705716113 16940658945086e-34 .0055911302047124 -.00581190224448952 1694065894
5086e-34 .002678850379678115 -.00369807455312626 16940658945086e-34 .00079525023
7402865 -.00190129952671371 16940658945086e-34 378301725161259e-19 -.00055253791
6250543 16940658945086e-34 0 0 16940658945086e-34 127 44 115 4 1 1 1 1 1 1 1 1 1
 1 1 1 1 1 1 1 1 1 1 1 1 1 1 1 1 1 1 1 1 1 1 1 1 1 1 1 1 1 1 1 1 1 4 128 44 116
 .00145751184458488 .002171540145212005 .00487220003948517 .00862917017188315 .0
1341528661782516 .01921391402548215 .0259816997254303 .0337053408558741 .0423530
852373848 .0518843478318723 .0622638333720036 .085362612773844 .1112260254546256
 .125061960584462 .1542416323528625 .169463691558726 .1850193891547445 .20083570
2245712 .2168504637297245 .232985190189659 .2491752107479425 .2653541910783055 .
2814555830097465 .297418776421543 .328645666509643 .343785069382166 .35852304887
06015 .3728024185686065 .386568599920465 .3997654826306565 .4123498172664725 .42
42596248984895 .435440806984409 .445859381517784 .455479445924134 .4642734490907
15 .47222406925948 .479304964418043 .485375892187912 .490610758101947 .495037724
039398 .498550469559746 .501085700071583 .502753601342872 16 110 55 0 ?117 118 1
06 107 0 0 1 30 111 62 0 118 107 119 0 +.83199382600986 .1614813988261395 0 .190
5340514112985 -.981680587183426 0 136 112 3 46 3 44 6 FFF1 120 121 122 135 113 2
 0 45 138 120 27811349054587e-30 -746815883038993e-32 0 -357071858364355e-19 .00
0521581624835486 0 .000467836266092412 .001884463776513925 0 .001849000312418155
 .003851304954185705 0 .00472773114763096 .00537663521695748 0 .0082505518248397
3 .00724148788906189 0 .01301718594749252 .008715458274382 0 .01875768025243705
 .01007830838498032 0 .0254650263960442 .01159547133374682 0 .0331767757886428 .
0129164524584301 0 .04185695395793865 .01393562792814844 0 .0514408007494242 .01
484641088088224 0 .0618718827840915 .01589534903419535 0 .0731187766040734 .0169
7450495779145 0 .0851502326767356 .01785917981610125 0 .0979035487970408 .018617
3933441876 0 .1113116421962742 .01948533734231205 0 .1253233413479754 .020338951
46177035 0 .1398653585736742 .02136996379212125 0 .1548864336617535 .02238398376
46965 0 .1703210938878805 .02341027163500775 0 .186103706356807 .024442869316142
05 0 .202166939932606 .025501254885527 0 .2239433496817415 .02692867346220135 0
 .2458594413107095 .02839015632883815 0 .2678219139151025 .02983995839196365 0 .
2842369194410885 .03091817938948015 0 .3005094055373325 .0320052960635893 0 .316
5731402458375 .033053832767714 0 .332354472661739 .0341052745765065 0 .347789641
450884 .03512644735037815 0 .3674893031880105 .03642093305752775 0 .386509788652
4565 .037687053943634 0 .4047725659971875 .03888451106174185 0 .417520119574774
 .0397342585292253 0 .4362574370969925 .0409627092731639 0 .453644940379564 .042
12372735216255 0 .469613440443872 .04317042911960615 0 .477387099548197 .0436990
808904288 0 .484206170727375 .0441009995250837 0 .490015803668019 .0443077805009
3275 0 .494860767840547 .0444185604073712 0 .498520814994103 .044439458024253 0
 .501072912184976 .04445957437447565 0 .501980493483863 .04442914960102955 0 .50
2148141771034 .04442504824805215 0 127 44 121 4 1 1 1 1 1 1 1 1 1 1 1 1 1 1 1 1
 1 1 1 1 1 1 1 1 1 1 1 1 1 1 1 1 1 1 1 1 1 1 1 1 1 1 4 128 44 122 .5027536013428
72 .504328054031173 .506749406214855 .509725544766804 .513666372259735 .51849093
1004518 .524260207924474 .530988691362846 .538642204875445 .547189153822398 .556
606524572198 .566869126028718 .577927135667704 .589732425198819 .602237709769131
 .615385652692521 .629126961596891 .643395641664741 .658129279979904 .6732687885
68859 .688749727899631 .704502584301897 .720468054475976 .752734831318198 .76890
2921814218 .785001824742463 .800967077585858 .816719933988124 .832200655499629 .
847340271418252 .862074536612839 .890084314117716 .903231443938907 .915735682114
533 .927542884014285 .958286879452436 .966830745939519 .974459911927041 .9811365
78539187 .986843512990877 .991544908841655 .995229247033406 .997874620108482 .99
8433893827126 16 118 60 0 ?42 123 110 111 0 0 1 134 119 67 0 123 111 124 0 +125
 126 16 123 65 0 ?39 127 118 119 0 0 1 134 124 72 0 127 119 128 0 +129 130 136 1
25 3 46 3 44 6 FFF1 131 132 133 135 126 2 0 45 138 131 .835407433416964 .1438936
128162484 0 .835196098092388 .143852594814952 0 .834854280381731 .14375438693921
26 0 .833903288110168 .1435526966328664 0 .832703308587598 .1432889289331232 0 .
831109656529619 .1429691091308776 0 .829197856176568 .1426085976560236 0 .826946
604466139 .1422344824723776 0 .824378408030685 .1418289177822164 0 .821502835209
241 .141374007588972 0 .818332160151625 .140875665901155 0 .813552808145326 .140
1520479665542 0 .806952491795839 .1391944535837264 0 .799953727493291 .138281878
872117 0 .792267456615723 .1373608334211302 0 .785762529444876 .1366350047104664
 0 .779062462795571 .1359159183891908 0 .77385241954917 .1353884620640412 0 .768
549557849315 .1348944707501982 0 .763176498757592 .1344561727225094 0 .757757195
45818 .1340713251237842 0 .752314379264992 .1337647980909542 0 .746871753198298
 .1335298612739334 0 .741451659470637 .1333783337524716 0 .734338978597623 .1332
741587088604 0 .727333428006394 .1333129671582416 0 .720467395782196 .1334581902
826342 0 .715507169218838 .133615951163923 0 .7107025029376 .1338110844902546 0
 .706076631709455 .1341120473862672 0 .701648962803541 .134506339948617 0 .69744
1207307358 .134998585910395 0 .693467545976739 .135533984837909 0 .6897414355638
99 .1360827059073834 0 .686283833318247 .136682714947817 0 .683110922108837 .137
3446772156664 0 .680231612534989 .138044460682553 0 .677653894883634 .1387790293
04539 0 .675434766596342 .1396176989270642 0 .673472233766812 .1402703803490916
 0 .671879288164349 .141053725740602 0 .670646275402157 .141877080232735 0 .6697
51506441807 .142655231897204 0 .669185223095713 .1432995380088656 0 .66897563922
7582 .1437641889371174 0 .668979213925564 .143946653437816 0 127 44 132 4 1 1 1
 1 1 1 1 1 1 1 1 1 1 1 1 1 1 1 1 1 1 1 1 1 1 1 1 1 1 1 1 1 1 1 1 1 1 1 1 1 1 1 4
 128 44 133 .00067920327189792 .002171540145212005 .00487220003948517 .008629170
17188315 .01341528661782516 .01921391402548215 .0259816997254303 .03370534085587
41 .0423530852373848 .0518843478318723 .0622638333720036 .085362612773844 .11122
60254546256 .125061960584462 .1542416323528625 .169463691558726 .185019389154744
5 .200835702245712 .2168504637297245 .232985190189659 .2491752107479425 .2653541
910783055 .2814555830097465 .297418776421543 .328645666509643 .343785069382166 .
3585230488706015 .3728024185686065 .386568599920465 .3997654826306565 .412349817
2664725 .4242596248984895 .435440806984409 .445859381517784 .455479445924134 .46
4273449090715 .47222406925948 .479304964418043 .485375892187912 .490610758101947
 .495037724039398 .498550469559746 .501085700071583 .502753601342872 16 127 70 0
 ?134 26 123 124 0 0 1 30 128 77 0 26 124 17 0 +1.001142312423546 .1984683877308
98 0 .1944576753115415 -.980910909569483 0 136 129 3 46 3 44 6 FFF1 135 136 137
 135 130 2 0 45 138 135 .668979213925564 .143946653437816 0 .668982588341624 .14
41188948812728 0 .669187318891189 .1445516848060464 0 .669697605817233 .14515732
3532976 0 .670686687905954 .1455746958143812 0 .671897017284852 .146084874825072
4 0 .673504313099373 .146430750065136 0 .675428060439698 .1467119655898476 0 .67
767364079729 .1470158520709338 0 .680243236588627 .1472262736138412 0 .683121982
386218 .147309600572048 0 .686294218427506 .147331194626647 0 .689748555976804 .
147373617781562 0 .693471556508751 .1474023492442714 0 .697446459368016 .1473445
365115184 0 .701654651268165 .147224321593214 0 .706080948121369 .14712117539257
64 0 .71070496252439 .1469958563379218 0 .715508186806094 .1469134197940352 0 .7
20468169008337 .1468115410142786 0 .725564264680128 .14670171947605 0 .730774757
532005 .1465838989480526 0 .736078109984993 .1464664217137684 0 .743267480355858
 .146304732324073 0 .750503686862721 .1461501818957706 0 .757754779766802 .14599
04549459244 0 .76317417465873 .1458693079292206 0 .768547045310036 .145755205588
8632 0 .773850277220312 .145634480982591 0 .779060895270104 .1455228830448082 0
 .784157009839334 .14541136776886 0 .790660844952907 .1452661471290868 0 .796940
921020095 .1451312720060972 0 .802970293831315 .1449957871677734 0 .807179243295
613 .1449057848409974 0 .813365279881295 .1447667398088992 0 .819106291295656 .1
446446254572094 0 .82437820953592 .144526054746226 0 .82694519605667 .1444746041
59223 0 .829195173354008 .144409180660056 0 .831108157219846 .1443089180494776 0
 .832701712271813 .1442050620129086 0 .833903719586099 .1441059952853144 0 .8348
47297362867 .144030291239399 0 .835192653675186 .143982548248757 0 .835392707872
484 .1439694826203284 0 127 44 136 4 1 1 1 1 1 1 1 1 1 1 1 1 1 1 1 1 1 1 1 1 1 1
 1 1 1 1 1 1 1 1 1 1 1 1 1 1 1 1 1 1 1 1 4 128 44 137 .502753601342872 .50432805
4031173 .506749406214855 .509725544766804 .513666372259735 .518490931004518 .524
260207924474 .530988691362846 .538642204875445 .547189153822398 .556606524572198
 .566869126028718 .577927135667704 .589732425198819 .602237709769131 .6153856526
92521 .629126961596891 .643395641664741 .658129279979904 .673268788568859 .68874
9727899631 .704502584301897 .720468054475976 .752734831318198 .768902921814218 .
785001824742463 .800967077585858 .816719933988124 .832200655499629 .847340271418
252 .862074536612839 .890084314117716 .903231443938907 .915735682114533 .9275428
84014285 .958286879452436 .966830745939519 .974459911927041 .981136578539187 .98
6843512990877 .991544908841655 .995229247033406 .997874620108482 .99929902245490
8 16 26 75 0 ?25 22 127 128 0 0 1 134 17 82 0 22 128 7 0 +138 139 16 22 80 0 ?27
 10 26 17 0 0 1 136 138 3 46 3 44 6 FFF1 140 141 142 135 139 2 0 45 138 140 1.00
2050155722354 .1938889161592385 0 1.001853396006428 .193849910132718 0 1.0015140
95158994 .193752933776797 0 1.000569954710168 .1935526966328665 0 .9993699751875
98 .193288928933123 0 .997776323129619 .192969109130878 0 .995864522776567 .1926
085976560235 0 .993613271066139 .1922344824723775 0 .991045074630685 .1918289177
822165 0 .988169501809241 .191374007588972 0 .984998826751625 .190875665901155 0
 .980219474745326 .190152047966554 0 .973619158395839 .1891944535837265 0 .96662
0394093291 .188281878872117 0 .958934123215723 .18736083342113 0 .95242919604487
5 .1866350047104665 0 .945729129395571 .185915918389191 0 .94051908614917 .18538
8462064041 0 .935216224449315 .184894470750198 0 .929843165357592 .1844561727225
095 0 .92442386205818 .184071325123784 0 .918981045864992 .183764798090954 0 .91
3538419798298 .1835298612739335 0 .908118326070637 .1833783337524715 0 .90100564
5197623 .1832741587088605 0 .894000094606394 .1833129671582415 0 .88713406238219
6 .183458190282634 0 .882173835818838 .183615951163923 0 .8773691695376 .1838110
844902545 0 .872743298309455 .1841120473862675 0 .868315629403541 .1845063399486
17 0 .864107873907358 .184998585910395 0 .860134212576739 .185533984837909 0 .85
6408102163899 .1860827059073835 0 .852950499918247 .186682714947817 0 .849777588
708837 .1873446772156665 0 .846898279134989 .188044460682553 0 .844320561483634
 .188779029304539 0 .842101433196342 .1896176989270645 0 .840138900366812 .19027
0380349092 0 .838545954764349 .191053725740602 0 .837312942002157 .1918770802327
35 0 .836418173041807 .192655231897204 0 .835851889695713 .1932995380088655 0 .8
35642305827582 .1937641889371175 0 .835645880525564 .193946653437816 0 127 44 14
1 4 1 1 1 1 1 1 1 1 1 1 1 1 1 1 1 1 1 1 1 1 1 1 1 1 1 1 1 1 1 1 1 1 1 1 1 1 1 1
 1 1 1 1 4 128 44 142 .000736482143226322 .002171540145212005 .00487220003948517
 .00862917017188315 .01341528661782516 .01921391402548215 .0259816997254303 .033
7053408558741 .0423530852373848 .0518843478318723 .0622638333720036 .08536261277
3844 .1112260254546256 .125061960584462 .1542416323528625 .169463691558726 .1850
193891547445 .200835702245712 .2168504637297245 .232985190189659 .24917521074794
25 .2653541910783055 .2814555830097465 .297418776421543 .328645666509643 .343785
069382166 .3585230488706015 .3728024185686065 .386568599920465 .3997654826306565
 .4123498172664725 .4242596248984895 .435440806984409 .445859381517784 .45547944
5924134 .464273449090715 .47222406925948 .479304964418043 .485375892187912 .4906
10758101947 .495037724039398 .498550469559746 .501085700071583 .502753601342872
 17 25 0 29 27 21 28 23 26 0 30 +15 29 9 0 25 16 0 17 21 0 29 25 27 11 31 10 0 0
 +17 30 0 0 0 0 28 27 22 0 0 -17 31 0 0 0 0 24 21 10 0 0 -14 16 1 143 ?0 0 72 5
 6 +0 0 0 0 5 81 1 143 209 144 16 145 0 0 0 146 80 1 144 147 148 9000 1 1 1 1 1
 1 1 1 0 FFFFTFTFFFFFFF1 81 1 145 188 149 16 0 143 0 0 150 82 1 146 -1471348603
 80 1 149 0 151 8001 0 0 0 0 3 5 0 0 0 FFFFTFTFFFFFFF2 83 3 150 .792156862745098
 .819607843137255 .933333333333333 79 15 151 SDL/TYSA_COLOUR79 14 148 SWEntUncha
nged17 134 0 152 42 39 32 153 127 0 0 +15 152 8 0 42 16 29 17 42 0 152 39 134 40
 36 118 0 154 +17 39 0 152 134 42 37 154 123 0 153 +17 153 0 0 0 0 37 134 127 0
 0 -17 154 0 0 0 0 40 39 123 0 0 -17 36 0 0 0 0 32 42 118 0 134 -17 117 0 155 51
 48 43 156 110 0 0 +15 155 7 0 51 16 152 17 51 0 155 48 117 49 45 101 0 157 +17
 48 0 155 117 51 46 157 106 0 156 +17 156 0 0 0 0 46 117 110 0 0 -17 157 0 0 0 0
 49 48 106 0 0 -17 45 0 0 0 0 43 51 101 0 117 -17 100 0 76 60 57 52 158 93 0 0 +
15 76 6 0 60 16 155 17 60 0 76 57 100 58 54 87 0 159 +17 57 0 76 100 60 55 159 8
9 0 158 +17 158 0 0 0 0 55 100 93 0 0 -17 159 0 0 0 0 58 57 89 0 0 -17 54 0 0 0
 0 52 60 87 0 100 -17 79 0 0 0 0 64 73 80 0 0 +17 78 0 0 0 0 67 66 82 0 0 +17 66
 0 72 73 69 64 78 82 0 79 -136 18 3 46 3 44 6 FFF1 160 161 162 135 19 2 0 45 138
 160 .835645880525564 .193946653437816 0 .835649254941611 .194118894881273 0 .83
5853985491145 .1945516848060615 0 .836364272417147 .195157323533027 0 .837353354
505837 .1955746958145035 0 .838563683884699 .196084874825281 0 .840170979699195
 .1964307500654595 0 .8420947270395 .196711965590309 0 .844340307397071 .1970158
52071556 0 .846909903188392 .1972262736146475 0 .849788648985977 .19730960057306
05 0 .852960885027264 .1973311946278865 0 .856415222576559 .197373617783049 0 .8
60138223108503 .197402349246025 0 .864113125967773 .1973445365135565 0 .86832131
786793 .1972243215955535 0 .872747614721141 .197121175395233 0 .877371629124172
 .1969958563409095 0 .882174853405881 .1969134197973665 0 .887134835608132 .1968
11541017965 0 .89223093127993 .1967017194801015 0 .897441424131816 .196583898952
477 0 .902744776584812 .1964664217185725 0 .909934146955689 .196304732329392 0 .
917170353462563 .196150181901608 0 .924421446366656 .195990454952281 0 .92984084
1258592 .195869307935965 0 .935213711909906 .1957552055959925 0 .940516943820191
 .1956344809900995 0 .945727561869991 .19552288305269 0 .950823676439228 .195411
367777107 0 .957327511552812 .195266147137799 0 .963607587620009 .19513127201525
95 0 .96963696043124 .194995787177367 0 .973845909895544 .1949057848508925 0 .98
0031946481236 .1947667398192375 0 .985772957895605 .1946446254679585 0 .99104487
6135878 .1945260547573525 0 .993611862656632 .1944746041705335 0 .99586183995397
5 .1944091806715275 0 .997774823819819 .194308918061086 0 .999368378871794 .1942
05062024631 0 1.000570386186088 .194105995297123 0 1.0015064643724 .194030892949
7825 0 1.001848826210314 .1939839924002285 0 1.00203384387921 .193971198665553 0
 127 44 161 4 1 1 1 1 1 1 1 1 1 1 1 1 1 1 1 1 1 1 1 1 1 1 1 1 1 1 1 1 1 1 1 1 1
 1 1 1 1 1 1 1 1 1 4 128 44 162 .502753601342872 .504328054031173 .5067494062148
55 .509725544766804 .513666372259735 .518490931004518 .524260207924474 .53098869
1362846 .538642204875445 .547189153822398 .556606524572198 .566869126028718 .577
927135667704 .589732425198819 .602237709769131 .615385652692521 .629126961596891
 .643395641664741 .658129279979904 .673268788568859 .688749727899631 .7045025843
01897 .720468054475976 .752734831318198 .768902921814218 .785001824742463 .80096
7077585858 .816719933988124 .832200655499629 .847340271418252 .862074536612839 .
890084314117716 .903231443938907 .915735682114533 .927542884014285 .958286879452
436 .966830745939519 .974459911927041 .981136578539187 .986843512990877 .9915449
08841655 .995229247033406 .997874620108482 .999237392478126 74 20 15 10 0 0 163
 164 165 166 167 168 13 145 2 143 0 0 0 0 0 0 0 0 0 0 81 2 163 138 169 1 0 164 0
 0 0 170 81 5 164 139 171 1 163 165 0 0 172 0 0 0 0 81 2 165 162 173 1 164 166 0
 0 0 174 81 2 166 163 175 1 165 167 0 0 176 0 81 1 167 165 177 1 166 168 0 0 178
 81 2 168 167 179 1 167 13 0 0 0 0 81 2 13 170 180 1 168 2 0 0 181 0 80 2 180 18
2 183 8004 0 0 0 0 3 5 0 0 0 FFTFFFFFFFFFFF2 3 83 1 181 1 79 16 183 SDL/TYSA_DEN
SITY80 2 179 184 185 9000 0 0 0 0 3 5 0 0 0 FFTFFFFFFFFFFF9 1 79 16 185 BODY_REC
IPE_200180 1 177 186 187 9000 1 1 1 1 1 1 1 1 0 FFTFFFFFFFFFFF1 82 1 178 2861131
 79 10 187 BODY_MATCH80 2 175 188 189 9000 0 0 0 0 3 5 0 0 0 FFTFTTTFFTFFFF10 10
 98 14 176 83 117 114 102 97 99 101 45 80 108 97 110 101 50 79 23 189 SWIMPLICIT
BODYNAME_ID_U80 2 173 190 191 9000 0 0 0 0 3 5 0 0 0 FFTFFFFFFFFFFF9 1 82 1 174
 98 79 30 191 LAST_BODY_MODIFYING_FEATURE_ID80 5 171 192 193 9000 0 0 0 0 3 6 0
 0 0 FFTTTTTTFTTFTT2 2 2 2 2 83 1 172 1 79 19 193 BODY_SCALING_FACTOR80 2 169 19
4 195 9000 0 0 0 0 3 5 0 0 0 FFTFFFFFFFFFFF9 1 82 1 170 108 79 19 195 ENT_TIME_S
TAMP_200180 2 12 196 197 9000 0 0 0 0 3 5 0 0 0 FFTFFFFFFFFFFF9 1 82 1 14 102 79
 12 197 ATOM_ID_20011 0 
