**ABCDEFGHIJKLMNOPQRSTUVWXYZabcdefghijklmnopqrstuvwxyz**************************
**PARASOLID !"#$%&'()*+,-./:;<=>?@[\]^_`{|}~0123456789**************************
**PART1;
MC=AMD64;
MC_MODEL=Intel64 Family 6 Model 85 Stepping 4, GenuineIntel;
MC_ID=unknown;
OS=Windows_NT;
OS_RELEASE=unknown;
FRU=Parasolid Version 35.1, build 251, 11- 4-2023;
APPL=SOLIDWORKS 2024-2024157;
SITE=;
USER=unknown;
FORMAT=text;
GUISE=transmit;
KEY=i-3;
FILE=i-3.x_t;
DATE=Sat Sep 14 16:16:19 2024;
**PART2;
SCH=SCH_3501251_35102;
USFLD_SIZE=0;
**PART3;
**END_OF_HEADER*****************************************************************
T51 : TRANSMIT FILE created by modeller version 350125117 SCH_3000000_300000 12
 1 209 2 3 0 0 0 0 0 0 1e3 1e-8 0 4 0 1 0 3 1 5 6 7 8 0 0 9 10 11 0 0 0 0 0 0 81
 2 2 208 12 1 13 0 0 0 0 14 70 3 0 4 T1 0 0 10 20 1 15 15 13 5 141 0 1 0 16 0 0
 9 16 50 6 3 0 16 0 0 0 +0 0 0 0 0 1 1 0 0 134 7 87 0 10 17 0 0 +18 19 29 8 137
 0 11 20 0 1 .225970710322967 0 19 9 140 0 1 0 0 5 V0 16 10 85 0 ?21 0 22 7 0 0
 1 18 11 135 0 23 0 24 8 ?1 17 23 0 0 0 0 11 25 26 0 21 -18 24 132 0 27 11 28 20
 ?1 17 27 0 29 21 25 24 30 22 0 31 +18 28 129 0 25 24 32 33 ?1 29 20 134 0 24 33
 8 .858759646441106 .188125471648176 0 29 33 131 0 28 34 20 1.000037036075618 .2
258954453498715 0 29 34 128 0 32 35 33 .857759646441287 .1381254716482246 0 18 3
2 126 0 36 28 37 34 ?1 29 35 125 0 37 38 34 .71375832518315 .1127341534527486 0
 18 37 123 0 39 32 40 35 ?1 29 38 122 0 40 41 35 .857787308482725 .1380533060033
866 0 18 40 120 0 42 37 43 38 ?1 29 41 119 0 43 44 38 .565969888144543 .00049090
3261768705 0 18 43 117 0 45 40 46 41 ?1 29 44 116 0 46 47 41 559239868811231e-27
 484971694148223e-30 0 18 46 114 0 48 43 49 44 ?1 29 47 113 0 49 50 44 .56609197
323129 0 0 18 49 111 0 51 46 52 47 ?1 29 50 110 0 52 53 47 .712758325183335 .062
7341534527812 0 18 52 108 0 54 49 55 50 ?1 29 53 107 0 55 56 50 .567091973231102
 .0499899989997835 -16940658945086e-34 18 55 105 0 57 52 58 53 ?1 29 56 104 0 58
 59 53 .712758325183335 .0625520499046443 0 18 58 102 0 60 55 61 56 ?1 29 59 101
 0 61 62 56 -2 -2 0 18 61 99 0 63 58 64 59 ?1 29 62 98 0 64 65 59 -2 2 0 18 64 9
6 0 66 61 67 62 ?1 29 65 95 0 67 68 62 5 2 0 18 67 93 0 69 64 70 65 ?1 29 68 92
 0 70 0 65 5 -2 0 18 70 90 0 71 67 0 68 ?1 17 71 0 72 69 73 70 63 74 0 75 +15 72
 5 0 71 16 76 17 69 0 72 66 71 67 75 77 0 78 +17 73 0 72 71 66 61 79 80 0 0 -17
 63 0 0 0 0 61 71 74 0 73 -16 74 10 0 ?71 77 0 81 0 0 1 17 75 0 0 0 0 70 69 77 0
 0 -16 77 15 0 ?69 82 74 83 0 0 1 16 82 20 0 ?78 80 77 84 0 0 1 30 83 17 0 77 81
 84 0 +5 0 0 0 1 0 30 81 12 0 74 0 83 0 +0 -2 0 1 0 0 30 84 22 0 82 83 85 0 +0 2
 0 1 0 0 30 85 27 0 80 84 86 0 +-2 0 0 0 1 0 16 80 25 0 ?79 87 82 85 0 0 1 30 86
 32 0 87 85 88 0 +.712758325183335 0 0 0 -1 0 16 87 30 0 ?60 89 80 86 0 0 1 134
 88 37 0 89 86 90 0 +91 92 16 89 35 0 ?57 93 87 88 0 0 1 134 90 42 0 93 88 94 0
 +95 96 136 91 3 46 3 44 6 FFF1 97 98 99 135 92 2 0 45 138 97 .712758325183523 .
0625520499046606 16940658945086e-34 .712718839689418 .0625381612270165 169406589
45086e-34 .712471098049881 .0624492673916294 16940658945086e-34 .711755771540134
 .0622312833813459 16940658945086e-34 .710723553937185 .0619083858461253 1694065
8945086e-34 .709350374511754 .0615062876738537 16940658945086e-34 .7077012935926
38 .0610442234293488 16940658945086e-34 .705755561683544 .0605443226683056 16940
658945086e-34 .703534278428422 .059992652807149 16940658945086e-34 .701047200786
313 .0593742498069983 16940658945086e-34 .698304641489424 .0586952368313083 1694
0658945086e-34 .69416851093326 .0576958910195704 16940658945086e-34 .68845330308
5248 .056352381066762 16940658945086e-34 .682385231853434 .0550179431006149 1694
0658945086e-34 .675714883343489 .0536236070018703 16940658945086e-34 .6700656410
67708 .052490628933344 16940658945086e-34 .66424475243822 .0513486709784807 1694
0658945086e-34 .659715947110577 .0504884835811222 16940658945086e-34 .6551031886
31104 .0496505602750684 16940658945086e-34 .650424618598102 .0488561210340597 16
940658945086e-34 .645701414445948 .0481050270093156 16940658945086e-34 .64095161
2837907 .0474208234269437 16940658945086e-34 .636196514300852 .0467994169421039
 16940658945086e-34 .631454810305508 .0462528776785089 16940658945086e-34 .62522
5141549285 .0456186893242875 16940658945086e-34 .619078510710519 .04511806946756
12 16940658945086e-34 .613046112101454 .04472142010598075 16940658945086e-34 .60
8684094101186 .0444812144081918 16940658945086e-34 .604455645840698 .04428565542
5858 16940658945086e-34 .600375919003227 .04419655135932615 16940658945086e-34 .
596462887188013 .0442044212836209 16940658945086e-34 .592735237525773 .044314977
0410834 16940658945086e-34 .589209588428887 .0444812424620815 16940658945086e-34
 .585900017733614 .0446780837612387 16940658945086e-34 .582822006854206 .0449403
9532080745 16940658945086e-34 .579988933750143 .045278765321792 16940658945086e-
34 .577410454486576 .0456727107046384 16940658945086e-34 .575093808024962 .04612
01787524419 16940658945086e-34 .573083689416013 .0466863074588407 16940658945086
e-34 .57131279209847 .0471089127965829 16940658945086e-34 .569856040198879 .0476
743131041885 16940658945086e-34 .568711885746089 .0483022698254736 1694065894508
6e-34 .567867811323477 .0489163992409704 16940658945086e-34 .567322024365568 .04
94382194654942 16940658945086e-34 .567102763756612 .04982970999559 1694065894508
6e-34 .56709197323129 .0499899989998 16940658945086e-34 127 44 98 4 1 1 1 1 1 1
 1 1 1 1 1 1 1 1 1 1 1 1 1 1 1 1 1 1 1 1 1 1 1 1 1 1 1 1 1 1 1 1 1 1 1 1 4 128 4
4 99 .00168216488018417 .002171540145212005 .00487220003948517 .0086291701718831
5 .01341528661782516 .01921391402548215 .0259816997254303 .0337053408558741 .042
3530852373848 .0518843478318723 .0622638333720036 .085362612773844 .111226025454
6256 .125061960584462 .1542416323528625 .169463691558726 .1850193891547445 .2008
35702245712 .2168504637297245 .232985190189659 .2491752107479425 .26535419107830
55 .2814555830097465 .297418776421543 .328645666509643 .343785069382166 .3585230
488706015 .3728024185686065 .386568599920465 .3997654826306565 .4123498172664725
 .4242596248984895 .435440806984409 .445859381517784 .455479445924134 .464273449
090715 .47222406925948 .479304964418043 .485375892187912 .490610758101947 .49503
7724039398 .498550469559746 .501085700071583 .502753601342872 16 93 40 0 ?100 10
1 89 90 0 0 1 30 94 47 0 101 90 102 0 +.533119039503891 .132583930996092 0 .2413
43327575908 -.970439796295777 0 136 95 3 46 3 44 6 FFF1 103 104 105 135 96 2 0 4
5 138 103 .567091973231102 .0499899989997835 -16940658945086e-34 .56708176432702
9 .0501413222627318 -16940658945086e-34 .56722823606246 .0505365553340495 -16940
658945086e-34 .567629482760174 .0511067472108378 -16940658945086e-34 .5684650529
30962 .051548424541957 -16940658945086e-34 .56948757382309 .0520884136303257 -16
940658945086e-34 .570870817837218 .0525146486759083 -16940658945086e-34 .5725365
50809574 .0529083673860037 -16940658945086e-34 .574482815874262 .053346575025926
3 -16940658945086e-34 .576720406121851 .0537275808428635 -16940658945086e-34 .57
9238854852541 .0540207532625511 -16940658945086e-34 .582019430461577 .0542822208
532306 -16940658945086e-34 .585045832246978 .0545835243528413 -16940658945086e-3
4 .588308913112268 .0548933596943639 -16940658945086e-34 .591799542860922 .05514
65497909966 -16940658945086e-34 .595499550870638 .0553628454712868 -169406589450
86e-34 .599389544030922 .055610786239014 -16940658945086e-34 .603454641614751 .0
558543963768701 -16940658945086e-34 .607673637662892 .0561493180642896 -16940658
945086e-34 .612031605507939 .0564391725198253 -16940658945086e-34 .6165095596491
81 .0567324670818638 -16940658945086e-34 .621088457998133 .0570274921470573 -169
40658945086e-34 .625748773109807 .0573299177372982 -16940658945086e-34 .63206661
0473482 .0577377594093328 -16940658945086e-34 .638424979921909 .0581554431300364
 -16940658945086e-34 .644796801327424 .0585697248714154 -16940658945086e-34 .649
559172647 .0588778037049461 -16940658945086e-34 .654280201043198 .05918850417045
97 -16940658945086e-34 .658940658705057 .0594880724198613 -16940658945086e-34 .6
63519191120978 .0597885646128236 -16940658945086e-34 .667997291328423 .060080375
1179309 -16940658945086e-34 .673712617243369 .060450249255073 -16940658945086e-3
4 .679230903142042 .0608120898304253 -16940658945086e-34 .684529355026996 .06115
42285212418 -16940658945086e-34 .688227717605343 .0613970802345637 -169406589450
86e-34 .69366384447887 .0617480739254805 -16940658945086e-34 .698708365241905 .0
620798930474724 -16940658945086e-34 .70334119440963 .062378956343927 -1694065894
5086e-34 .70559651721199 .0625300863240494 -16940658945086e-34 .707574873660618
 .0626447248361514 -16940658945086e-34 .709260331792215 .0627030432070453 -16940
658945086e-34 .710665907907763 .062733788507605 -16940658945086e-34 .71172770883
1197 .0627387991192714 -16940658945086e-34 .712459089084433 .0627438394788795 -1
6940658945086e-34 .712717558310492 .0627352813866133 -16940658945086e-34 .712758
325183335 .0627341534527812 -16940658945086e-34 127 44 104 4 1 1 1 1 1 1 1 1 1 1
 1 1 1 1 1 1 1 1 1 1 1 1 1 1 1 1 1 1 1 1 1 1 1 1 1 1 1 1 1 1 1 1 4 128 44 105 .5
02753601342872 .504328054031173 .506749406214855 .509725544766804 .5136663722597
35 .518490931004518 .524260207924474 .530988691362846 .538642204875445 .54718915
3822398 .556606524572198 .566869126028718 .577927135667704 .589732425198819 .602
237709769131 .615385652692521 .629126961596891 .643395641664741 .658129279979904
 .673268788568859 .688749727899631 .704502584301897 .720468054475976 .7527348313
18198 .768902921814218 .785001824742463 .800967077585858 .816719933988124 .83220
0655499629 .847340271418252 .862074536612839 .890084314117716 .903231443938907 .
915735682114533 .927542884014285 .958286879452436 .966830745939519 .974459911927
041 .981136578539187 .986843512990877 .991544908841655 .995229247033406 .9978746
20108482 .998350156054739 16 101 45 0 ?51 106 93 94 0 0 1 134 102 52 0 106 94 10
7 0 +108 109 16 106 50 0 ?48 110 101 102 0 0 1 134 107 57 0 110 102 111 0 +112 1
13 136 108 3 46 3 44 6 FFF1 114 115 116 135 109 2 0 45 138 114 .566091973230731
 0 16940658945086e-34 .565851258408056 -59864523820038e-18 16940658945086e-34 .5
64820762605529 -.0003372610701829355 16940658945086e-34 .561898350524306 -.00095
9140371238242 16940658945086e-34 .55781062483983 -.001860585928461 1694065894508
6e-34 .552381784359946 -.002953915770460865 16940658945086e-34 .54586910500391 -
.00418662138679494 16940658945086e-34 .538199944176598 -.00546646338278737 16940
658945086e-34 .529451023577419 -.00685419023520434 16940658945086e-34 .519654984
169598 -.00841075150070018 16940658945086e-34 .508853630327918 -.010115969602842
62 16940658945086e-34 .492572026503577 -.01259244191318166 16940658945086e-34 .4
7008692831681 -.01587030316189185 16940658945086e-34 .4462442106925705 -.0189957
07571146 16940658945086e-34 .4200591731955615 -.02215156873482125 16940658945086
e-34 .397898528257437 -.0246395812092144 16940658945086e-34 .3750730261365475 -.
02710507557256515 16940658945086e-34 .3573235987168305 -.02891422433057865 16940
658945086e-34 .339257860468842 -.03060957316054145 16940658945086e-34 .320952829
8721525 -.03211533763731985 16940658945086e-34 .302490120796702 -.03343910355388
495 16940658945086e-34 .2839471212161675 -.03449608538704045 16940658945086e-34
 .2654046031135595 -.03530915842944295 16940658945086e-34 .2469386591055515 -.03
583800310170415 16940658945086e-34 .2227059492663585 -.03620944897486895 1694065
8945086e-34 .198837900910094 -.03609350028689055 16940658945086e-34 .17544494540
1379 -.03561467201921365 16940658945086e-34 .1585450535387645 -.0350887008682613
5 16940658945086e-34 .1421750698028862 -.03443504022082675 16940658945086e-34 .1
264139962084806 -.0334204022226014 16940658945086e-34 .1113279824865012 -.032087
3290510338 16940658945086e-34 .0969909877191506 -.0304200171873639 1694065894508
6e-34 .0834514531236861 -.028605139141593 16940658945086e-34 .0707552952346363 -
.0267442974756291 16940658945086e-34 .0589738273582386 -.02470809367555445 16940
658945086e-34 .0481621598662952 -.0224601535521918 16940658945086e-34 .038350707
28295305 -.02008267439247405 16940658945086e-34 .02956669962169355 -.01758598145
9385 16940658945086e-34 .02200416654960175 -.01473378280967042 16940658945086e-3
4 .0153162879357193 -.01251465121568924 16940658945086e-34 .00988729200614472 -.
00984948814535171 16940658945086e-34 .00568449676605987 -.00704717777407877 1694
0658945086e-34 .002634205438746445 -.004398088095144355 16940658945086e-34 .0007
03377705734551 -.00220424813782762 16940658945086e-34 -1175520548732466e-20 -.00
0621666090198285 16940658945086e-34 0 0 16940658945086e-34 127 44 115 4 1 1 1 1
 1 1 1 1 1 1 1 1 1 1 1 1 1 1 1 1 1 1 1 1 1 1 1 1 1 1 1 1 1 1 1 1 1 1 1 1 1 1 4 1
28 44 116 .00145751184458488 .002171540145212005 .00487220003948517 .00862917017
188315 .01341528661782516 .01921391402548215 .0259816997254303 .0337053408558741
 .0423530852373848 .0518843478318723 .0622638333720036 .085362612773844 .1112260
254546256 .125061960584462 .1542416323528625 .169463691558726 .1850193891547445
 .200835702245712 .2168504637297245 .232985190189659 .2491752107479425 .26535419
10783055 .2814555830097465 .297418776421543 .328645666509643 .343785069382166 .3
585230488706015 .3728024185686065 .386568599920465 .3997654826306565 .4123498172
664725 .4242596248984895 .435440806984409 .445859381517784 .455479445924134 .464
273449090715 .47222406925948 .479304964418043 .485375892187912 .490610758101947
 .495037724039398 .498550469559746 .501085700071583 .502753601342872 16 110 55 0
 ?117 118 106 107 0 0 1 30 111 62 0 118 107 119 0 +.79403779480799 .304365137068
7595 0 .357919588828998 -.933752412544397 0 136 112 3 46 3 44 6 FFF1 120 121 122
 135 113 2 0 45 138 120 559239868811231e-27 484971694148223e-30 0 11163313058293
3e-19 .000586850791395221 0 .000707862874774767 .002061807037984175 0 .002445289
488393235 .004126268801131545 0 .00581438501562539 .00555021501487017 0 .0099371
1295396547 .00729079187280703 0 .0154126645236543 .00847233795119129 0 .02196652
414123315 .00943419478611938 0 .02961685792137145 .0104739173535903 0 .038371326
5610767 .0111958229835197 0 .0481793471729223 .01148530322526632 0 .058987438720
8758 .01156502169022774 0 .0707566386745258 .0117162535268038 0 .083441227474616
4 .01182135682279874 0 .0969842409813521 .0116320831624517 0 .1113222150514924 .
0112306507903787 0 .126403261988952 .01088779580558666 0 .1421579958403866 .0104
6977865586576 0 .158523233046694 .0101982137845361 0 .175422598221439 .009860710
89656049 0 .192785731326835 .00949640989748377 0 .2105386428474785 .009105077132
36509 0 .2286079358831605 .00871509389325012 0 .253103170950276 .008178128933064
18 0 .2777579677042255 .00766557787788809 0 .3024634939675485 .00713541872133585
 0 .3209281625974345 .00673315695662834 0 .339234304723233 .00635480699886986 0
 .3573031933484005 .00595375939698372 0 .375056519376669 .00558362787714283 0 .3
92419720148715 .00521355617663825 0 .4145792344161165 .00473137390559206 0 .4359
763586333175 .004284006401083945 0 .456519312338863 .003834075867498195 0 .47085
9808979392 .003535582359437265 0 .491936539121083 .0030738253723214 0 .511496990
085916 .002668890838918945 0 .529459185654812 .002275121117727725 0 .53820527154
5104 .0021047965016764 0 .545871301582997 .00188625062608154 0 .552389227945283
 .001548351497367195 0 .557818834555133 .001197590395238352 0 .561914388607009 .
000862388447087292 0 .564770701588105 .000634858459078062 0 .565782787071803 .00
0511914824893009 0 .565969888144543 .000490903261768706 0 127 44 121 4 1 1 1 1 1
 1 1 1 1 1 1 1 1 1 1 1 1 1 1 1 1 1 1 1 1 1 1 1 1 1 1 1 1 1 1 1 1 1 1 1 1 1 4 128
 44 122 .502753601342872 .504328054031173 .506749406214855 .509725544766804 .513
666372259735 .518490931004518 .524260207924474 .530988691362846 .538642204875445
 .547189153822398 .556606524572198 .566869126028718 .577927135667704 .5897324251
98819 .602237709769131 .615385652692521 .629126961596891 .643395641664741 .65812
9279979904 .673268788568859 .688749727899631 .704502584301897 .720468054475976 .
752734831318198 .768902921814218 .785001824742463 .800967077585858 .816719933988
124 .832200655499629 .847340271418252 .862074536612839 .890084314117716 .9032314
43938907 .915735682114533 .927542884014285 .958286879452436 .966830745939519 .97
4459911927041 .981136578539187 .986843512990877 .991544908841655 .99522924703340
6 .997874620108482 .998433893827126 16 118 60 0 ?42 123 110 111 0 0 1 134 119 67
 0 123 111 124 0 +125 126 16 123 65 0 ?39 127 118 119 0 0 1 134 124 72 0 127 119
 128 0 +129 130 136 125 3 46 3 44 6 FFF1 131 132 133 135 126 2 0 45 138 131 .857
787308482725 .1380533060033866 0 .857610678101835 .137985601253762 0 .8573298492
47129 .1378485198701956 0 .856537634575625 .137529045276983 0 .855539416549397 .
1371179034374292 0 .854209071505764 .1365982571712052 0 .852609614304552 .135994
9093586336 0 .850718481621971 .1353280541689568 0 .848557869723972 .134585678699
8756 0 .846138786200992 .1337537547047814 0 .843470951309419 .1328392706335692 0
 .839445360154621 .1314846649152346 0 .833879632966312 .12965005433976 0 .827962
242105406 .1277936753436182 0 .821451199189097 .1258251843296718 0 .815932695284
27 .1242056734058838 0 .810244297209137 .1225622562116346 0 .805816104924474 .12
13117606364 0 .801302490594512 .1200760781508036 0 .796719641884409 .11887789193
05194 0 .792088628834633 .1177189117544078 0 .78742533187681 .1166241237724266 0
 .782751288500134 .1155913163239972 0 .77808403151234 .1146341223488064 0 .77194
4854546628 .1134599410468404 0 .765876592332324 .1124258199852914 0 .75991284572
8435 .1115050500603408 0 .755596402841803 .1108855905670196 0 .751408880265723 .
1103221805094172 0 .747359951083854 .109877601354945 0 .743468314727488 .1095439
93974084 0 .739752054482796 .109328668527725 0 .736231793901895 .109186363988827
6 0 .732923724433335 .1090933167741194 0 .729840195405199 .1090855751846634 0 .7
26993585406762 .1091748349481944 0 .724395283267926 .109341571139022 0 .72205266
6209493 .1095843742621934 0 .720004493420262 .109971914603972 0 .718206715120161
 .1102376148463542 0 .716708849819487 .1106727150962554 0 .715516359524577 .1111
972945336514 0 .714623462344374 .111734308278876 0 .71403522379228 .112205560927
4404 0 .713783040885612 .1125757105277064 0 .713758325183335 .1127341534527812 0
 127 44 132 4 1 1 1 1 1 1 1 1 1 1 1 1 1 1 1 1 1 1 1 1 1 1 1 1 1 1 1 1 1 1 1 1 1
 1 1 1 1 1 1 1 1 1 4 128 44 133 .00067920327189792 .002171540145212005 .00487220
003948517 .00862917017188315 .01341528661782516 .01921391402548215 .025981699725
4303 .0337053408558741 .0423530852373848 .0518843478318723 .0622638333720036 .08
5362612773844 .1112260254546256 .125061960584462 .1542416323528625 .169463691558
726 .1850193891547445 .200835702245712 .2168504637297245 .232985190189659 .24917
52107479425 .2653541910783055 .2814555830097465 .297418776421543 .32864566650964
3 .343785069382166 .3585230488706015 .3728024185686065 .386568599920465 .3997654
826306565 .4123498172664725 .4242596248984895 .435440806984409 .445859381517784
 .455479445924134 .464273449090715 .47222406925948 .479304964418043 .48537589218
7912 .490610758101947 .495037724039398 .498550469559746 .501085700071583 .502753
601342872 16 127 70 0 ?134 26 123 124 0 0 1 30 128 77 0 26 124 17 0 +.8945818861
01082 .440202142080919 0 .4415165780501555 -.897253092113302 0 136 129 3 46 3 44
 6 FFF1 135 136 137 135 130 2 0 45 138 135 .71375832518315 .1127341534527486 0 .
713734985113509 .112883715898374 0 .71384616374984 .113289441178243 0 .714195400
852501 .113891325433059 0 .714987663426047 .1144032921569554 0 .71595723145533 .
1150293001391346 0 .717295361642175 .1155736508432368 0 .718917189119353 .116110
2952033132 0 .720814056205302 .1167156246983436 0 .723005557630915 .117289474643
5642 0 .72548395690674 .1178004774521852 0 .72822573785673 .1183028059143112 0 .
731208457831369 .1188661681690554 0 .734425750966387 .1194586430292954 0 .737874
220704504 .1200146327237262 0 .741534079448726 .1205521905790936 0 .745380071539
216 .121137771228151 0 .749400537681382 .1217343089564848 0 .753569543981852 .12
2395277290523 0 .757877163880583 .123063320881042 0 .762303779618744 .1237452432
506732 0 .766830607723854 .1244376848534322 0 .771437738923622 .1251445809881916
 0 .777683663718256 .1261007625563512 0 .783969029436322 .1270702624597528 0 .79
0268066215972 .1280375524895214 0 .794976173461249 .1287589649457418 0 .79964294
7228466 .129479380334463 0 .804250469214897 .1301834479995748 0 .808776456957028
 .130881293366873 0 .813203347276861 .1315617529530406 0 .818853537888876 .13242
7668271612 0 .824308522822005 .1332684214919992 0 .829546656330388 .134070424637
1074 0 .833202564386585 .1346342422550602 0 .838576808632968 .1354570497217452 0
 .843563372061549 .1362266590688824 0 .848143468588504 .136927816480268 0 .85037
2637378883 .137274659320796 0 .852329614685899 .1375610792609422 0 .854000288590
03 .1377659730632178 0 .855395094767854 .1379190568908024 0 .856450347552012 .13
80165893659684 0 .857278408170496 .138094938162568 0 .857584538883842 .138106277
444768 0 .857759646441287 .1381254716482246 0 127 44 136 4 1 1 1 1 1 1 1 1 1 1 1
 1 1 1 1 1 1 1 1 1 1 1 1 1 1 1 1 1 1 1 1 1 1 1 1 1 1 1 1 1 1 1 4 128 44 137 .502
753601342872 .504328054031173 .506749406214855 .509725544766804 .513666372259735
 .518490931004518 .524260207924474 .530988691362846 .538642204875445 .5471891538
22398 .556606524572198 .566869126028718 .577927135667704 .589732425198819 .60223
7709769131 .615385652692521 .629126961596891 .643395641664741 .658129279979904 .
673268788568859 .688749727899631 .704502584301897 .720468054475976 .752734831318
198 .768902921814218 .785001824742463 .800967077585858 .816719933988124 .8322006
55499629 .847340271418252 .862074536612839 .890084314117716 .903231443938907 .91
5735682114533 .927542884014285 .958286879452436 .966830745939519 .97445991192704
1 .981136578539187 .986843512990877 .991544908841655 .995229247033406 .997874620
108482 .999299022454908 16 26 75 0 ?25 22 127 128 0 0 1 134 17 82 0 22 128 7 0 +
138 139 16 22 80 0 ?27 10 26 17 0 0 1 136 138 3 46 3 44 6 FFF1 140 141 142 135 1
39 2 0 45 138 140 1.000037036075618 .2258954453498715 0 .999878867370673 .225817
614349928 0 .999612867365596 .2256581754858105 0 .998856873911246 .2252736133112
26 0 .997898131711445 .224776973653577 0 .996617931252724 .224143279487367 0 .99
5076895740635 .223402735146129 0 .993250784206177 .2225734946172185 0 .991162758
872454 .221645523329826 0 .988825009768152 .2206058035898775 0 .986246612603403
 .219462145497237 0 .98235377294031 .2177616386195425 0 .97696825262693 .2154486
50239235 0 .971234249339762 .21308332409582 0 .964918531683345 .2105545561431245
 0 .959561315566117 .208459998029125 0 .95403690887754 .206326813990895 0 .94973
3863911185 .204694949094701 0 .945344417656793 .203070398375495 0 .9408827217750
19 .20147717303504 0 .936369620391441 .1999188129439895 0 .931818758341772 .1984
21597096467 0 .927251787262209 .1969851989760255 0 .922684987808103 .19562472981
41085 0 .916670551831903 .193919782002051 0 .910714565013653 .1923605637227415 0
 .904852833373528 .190923391794534 0 .900606132808997 .189929999202334 0 .896482
997106233 .189003687359894 0 .892487592406506 .1882078516402505 0 .8886392348442
93 .1875362913228525 0 .884955304597859 .1869978659134285 0 .881460294613879 .18
6549276997421 0 .878172408329816 .1861682588685235 0 .875100808258166 .185891804
5486195 0 .872256808482864 .185732645918381 0 .869653457936574 .1856723218928355
 0 .867298229757468 .1857100710735375 0 .865223756801243 .185917691121283 0 .863
409383261972 .1860257385689535 0 .861879064262583 .186328706278572 0 .8606452072
69948 .1867474411588095 0 .859708766242602 .1872046756147625 0 .859081603225238
 .1876229411173955 0 .858798080824602 .1879697610723935 0 .858759646441287 .1881
25471648225 0 127 44 141 4 1 1 1 1 1 1 1 1 1 1 1 1 1 1 1 1 1 1 1 1 1 1 1 1 1 1 1
 1 1 1 1 1 1 1 1 1 1 1 1 1 1 1 4 128 44 142 .000736482143226322 .002171540145212
005 .00487220003948517 .00862917017188315 .01341528661782516 .01921391402548215
 .0259816997254303 .0337053408558741 .0423530852373848 .0518843478318723 .062263
8333720036 .085362612773844 .1112260254546256 .125061960584462 .1542416323528625
 .169463691558726 .1850193891547445 .200835702245712 .2168504637297245 .23298519
0189659 .2491752107479425 .2653541910783055 .2814555830097465 .297418776421543 .
328645666509643 .343785069382166 .3585230488706015 .3728024185686065 .3865685999
20465 .3997654826306565 .4123498172664725 .4242596248984895 .435440806984409 .44
5859381517784 .455479445924134 .464273449090715 .47222406925948 .479304964418043
 .485375892187912 .490610758101947 .495037724039398 .498550469559746 .5010857000
71583 .502753601342872 17 25 0 29 27 21 28 23 26 0 30 +15 29 9 0 25 16 0 17 21 0
 29 25 27 11 31 10 0 0 +17 30 0 0 0 0 28 27 22 0 0 -17 31 0 0 0 0 24 21 10 0 0 -
14 16 1 143 ?0 0 72 5 6 +0 0 0 0 5 81 1 143 209 144 16 145 0 0 0 146 80 1 144 14
7 148 9000 1 1 1 1 1 1 1 1 0 FFFFTFTFFFFFFF1 81 1 145 188 149 16 0 143 0 0 150 8
2 1 146 606666889 80 1 149 0 151 8001 0 0 0 0 3 5 0 0 0 FFFFTFTFFFFFFF2 83 3 150
 .792156862745098 .819607843137255 .933333333333333 79 15 151 SDL/TYSA_COLOUR79
 14 148 SWEntUnchanged17 134 0 152 42 39 32 153 127 0 0 +15 152 8 0 42 16 29 17
 42 0 152 39 134 40 36 118 0 154 +17 39 0 152 134 42 37 154 123 0 153 +17 153 0
 0 0 0 37 134 127 0 0 -17 154 0 0 0 0 40 39 123 0 0 -17 36 0 0 0 0 32 42 118 0 1
34 -17 117 0 155 51 48 43 156 110 0 0 +15 155 7 0 51 16 152 17 51 0 155 48 117 4
9 45 101 0 157 +17 48 0 155 117 51 46 157 106 0 156 +17 156 0 0 0 0 46 117 110 0
 0 -17 157 0 0 0 0 49 48 106 0 0 -17 45 0 0 0 0 43 51 101 0 117 -17 100 0 76 60
 57 52 158 93 0 0 +15 76 6 0 60 16 155 17 60 0 76 57 100 58 54 87 0 159 +17 57 0
 76 100 60 55 159 89 0 158 +17 158 0 0 0 0 55 100 93 0 0 -17 159 0 0 0 0 58 57 8
9 0 0 -17 54 0 0 0 0 52 60 87 0 100 -17 79 0 0 0 0 64 73 80 0 0 +17 78 0 0 0 0 6
7 66 82 0 0 +17 66 0 72 73 69 64 78 82 0 79 -136 18 3 46 3 44 6 FFF1 160 161 162
 135 19 2 0 45 138 160 .858759646441106 .188125471648176 0 .858723355912675 .188
272453666697 0 .858798766038811 .1886863876205605 0 .859094268365158 .1893165131
605795 0 .859839015540169 .189895663084562 0 .860750481030438 .1906038915740245
 0 .862036280008403 .191262884403144 0 .86360541201875 .191938925749105 0 .86544
2592802746 .1927073735505625 0 .867576075775854 .193470136732342 0 .870000886660
594 .194195287944567 0 .872688873514911 .1949347525207555 0 .875611599960581 .19
57560279826945 0 .878765505591557 .1966267548637425 0 .882152923677521 .19748127
88859735 0 .885752565370168 .198335862789988 0 .889533475124563 .199254517292885
5 0 .893487266824463 .200199295817076 0 .897583440585894 .2012212162604105 0 .90
1817105120613 .202262267522128 0 .906168121317944 .2033275184207905 0 .910618067
108189 .2044119845326715 0 .915146762922681 .2055178515180565 0 .921286540777339
 .2070149289739395 0 .927464454724698 .208528713756855 0 .933656182423102 .21004
1488289176 0 .938284220338962 .2111706195418815 0 .942871162611097 .212295154790
791 0 .947400494311351 .2133982376953205 0 .951849131821505 .2144880145945995 0
 .95620054909234 .215551831983434 0 .961754635615055 .216907049313292 0 .9671164
22360225 .2182201825290885 0 .972265526934469 .219475806653209 0 .97585894359531
7 .220356210093767 0 .981141848612798 .2216444258227055 0 .986043125132216 .2228
458478852435 0 .990545385172609 .223943640792313 0 .992736183637517 .22448350883
9388 0 .994661050927514 .224939450734854 0 .996307765986662 .2252892103224305 0
 .997684136359493 .225563304816598 0 .998727035023876 .2257524557338855 0 .99953
8740004134 .225901497144721 0 .99984003104456 .225939511433033 0 1 .225970710322
967 0 127 44 161 4 1 1 1 1 1 1 1 1 1 1 1 1 1 1 1 1 1 1 1 1 1 1 1 1 1 1 1 1 1 1 1
 1 1 1 1 1 1 1 1 1 1 1 4 128 44 162 .502753601342872 .504328054031173 .506749406
214855 .509725544766804 .513666372259735 .518490931004518 .524260207924474 .5309
88691362846 .538642204875445 .547189153822398 .556606524572198 .566869126028718
 .577927135667704 .589732425198819 .602237709769131 .615385652692521 .6291269615
96891 .643395641664741 .658129279979904 .673268788568859 .688749727899631 .70450
2584301897 .720468054475976 .752734831318198 .768902921814218 .785001824742463 .
800967077585858 .816719933988124 .832200655499629 .847340271418252 .862074536612
839 .890084314117716 .903231443938907 .915735682114533 .927542884014285 .9582868
79452436 .966830745939519 .974459911927041 .981136578539187 .986843512990877 .99
1544908841655 .995229247033406 .997874620108482 .999237392478126 74 20 15 10 0 0
 163 164 165 166 167 168 13 145 2 143 0 0 0 0 0 0 0 0 0 0 81 2 163 138 169 1 0 1
64 0 0 0 170 81 5 164 139 171 1 163 165 0 0 172 0 0 0 0 81 2 165 162 173 1 164 1
66 0 0 0 174 81 2 166 163 175 1 165 167 0 0 176 0 81 1 167 165 177 1 166 168 0 0
 178 81 2 168 167 179 1 167 13 0 0 0 0 81 2 13 170 180 1 168 2 0 0 181 0 80 2 18
0 182 183 8004 0 0 0 0 3 5 0 0 0 FFTFFFFFFFFFFF2 3 83 1 181 1 79 16 183 SDL/TYSA
_DENSITY80 2 179 184 185 9000 0 0 0 0 3 5 0 0 0 FFTFFFFFFFFFFF9 1 79 16 185 BODY
_RECIPE_200180 1 177 186 187 9000 1 1 1 1 1 1 1 1 0 FFTFFFFFFFFFFF1 82 1 178 551
4279 79 10 187 BODY_MATCH80 2 175 188 189 9000 0 0 0 0 3 5 0 0 0 FFTFTTTFFTFFFF1
0 10 98 14 176 83 117 114 102 97 99 101 45 80 108 97 110 101 50 79 23 189 SWIMPL
ICITBODYNAME_ID_U80 2 173 190 191 9000 0 0 0 0 3 5 0 0 0 FFTFFFFFFFFFFF9 1 82 1
 174 98 79 30 191 LAST_BODY_MODIFYING_FEATURE_ID80 5 171 192 193 9000 0 0 0 0 3
 6 0 0 0 FFTTTTTTFTTFTT2 2 2 2 2 83 1 172 1 79 19 193 BODY_SCALING_FACTOR80 2 16
9 194 195 9000 0 0 0 0 3 5 0 0 0 FFTFFFFFFFFFFF9 1 82 1 170 111 79 19 195 ENT_TI
ME_STAMP_200180 2 12 196 197 9000 0 0 0 0 3 5 0 0 0 FFTFFFFFFFFFFF9 1 82 1 14 10
2 79 12 197 ATOM_ID_20011 0 
