**ABCDEFGHIJKLMNOPQRSTUVWXYZabcdefghijklmnopqrstuvwxyz**************************
**PARASOLID !"#$%&'()*+,-./:;<=>?@[\]^_`{|}~0123456789**************************
**PART1;
MC=AMD64;
MC_MODEL=Intel64 Family 6 Model 85 Stepping 4, GenuineIntel;
MC_ID=unknown;
OS=Windows_NT;
OS_RELEASE=unknown;
FRU=Parasolid Version 35.1, build 251, 11- 4-2023;
APPL=SOLIDWORKS 2024-2024157;
SITE=;
USER=unknown;
FORMAT=text;
GUISE=transmit;
KEY=CM3_2d;
FILE=CM3_2d.x_t;
DATE=Wed Sep 18 16:51:30 2024;
**PART2;
SCH=SCH_3501251_35102;
USFLD_SIZE=0;
**PART3;
**END_OF_HEADER*****************************************************************
T51 : TRANSMIT FILE created by modeller version 350125117 SCH_3000000_300000 12
 1 98 2 3 0 0 0 0 0 0 1e3 1e-8 0 4 0 1 0 3 1 5 6 7 8 0 0 9 10 11 0 0 0 0 0 0 81
 2 2 97 12 1 13 0 0 0 0 14 70 3 0 4 T1 0 0 9 20 1 15 15 13 5 56 0 1 0 16 0 0 9 1
6 50 6 3 0 16 0 0 0 +0 0 0 0 0 -1 -1 0 0 134 7 32 0 10 17 0 0 +18 19 29 8 54 0 1
1 20 0 1893163255381105e-31 410853562424917e-32 0 19 9 55 0 1 0 0 5 V0 16 10 30
 0 ?21 0 22 7 0 0 1 18 11 52 0 23 0 24 8 ?1 17 23 0 0 0 0 11 25 26 0 27 +18 24 4
9 0 28 11 29 20 ?1 17 28 0 30 27 25 24 31 22 0 21 -18 29 46 0 25 24 32 33 ?1 29
 20 51 0 24 33 8 .981742406728935 .0227808306263965 0 29 33 48 0 29 34 20 .98013
5203930448 .02617405021293265 0 29 34 45 0 32 35 33 -2 2 0 18 32 43 0 36 29 37 3
4 ?1 29 35 42 0 37 38 34 6 2 0 18 37 40 0 39 32 40 35 ?1 29 38 39 0 40 41 35 6 -
2 0 18 40 37 0 42 37 43 38 ?1 29 41 36 0 43 0 38 -2 -2 0 18 43 34 0 44 40 0 41 ?
1 17 44 0 45 42 46 43 36 47 0 48 +15 45 4 0 44 16 30 17 42 0 45 39 44 40 48 49 0
 50 +17 46 0 45 44 39 32 51 52 0 0 +17 36 0 0 0 0 32 44 47 0 46 -16 47 6 0 ?44 4
9 0 53 0 0 1 17 48 0 0 0 0 43 42 49 0 0 -16 49 10 0 ?42 54 47 55 0 0 1 16 54 14
 0 ?39 52 49 56 0 0 1 30 55 12 0 49 53 56 0 +-2 -2 0 1 0 0 30 53 8 0 47 0 55 0 +
-2 -2 0 0 -1 0 30 56 16 0 54 55 57 0 +6 -2 0 0 1 0 30 57 20 0 52 56 58 0 +-2 2 0
 -1 0 0 16 52 18 0 ?46 26 54 57 0 0 1 134 58 24 0 26 57 17 0 +59 60 16 26 22 0 ?
23 22 52 58 0 0 1 30 17 28 0 22 58 7 0 +.980135203930448 .02617405021293265 0 -.
428062037136302 .903749352620913 0 136 59 3 81 3 79 6 FFF1 61 62 63 135 60 2 0 4
5 243 61 .980135203930448 .02617405021293265 0 .976760205832445 .024575478045801
85 0 .960622756603239 .01693399507561625 0 .943517804923004 .00988085607054905 0
 .915508202950409 -.002111120049094915 0 .89043475222876 -.01225294344962064 0 .
866298654339695 -.02164659379118985 0 .843481601604282 -.03007865769541175 0 .82
1782144721339 -.0376581030199931 0 .801142001892951 -.04441544145809635 0 .78146
7424222717 -.0503992536321285 0 .762673766873056 -.055654698592077 0 .7446740280
41836 -.060227176791774 0 .727381912199759 -.0641620873839021 0 .710711051467743
 -.0675051410144456 0 .694575053960378 -.0703015197190208 0 .678887726569802 -.0
725974060812532 0 .663562762920342 -.074437905002125 0 .64851396793403 -.0758696
506462898 0 .633654941207519 -.0769380829426948 0 .618900044263245 -.07768893055
9279 0 .604181404614073 -.0781715620354673 0 .589465013377468 -.0784122422589417
 0 .574751705772698 -.0784115395218833 0 .560060673459138 -.078173293801884 0 .5
45411724884984 -.0777009727721944 0 .530824709499472 -.0769979226156533 0 .51631
9469459839 -.0760671694848898 0 .501915816760662 -.0749125477996189 0 .487633625
565646 -.0735367873438645 0 .47349272299879 -.0719437754599284 0 .45951297755162
6 -.0701364231370447 0 .4457142338063515 -.0681183590844609 0 .43211629206052 -.
0658927760360887 0 .41873898000795 -.0634630834067204 0 .405602160669967 -.06083
25139780089 0 .392725628317718 -.0580045754139092 0 .380129229270509 -.054982397
1087478 0 .367832750509896 -.051769482433914 0 .3558559872491075 -.0483692391885
839 0 .3442167120414515 -.0447840977991706 0 .3329230553423105 -.041013299853062
65 0 .321960547629347 -.037084397066052 0 .311303574229549 -.0330222636781811 0
 .3009242008132185 -.02885151255133915 0 .2907947079461755 -.02459627762901495 0
 .2808873702337495 -.02028065316390975 0 .2711743181740955 -.01592910988710335 0
 .261627729400393 -.0115658013564017 0 .252219788239738 -.00721490283651408 0 .2
429225363247745 -.0029007518423623 0 .2337081750070705 .0013525808916034 0 .2245
48781617824 .00552081151498777 0 .215416514623187 .00957972967533858 0 .20628348
85025585 .01350517510029296 0 .197121731962032 .0172726829859931 0 .187903371809
079 .02085806864706345 0 .1786005789333885 .02423714541204345 0 .169185436301184
5 .02738528852936845 0 .159630792091853 .03027842527535885 0 .1499219861361664 .
0328865802987044 0 .140074194397814 .03518837270705265 0 .130130412789535 .03716
839119331985 0 .1201452425811266 .0388041041344231 0 .1101741424256252 .04007392
811708365 0 .1002723824535314 .04095589710846995 0 .0904952191152611 .0414282253
103095 0 .0808977412014929 .0414692984734262 0 .0715349426456814 .04105702652289
03 0 .0624615107693493 .0401694786624301 0 .0537320958635295 .0387842266804344 0
 .045400796720466 .03687875809513295 0 .0375221779532613 .0344295524605253 0 .03
014939363405115 .0314125805990826 0 .0233412011821744 .0278020474223991 0 .01714
11511491855 .0235715759238204 0 .0116555535610521 .01869386738068085 0 .00677315
398034143 .0131459679646596 0 .00321193889960284 .00689654011293516 0 .000141562
8717529696 .002373183371987315 0 0 0 0 127 79 62 4 1 1 1 1 1 1 1 1 1 1 1 1 1 1 1
 1 1 1 1 1 1 1 1 1 1 1 1 1 1 1 1 1 1 1 1 1 1 1 1 1 1 1 1 1 1 1 1 1 1 1 1 1 1 1 1
 1 1 1 1 1 1 1 1 1 1 1 1 1 1 1 1 1 1 1 1 1 1 4 128 79 63 .0113460244056502 .0152
108055861096 .0295460304700517 .04305311354750325 .0557798075687709 .06777412221
72569 .0790842854787523 .0897589438559119 .099846895431742 .109397208487967 .118
4592236993146 .127082309244771 .135315860596462 .143209205981779 .15081137406567
35 .1581709009073755 .1653356929839795 .1723527572936785 .1792682495733535 .1861
27183898334 .192972405511503 .1998220058367045 .206669574085321 .213507742704303
5 .220328979316767 .227125751000686 .233890492170306 .2406155990480785 .24729343
0104117 .2539164150649405 .260476879124614 .2669673010007885 .2733801197635715 .
2797079280319875 .285943308053557 .29207893276126 .2981077132421565 .30402264394
62755 .3098168122929485 .3154837038097515 .321019977427803 .3264340194316725 .33
1736557080472 .336937541196788 .342046261046033 .3470712148329355 .3520204476380
53 .3569015263911445 .3617216819415055 .3664879211117295 .371207276232082 .37588
6750667798 .380533666857245 .3851557669429985 .38976139804723 .3943595814782405
 .3989603243991955 .403574566628386 .4082143226195645 .412892159876051 .41760371
39270885 .422327402566519 .4270411229966095 .431723514248126 .436353926658054 .4
409127872795035 .445381961571185 .449745107947008 .453988071462385 .458099979811
128 .462073496358424 .465906550345293 .469603255109769 .473175664643519 .4766456
46834665 .48004611088831 .483422141534453 .486830212183966 .490336389823157 16 2
2 26 0 ?31 10 26 17 0 0 1 17 31 0 0 0 0 29 28 22 0 0 +17 39 0 45 46 42 37 50 54
 0 51 +17 50 0 0 0 0 40 39 54 0 0 -17 51 0 0 0 0 37 46 52 0 0 -14 16 1 64 ?0 0 4
5 5 6 -0 0 0 0 5 15 30 5 0 25 16 0 17 25 0 30 28 27 29 23 26 0 31 -17 27 0 30 25
 28 11 21 10 0 0 -17 21 0 0 0 0 24 27 10 0 0 +81 1 64 98 65 16 66 0 0 0 67 80 1
 65 68 69 9000 1 1 1 1 1 1 1 1 0 FFFFTFTFFFFFFF1 81 1 66 86 70 16 0 64 0 0 71 82
 1 67 -1608843150 80 1 70 0 72 8001 0 0 0 0 3 5 0 0 0 FFFFTFTFFFFFFF2 83 3 71 .7
92156862745098 .819607843137255 .933333333333333 79 15 72 SDL/TYSA_COLOUR79 14 6
9 SWEntUnchanged136 18 3 81 3 79 6 FFF1 73 74 75 135 19 2 0 45 243 73 1893163255
381105e-31 410853562424917e-32 0 -.0001423420573803866 -.002386245768593775 0 .0
0240884655532672 -.00726918746905551 0 .00444162507226183 -.01424922378464346 0
 .00739979122138348 -.02100504824423375 0 .0105678455807836 -.0274956826111041 0
 .01413756055624124 -.03374453751563005 0 .01806248440690705 -.03975814087707285
 0 .0223588370124431 -.0455477202380051 0 .02702633770626185 -.0511230990519421
 0 .0320687065852846 -.0564949839034108 0 .03748893393699995 -.0616735980008858
 0 .0432899108108193 -.0666698658118247 0 .0494751077037852 -.0714939723663015 0
 .0560474414168611 -.0761571124531397 0 .0630103186114384 -.0806698486632203 0 .
070367155102715 -.0850427461154215 0 .0781212694552901 -.0892866416160321 0 .086
2761037625162 -.0934122642861181 0 .0948351726275987 -.097430259637767 0 .103801
8284201548 -.1013509200706892 0 .1131746734906792 -.105183619366787 0 .122944976
1417562 -.1089311862736596 0 .133096944159244 -.112588481835746 0 .1436098012959
902 -.1161497783921508 0 .1544627985151055 -.119608525934039 0 .1656350016484675
 -.1229588171973672 0 .1771056271065335 -.1261940605720506 0 .1888538012688325 -
.1293082650576282 0 .200858623907371 -.1322950899665752 0 .213099180405132 -.135
148570110816 0 .2255547133896605 -.1378619635399166 0 .2382042143121995 -.140429
6949916772 0 .2510269466125755 -.1428448879966014 0 .2640018773013215 -.14510183
98012114 0 .2771081899326185 -.1471941875403766 0 .290324972447487 -.14911558259
01652 0 .30363134896271 -.15085991943655 0 .317006424248302 -.152421055257256 0
 .330429335162217 -.1537925394859835 0 .343880616959895 -.1549687545857225 0 .35
73479575742195 -.1559433329924825 0 .370827166541761 -.1567169971650925 0 .38432
131482825 -.1572900018553615 0 .3978348717471235 -.1576638029542855 0 .411372352
4942035 -.157839072905572 0 .4249381831513465 -.1578167692882485 0 .438536867113
988 -.1575980610120475 0 .45217290024004 -.1571836252257655 0 .465850787710067 -
.1565746482406 0 .479574995853089 -.155772009105815 0 .493349961320223 -.1547766
961718885 0 .507180210467986 -.1535895843795865 0 .521070234113828 -.15221186062
5963 0 .535024548023597 -.150644242519398 0 .549047585798973 -.1488877039280662
 0 .56314388497456 -.146943421510498 0 .577317810366043 -.1448119313621472 0 .59
1574022942532 -.1424950819883634 0 .605917201295287 -.1399916649630406 0 .620366
488414629 -.1373063651015528 0 .634960079289573 -.1344027765215432 0 .6497547423
80636 -.1312077407350534 0 .664821155849744 -.1276524105800176 0 .68023009647156
7 -.1236662735268588 0 .696052447419542 -.119179588388514 0 .712358843453943 -.1
141222264387252 0 .729220111090801 -.1084245797314834 0 .746706862533185 -.10201
67659017144 0 .764890075780766 -.0948294824385338 0 .783840288964801 -.086792809
5685764 0 .803628978828647 -.0778372254301279 0 .824325139289988 -.0678940671153
591 0 .846007416953072 -.0568894104542441 0 .868715482807647 -.04477141319571185
 0 .892648576298569 -.03139902483872085 0 .917353976507326 -.0169928220350533 0
 .945041026691519 -.0002998517462204395 0 .961396563872922 .01026723596273258 0
 .978097820117749 .02052848891600875 0 .981742406728935 .0227808306263965 0 127
 79 74 4 1 1 1 1 1 1 1 1 1 1 1 1 1 1 1 1 1 1 1 1 1 1 1 1 1 1 1 1 1 1 1 1 1 1 1 1
 1 1 1 1 1 1 1 1 1 1 1 1 1 1 1 1 1 1 1 1 1 1 1 1 1 1 1 1 1 1 1 1 1 1 1 1 1 1 1 1
 1 4 128 79 75 .490336389823157 .493861866058603 .497315689347583 .5007142070518
4 .50407407984259 .507412431109355 .510746417114871 .514093005123967 .5174688180
86722 .520889789887238 .524371165070274 .527927188929083 .531571228011689 .53531
5515833598 .539171444565003 .543149231338118 .547258175843802 .551506917600739 .
555903116486603 .560453723296482 .565164848166894 .570035628729279 .575058391004
99 .580225034115802 .585527234932975 .590956404640454 .596504039935057 .60216138
2235828 .607919688672095 .613770072485957 .619703720336216 .625711752571478 .631
785223605279 .637915288104918 .644092991692875 .650309542670455 .65655605664431
 .662823786955257 .669104038520194 .675388107293064 .681669502511236 .6879496671
72786 .694232119916884 .700520378799734 .706817884611542 .713128104727981 .71945
4387551036 .72580018876083 .732168885775886 .738563726507223 .744988013979782 .7
5144496447795 .757937842090014 .764469732906809 .771043814593707 .77766307432545
1 .784330553441836 .791049182903476 .797821913567428 .804652410177495 .811561808
719452 .818589610722594 .825777150042753 .83316700676137 .840802929763908 .84872
9908381429 .856993886004297 .865641888112617 .874721520655866 .884281126113787 .
894369426371448 .905035355527497 .916328155752671 .92829698526796 .9409910032514
46 .954459377800532 .968751145440443 .983915072833554 .988295921869906 74 20 15
 9 0 0 76 77 78 79 80 13 66 2 64 0 0 0 0 0 0 0 0 0 0 0 81 2 76 66 81 1 0 77 0 0
 0 82 81 2 77 69 83 1 76 78 0 0 0 84 81 2 78 70 85 1 77 79 0 0 86 0 81 1 79 72 8
7 1 78 80 0 0 88 81 2 80 74 89 1 79 13 0 0 0 0 81 2 13 77 90 1 80 2 0 0 91 0 80
 2 90 92 93 8004 0 0 0 0 3 5 0 0 0 FFTFFFFFFFFFFF2 3 83 1 91 1 79 16 93 SDL/TYSA
_DENSITY80 2 89 94 95 9000 0 0 0 0 3 5 0 0 0 FFTFFFFFFFFFFF9 1 79 16 95 BODY_REC
IPE_200180 1 87 96 97 9000 1 1 1 1 1 1 1 1 0 FFTFFFFFFFFFFF1 82 1 88 1024025 79
 10 97 BODY_MATCH80 2 85 98 99 9000 0 0 0 0 3 5 0 0 0 FFTFTTTFFTFFFF10 10 98 14
 86 83 117 114 102 97 99 101 45 80 108 97 110 101 49 79 23 99 SWIMPLICITBODYNAME
_ID_U80 2 83 100 101 9000 0 0 0 0 3 5 0 0 0 FFTFFFFFFFFFFF9 1 82 1 84 46 79 30 1
01 LAST_BODY_MODIFYING_FEATURE_ID80 2 81 102 103 9000 0 0 0 0 3 5 0 0 0 FFTFFFFF
FFFFFF9 1 82 1 82 106 79 19 103 ENT_TIME_STAMP_200180 2 12 104 105 9000 0 0 0 0
 3 5 0 0 0 FFTFFFFFFFFFFF9 1 82 1 14 101 79 12 105 ATOM_ID_20011 0 
