**ABCDEFGHIJKLMNOPQRSTUVWXYZabcdefghijklmnopqrstuvwxyz**************************
**PARASOLID !"#$%&'()*+,-./:;<=>?@[\]^_`{|}~0123456789**************************
**PART1;
MC=AMD64;
MC_MODEL=Intel64 Family 6 Model 85 Stepping 4, GenuineIntel;
MC_ID=unknown;
OS=Windows_NT;
OS_RELEASE=unknown;
FRU=Parasolid Version 35.1, build 251, 11- 4-2023;
APPL=SOLIDWORKS 2024-2024157;
SITE=;
USER=unknown;
FORMAT=text;
GUISE=transmit;
KEY=CM1_-2d;
FILE=CM1_-2d.x_t;
DATE=Wed Sep 18 17:39:06 2024;
**PART2;
SCH=SCH_3501251_35102;
USFLD_SIZE=0;
**PART3;
**END_OF_HEADER*****************************************************************
T51 : TRANSMIT FILE created by modeller version 350125117 SCH_3000000_300000 12
 1 98 2 3 0 0 0 0 0 0 1e3 1e-8 0 4 0 1 0 3 1 5 6 7 8 0 0 9 10 11 0 0 0 0 0 0 81
 2 2 97 12 1 13 0 0 0 0 14 70 3 0 4 T1 0 0 9 20 1 15 15 13 5 56 0 1 0 16 0 0 9 1
6 50 6 3 0 16 0 0 0 +0 0 0 0 0 -1 -1 0 0 134 7 32 0 10 17 0 0 +18 19 29 8 54 0 1
1 20 0 602714582625249e-31 -131104988827215e-31 0 19 9 55 0 1 0 0 5 V0 16 10 30
 0 ?21 0 22 7 0 0 1 18 11 52 0 23 0 24 8 ?1 17 23 0 0 0 0 11 25 26 0 27 +18 24 4
9 0 28 11 29 20 ?1 17 28 0 30 27 25 24 31 22 0 21 -18 29 46 0 25 24 32 33 ?1 29
 20 51 0 24 33 8 .982525506474919 -.04492376218729185 0 29 33 48 0 29 34 20 .981
231999748754 -.0416124275841258 0 29 34 45 0 32 35 33 -2 2 0 18 32 43 0 36 29 37
 34 ?1 29 35 42 0 37 38 34 6 2 0 18 37 40 0 39 32 40 35 ?1 29 38 39 0 40 41 35 6
 -2 0 18 40 37 0 42 37 43 38 ?1 29 41 36 0 43 0 38 -2 -2 0 18 43 34 0 44 40 0 41
 ?1 17 44 0 45 42 46 43 36 47 0 48 +15 45 4 0 44 16 30 17 42 0 45 39 44 40 48 49
 0 50 +17 46 0 45 44 39 32 51 52 0 0 +17 36 0 0 0 0 32 44 47 0 46 -16 47 6 0 ?44
 49 0 53 0 0 1 17 48 0 0 0 0 43 42 49 0 0 -16 49 10 0 ?42 54 47 55 0 0 1 16 54 1
4 0 ?39 52 49 56 0 0 1 30 55 12 0 49 53 56 0 +-2 -2 0 1 0 0 30 53 8 0 47 0 55 0
 +-2 -2 0 0 -1 0 30 56 16 0 54 55 57 0 +6 -2 0 0 1 0 30 57 20 0 52 56 58 0 +-2 2
 0 -1 0 0 16 52 18 0 ?46 26 54 57 0 0 1 134 58 24 0 26 57 17 0 +59 60 16 26 22 0
 ?23 22 52 58 0 0 1 30 17 28 0 22 58 7 0 +.981231999748754 -.0416124275841258 0
 -.363854589848385 .931455762474131 0 136 59 3 81 3 79 6 FFF1 61 62 63 135 60 2
 0 45 243 61 .981231999748744 -.0416124275841298 0 .977229052508578 -.0431760989
7352515 0 .959805216878957 -.0500033416259595 0 .941908696648305 -.0559596881844
553 0 .913130806691028 -.0659686013884017 0 .887410975797393 -.0743366843099107
 0 .862678404306297 -.0820238031126868 0 .839328741720223 -.0888436897929759 0 .
817153428244856 -.0948909943753714 0 .79609219566569 -.1001920886953786 0 .77604
8134641013 -.1047888954430198 0 .756933656387727 -.1087205591377158 0 .738658804
060154 -.1120263007011492 0 .721134325455764 -.1147453890241244 0 .7042708744698
13 -.1169173986851004 0 .687979117923699 -.118581375265239 0 .672169851137457 -.
1197773763224476 0 .656753831614568 -.1205443764560082 0 .641641821209057 -.1209
228835673996 0 .626744460255408 -.1209521999087186 0 .611973129016459 -.12067196
89169558 0 .59725667656382 -.1201267043268884 0 .582559344712935 -.1193402347065
304 0 .567881927006461 -.1183131852256828 0 .553243300490559 -.1170507252504282
 0 .538662983468385 -.1155576957744362 0 .524160543618997 -.1138388194569966 0 .
509755563671398 -.1118984991981032 0 .495467539883545 -.109741942091897 0 .48131
6107586569 -.1073732576243636 0 .467320774439302 -.1047977067386892 0 .453501157
474286 -.1020195792889922 0 .43987679980735 -.0990438794332437 0 .42646723078966
05 -.0958751733269528 0 .413291991987016 -.0925182451897515 0 .400370672527972 -
.0889777055027251 0 .3877227737835575 -.0852584341638908 0 .375367875432929 -.08
13649373537795 0 .363325471874715 -.0773020901798031 0 .351615072385946 -.073074
6729841822 0 .340254236688908 -.0686863500235815 0 .3292511283377905 -.064136931
8847418 0 .318589391146748 -.0594528938260053 0 .3082417376995505 -.054657262705
7502 0 .298178584806669 -.0497726428298353 0 .288370597058278 -.0448211757426933
5 0 .278788435867268 -.0398249629788716 0 .26940259262859 -.0348064715818051 0 .
26018362788229 -.0297878554822464 0 .2511021073318265 -.0247912907319183 0 .2421
284430158015 -.0198391052836611 0 .233233224912337 -.0149533721011363 0 .2243869
044150765 -.01015636809358686 0 .2155600189819345 -.00547030251103842 0 .2067230
656846315 -.000917331577058988 0 .1978464347874795 .003480090678355165 0 .188900
6339572745 .00769978281812934 0 .1798562146971085 .0117195583489218 0 .170683610
241859 .0155167998976587 0 .161354055683067 .0190693873958671 0 .151850835588132
 .02234844115239585 0 .1421875974972032 .025331573735959 0 .1324061575486996 .02
80004121373843 0 .122559412279895 .03032867082744715 0 .1127011796665326 .032290
95036890435 0 .102885062930861 .0338614827876692 0 .0931646642208945 .0350146808
594463 0 .0835934303999812 .0357251401865036 0 .074224680513386 .035966988321348
45 0 .0651114388520507 .0357145330953188 0 .0563066580686916 .03494158871920815
 0 .0478627347822701 .0336219238095395 0 .03983245998585985 .03172826897993565 0
 .03226718208025695 .029232945746099 0 .0252237159802728 .02610612314478345 0 .0
1874366618353495 .022318450489491 0 .01293117948750008 .0178352797433372 0 .0076
7367128683074 .0126414737096171 0 .00368519309718816 .00665568695632106 0 .00030
67629352903335 .002357527489822355 0 0 0 0 127 79 62 4 1 1 1 1 1 1 1 1 1 1 1 1 1
 1 1 1 1 1 1 1 1 1 1 1 1 1 1 1 1 1 1 1 1 1 1 1 1 1 1 1 1 1 1 1 1 1 1 1 1 1 1 1 1
 1 1 1 1 1 1 1 1 1 1 1 1 1 1 1 1 1 1 1 1 1 1 1 1 4 128 79 63 .01072971360439514
 .0152108055861096 .0295460304700517 .04305311354750325 .0557798075687709 .06777
41222172569 .0790842854787523 .0897589438559119 .099846895431742 .10939720848796
7 .1184592236993146 .127082309244771 .135315860596462 .143209205981779 .15081137
40656735 .1581709009073755 .1653356929839795 .1723527572936785 .1792682495733535
 .186127183898334 .192972405511503 .1998220058367045 .206669574085321 .213507742
7043035 .220328979316767 .227125751000686 .233890492170306 .2406155990480785 .24
7293430104117 .2539164150649405 .260476879124614 .2669673010007885 .273380119763
5715 .2797079280319875 .285943308053557 .29207893276126 .2981077132421565 .30402
26439462755 .3098168122929485 .3154837038097515 .321019977427803 .32643401943167
25 .331736557080472 .336937541196788 .342046261046033 .3470712148329355 .3520204
47638053 .3569015263911445 .3617216819415055 .3664879211117295 .371207276232082
 .375886750667798 .380533666857245 .3851557669429985 .38976139804723 .3943595814
782405 .3989603243991955 .403574566628386 .4082143226195645 .412892159876051 .41
76037139270885 .422327402566519 .4270411229966095 .431723514248126 .436353926658
054 .4409127872795035 .445381961571185 .449745107947008 .453988071462385 .458099
979811128 .462073496358424 .465906550345293 .469603255109769 .473175664643519 .4
76645646834665 .48004611088831 .483422141534453 .486830212183966 .49033638982315
7 16 22 26 0 ?31 10 26 17 0 0 1 17 31 0 0 0 0 29 28 22 0 0 +17 39 0 45 46 42 37
 50 54 0 51 +17 50 0 0 0 0 40 39 54 0 0 -17 51 0 0 0 0 37 46 52 0 0 -14 16 1 64
 ?0 0 45 5 6 -0 0 0 0 5 15 30 5 0 25 16 0 17 25 0 30 28 27 29 23 26 0 31 -17 27
 0 30 25 28 11 21 10 0 0 -17 21 0 0 0 0 24 27 10 0 0 +81 1 64 98 65 16 66 0 0 0
 67 80 1 65 68 69 9000 1 1 1 1 1 1 1 1 0 FFFFTFTFFFFFFF1 81 1 66 86 70 16 0 64 0
 0 71 82 1 67 -1733230409 80 1 70 0 72 8001 0 0 0 0 3 5 0 0 0 FFFFTFTFFFFFFF2 83
 3 71 .792156862745098 .819607843137255 .933333333333333 79 15 72 SDL/TYSA_COLOU
R79 14 69 SWEntUnchanged136 18 3 81 3 79 6 FFF1 73 74 75 135 19 2 0 45 243 73 60
2714582625249e-31 -131104988827215e-31 0 -.000308451409583207 -.0023705037138459
 0 .001895905841370865 -.00741951273521641 0 .00343682989203512 -.01452434549439
69 0 .00591652760556952 -.0214700643444584 0 .00862410097799075 -.02816588015296
66 0 .01174922222411272 -.0346485238899663 0 .01524509739256365 -.04092126726339
47 0 .01912712365841525 -.0469964419077047 0 .02339433578929255 -.05288382776866
12 0 .0280496979665652 -.0585943648509324 0 .03309548005855825 -.064138460051681
7 0 .0385338040199048 -.0695272128963254 0 .04436742142190795 -.0747710256943519
 0 .0505984610513581 -.0798812694303917 0 .0572295844620972 -.084868718602071 0
 .0642634621631315 -.0897441508673926 0 .0717026486978102 -.0945186081260945 0 .
0795498293490674 -.0992030334719371 0 .0878077675653275 -.103808291651402 0 .096
4790895884935 -.1083448838419144 0 .105561747291693 -.1128220634962136 0 .115046
8329240286 -.117242043378791 0 .1249189512158172 -.1215985954431516 0 .135157776
0712274 -.125884556702955 0 .1457430659024994 -.1300919457252114 0 .156654349606
002 -.1342134093419272 0 .167871354027448 -.1382409222099302 0 .179373674304523
 -.142167051852377 0 .191140903425141 -.1459840151011334 0 .203152593829726 -.14
96844023690896 0 .215388509004428 -.1532600401677575 0 .2278280804868895 -.15670
3901333716 0 .24045110190842 -.160007679638888 0 .2532369893188305 -.16316421903
4238 0 .266165420831153 -.1661657200723995 0 .27921597818475 -.1690043908428765
 0 .292368262248136 -.1716726844763675 0 .305601857192677 -.174163015536642 0 .3
188964006666505 -.176467493831435 0 .332232867200209 -.178579157715832 0 .345599
4188966235 -.1804907962905215 0 .358991825104042 -.182202837942507 0 .3724131315
368885 -.183715751022775 0 .3858676950637565 -.1850312996393905 0 .3993599729743
745 -.1861504695621595 0 .4128943137715505 -.1870745247853585 0 .426475128341654
 -.1878049455123005 0 .440106854355401 -.1883427208574755 0 .453793903266076 -.1
88689348507796 0 .467540669203569 -.1888460169265705 0 .481351509067696 -.188814
02154184 0 .495230877156212 -.18859455090573 0 .509183170553408 -.18818910228766
15 0 .523212843967125 -.187598706551859 0 .537324252265401 -.186824644466622 0 .
551521839850085 -.1858684063466135 0 .565809923508261 -.1847308314555365 0 .5801
93023909937 -.183414088928644 0 .594675892545106 -.181917299645523 0 .6092772989
76524 -.180246472357075 0 .624037884698111 -.178367954211591 0 .639019383163409
 -.1762127248991375 0 .654297102901149 -.173717035225222 0 .669946566982753 -.17
08154815634695 0 .686043350813094 -.1674434371730705 0 .702662809022371 -.163535
8713896195 0 .71988045120164 -.1590282864365705 0 .737771592293558 -.15385589583
70695 0 .756411871697734 -.147954517072634 0 .775876533074921 -.1412593211822546
 0 .79624172865464 -.1337059416215488 0 .817581073971188 -.1252306955144872 0 .8
39978180739062 -.1157653248763906 0 .863476239644099 -.105260881049661 0 .888283
843979454 -.0935905553662917 0 .913933988982598 -.0809428069495624 0 .9427180376
47731 -.0662218508865501 0 .960079913923612 -.056651039302745 0 .978245031091762
 -.0471773481671458 0 .982525506474919 -.04492376218729185 0 127 79 74 4 1 1 1 1
 1 1 1 1 1 1 1 1 1 1 1 1 1 1 1 1 1 1 1 1 1 1 1 1 1 1 1 1 1 1 1 1 1 1 1 1 1 1 1 1
 1 1 1 1 1 1 1 1 1 1 1 1 1 1 1 1 1 1 1 1 1 1 1 1 1 1 1 1 1 1 1 1 1 4 128 79 75 .
490336389823157 .493861866058603 .497315689347583 .50071420705184 .5040740798425
9 .507412431109355 .510746417114871 .514093005123967 .517468818086722 .520889789
887238 .524371165070274 .527927188929083 .531571228011689 .535315515833598 .5391
71444565003 .543149231338118 .547258175843802 .551506917600739 .555903116486603
 .560453723296482 .565164848166894 .570035628729279 .57505839100499 .58022503411
5802 .585527234932975 .590956404640454 .596504039935057 .602161382235828 .607919
688672095 .613770072485957 .619703720336216 .625711752571478 .631785223605279 .6
37915288104918 .644092991692875 .650309542670455 .65655605664431 .66282378695525
7 .669104038520194 .675388107293064 .681669502511236 .687949667172786 .694232119
916884 .700520378799734 .706817884611542 .713128104727981 .719454387551036 .7258
0018876083 .732168885775886 .738563726507223 .744988013979782 .75144496447795 .7
57937842090014 .764469732906809 .771043814593707 .777663074325451 .7843305534418
36 .791049182903476 .797821913567428 .804652410177495 .811561808719452 .81858961
0722594 .825777150042753 .83316700676137 .840802929763908 .848729908381429 .8569
93886004297 .865641888112617 .874721520655866 .884281126113787 .894369426371448
 .905035355527497 .916328155752671 .92829698526796 .940991003251446 .95445937780
0532 .968751145440443 .983915072833554 .988909160113662 74 20 15 9 0 0 76 77 78
 79 80 13 66 2 64 0 0 0 0 0 0 0 0 0 0 0 81 2 76 66 81 1 0 77 0 0 0 82 81 2 77 69
 83 1 76 78 0 0 0 84 81 2 78 70 85 1 77 79 0 0 86 0 81 1 79 72 87 1 78 80 0 0 88
 81 2 80 74 89 1 79 13 0 0 0 0 81 2 13 77 90 1 80 2 0 0 91 0 80 2 90 92 93 8004
 0 0 0 0 3 5 0 0 0 FFTFFFFFFFFFFF2 3 83 1 91 1 79 16 93 SDL/TYSA_DENSITY80 2 89
 94 95 9000 0 0 0 0 3 5 0 0 0 FFTFFFFFFFFFFF9 1 79 16 95 BODY_RECIPE_200180 1 87
 96 97 9000 1 1 1 1 1 1 1 1 0 FFTFFFFFFFFFFF1 82 1 88 39087 79 10 97 BODY_MATCH8
0 2 85 98 99 9000 0 0 0 0 3 5 0 0 0 FFTFTTTFFTFFFF10 10 98 14 86 83 117 114 102
 97 99 101 45 80 108 97 110 101 49 79 23 99 SWIMPLICITBODYNAME_ID_U80 2 83 100 1
01 9000 0 0 0 0 3 5 0 0 0 FFTFFFFFFFFFFF9 1 82 1 84 46 79 30 101 LAST_BODY_MODIF
YING_FEATURE_ID80 2 81 102 103 9000 0 0 0 0 3 5 0 0 0 FFTFFFFFFFFFFF9 1 82 1 82
 153 79 19 103 ENT_TIME_STAMP_200180 2 12 104 105 9000 0 0 0 0 3 5 0 0 0 FFTFFFF
FFFFFFF9 1 82 1 14 101 79 12 105 ATOM_ID_20011 0 
