**ABCDEFGHIJKLMNOPQRSTUVWXYZabcdefghijklmnopqrstuvwxyz**************************
**PARASOLID !"#$%&'()*+,-./:;<=>?@[\]^_`{|}~0123456789**************************
**PART1;
MC=AMD64;
MC_MODEL=Intel64 Family 6 Model 85 Stepping 4, GenuineIntel;
MC_ID=unknown;
OS=Windows_NT;
OS_RELEASE=unknown;
FRU=Parasolid Version 35.1, build 251, 11- 4-2023;
APPL=SOLIDWORKS 2024-2024157;
SITE=;
USER=unknown;
FORMAT=text;
GUISE=transmit;
KEY=GOE564_3d;
FILE=GOE564_3d.x_t;
DATE=Wed Sep 18 15:51:10 2024;
**PART2;
SCH=SCH_3501251_35102;
USFLD_SIZE=0;
**PART3;
**END_OF_HEADER*****************************************************************
T51 : TRANSMIT FILE created by modeller version 350125117 SCH_3000000_300000 12
 1 98 2 3 0 0 0 0 0 0 1e3 1e-8 0 4 0 1 0 3 1 5 6 7 8 0 0 9 10 11 0 0 0 0 0 0 81
 2 2 97 12 1 13 0 0 0 0 14 70 3 0 4 T1 0 0 9 20 1 15 15 13 5 56 0 1 0 16 0 0 9 1
6 50 6 3 0 16 0 0 0 +0 0 0 0 0 -1 -1 0 0 134 7 32 0 10 17 0 0 +18 19 29 8 54 0 1
1 20 0 0 0 0 19 9 55 0 1 0 0 5 V0 16 10 30 0 ?21 0 22 7 0 0 1 18 11 52 0 23 0 24
 8 ?1 17 23 0 0 0 0 11 25 26 0 27 +18 24 49 0 28 11 29 20 ?1 17 28 0 30 27 25 24
 31 22 0 21 -18 29 46 0 25 24 32 33 ?1 29 20 51 0 24 33 8 .99970177870581 .05228
75728879871 0 29 33 48 0 29 34 20 .999614343351615 .0524570717297272 0 29 34 45
 0 32 35 33 -2 2 0 18 32 43 0 36 29 37 34 ?1 29 35 42 0 37 38 34 6 2 0 18 37 40
 0 39 32 40 35 ?1 29 38 39 0 40 41 35 6 -2 0 18 40 37 0 42 37 43 38 ?1 29 41 36
 0 43 0 38 -2 -2 0 18 43 34 0 44 40 0 41 ?1 17 44 0 45 42 46 43 36 47 0 48 +15 4
5 4 0 44 16 30 17 42 0 45 39 44 40 48 49 0 50 +17 46 0 45 44 39 32 51 52 0 0 +17
 36 0 0 0 0 32 44 47 0 46 -16 47 6 0 ?44 49 0 53 0 0 1 17 48 0 0 0 0 43 42 49 0
 0 -16 49 10 0 ?42 54 47 55 0 0 1 16 54 14 0 ?39 52 49 56 0 0 1 30 55 12 0 49 53
 56 0 +-2 -2 0 1 0 0 30 53 8 0 47 0 55 0 +-2 -2 0 0 -1 0 30 56 16 0 54 55 57 0 +
6 -2 0 0 1 0 30 57 20 0 52 56 58 0 +-2 2 0 -1 0 0 16 52 18 0 ?46 26 54 57 0 0 1
 134 58 24 0 26 57 17 0 +59 60 16 26 22 0 ?23 22 52 58 0 0 1 30 17 28 0 22 58 7
 0 +.999614343351615 .0524570717297272 0 -.458444509144332 .888723034491293 0 13
6 59 3 51 3 49 6 FFF1 61 62 63 135 60 2 0 45 153 61 .999614343351615 .0524570717
297272 0 .999412971867561 .0524621402782856 0 .997569048910984 .0524543517958317
 0 .995306309554383 .0526550556977962 0 .989496929842775 .052816013689636 0 .982
253734750987 .0530324468509006 0 .972659747249894 .0531544949814067 0 .961150316
805672 .0531545392272127 0 .947629880814423 .0528395823400878 0 .932211783217728
 .0523411054833752 0 .914937249459032 .0518249154969055 0 .895885643465844 .0512
47294164104 0 .875135335147902 .0506073536145408 0 .8527730680552 .0499250637851
962 0 .828898580868707 .0492113282875599 0 .803616583140379 .0484278520798201 0
 .777028936851956 .0476328345452707 0 .749250389146599 .0467857949423237 0 .7204
00780121483 .0459007141486291 0 .690606201204914 .045005561070918 0 .65999444816
9513 .04407219643993065 0 .628695648257728 .04310332254109405 0 .596838295332244
 .0421600865326345 0 .564565192309922 .0411552192580295 0 .532010728668694 .0401
779906487015 0 .499319755757447 .0391859907461019 0 .466629240748734 .0381814177
7257505 0 .434075448243163 .03718207424628955 0 .4018010437580075 .0362176344966
9645 0 .36994398870158 .03525487635204435 0 .3386439833044705 .0343233773625783
 0 .308032876243904 .0333798562475071 0 .2782409475749395 .03243147900964495 0 .
2493956799760375 .0314157403635721 0 .2216121873866845 .0307136487328715 0 .1950
21972276951 .0299406916043492 0 .169735019684537 .0293387291593805 0 .1458674234
978018 .02843571056441345 0 .1235384548101742 .0270926366459737 0 .1028257693261
834 .02575189275613355 0 .0837991432495665 .02462482934973445 0 .066552870342177
7 .0232196555531179 0 .0512014619427472 .02114912543985395 0 .0378235358856962 .
01861969127341565 0 .0263694791261402 .01632748216779415 0 .01683446355473645 .0
1374682190032036 0 .00973291137254539 .01030516378486396 0 .00392966016441162 .0
0748991652031918 0 .001058379690634082 .003695626128463145 0 -3391425425876045e-
20 .001034509736378182 0 -339838142671921e-30 362140028977204e-32 0 127 49 62 4
 1 1 1 1 1 1 1 1 1 1 1 1 1 1 1 1 1 1 1 1 1 1 1 1 1 1 1 1 1 1 1 1 1 1 1 1 1 1 1 1
 1 1 1 1 1 1 1 4 128 49 63 .502753601342872 .503006998783747 .504600671637162 .5
07246044712238 .51093038290399 .515631778754768 .521338713206457 .52801537981860
3 .535644545806126 .544188412293208 .553607443484127 .563871879314395 .574932407
731359 .586739609631111 .599243847806737 .612390977627928 .626131361831328 .6404
00755132805 .655135020327392 .670274636246015 .68575535775752 .701508214159786 .
717473467003181 .733572369931426 .749740460427446 .765908442864646 .782007237269
669 .797972707443748 .813725563846013 .829206503176785 .84434601176574 .85907965
0080903 .873348330148753 .887089639053123 .900237581976513 .912742866546825 .924
54815607794 .935606165716926 .945868767173446 .955286137923246 .963833086870199
 .971486600382798 .97821508382117 .983984360741126 .988808919485909 .99274974697
884 .995725885530789 .998147237714471 .999721690402772 16 22 26 0 ?31 10 26 17 0
 0 1 17 31 0 0 0 0 29 28 22 0 0 +17 39 0 45 46 42 37 50 54 0 51 +17 50 0 0 0 0 4
0 39 54 0 0 -17 51 0 0 0 0 37 46 52 0 0 -14 16 1 64 ?0 0 45 5 6 -0 0 0 0 5 15 30
 5 0 25 16 0 17 25 0 30 28 27 29 23 26 0 31 -17 27 0 30 25 28 11 21 10 0 0 -17 2
1 0 0 0 0 24 27 10 0 0 +81 1 64 98 65 16 66 0 0 0 67 80 1 65 68 69 9000 1 1 1 1
 1 1 1 1 0 FFFFTFTFFFFFFF1 81 1 66 86 70 16 0 64 0 0 71 82 1 67 499187828 80 1 7
0 0 72 8001 0 0 0 0 3 5 0 0 0 FFFFTFTFFFFFFF2 83 3 71 .792156862745098 .81960784
3137255 .933333333333333 79 15 72 SDL/TYSA_COLOUR79 14 69 SWEntUnchanged136 18 3
 51 3 49 6 FFF1 73 74 75 135 19 2 0 45 153 73 0 0 0 359271690363518e-19 -.001095
911055139644 0 .001439538317704346 -.003817913673451565 0 .00503983830968259 -.0
0750568442824728 0 .01065313927808986 -.01189323729173902 0 .0183101169372607 -.
01644564748222325 0 .0281141109102257 -.02064482338374085 0 .04009454139562755 -
.02394379999307915 0 .0536730279996041 -.02827802021713295 0 .0693703165752517 -
.03187487720419295 0 .0868662186101988 -.03516818868309695 0 .1061118377089024 -
.03814225090937725 0 .12704612203933 -.0406550736210352 0 .149575328041552 -.042
77573700621955 0 .1735856504477915 -.0447386259764223 0 .1989869685413465 -.0463
689870199181 0 .225676965972985 -.0473424766259566 0 .253526830135152 -.04769366
41723879 0 .2824161868599205 -.0473536527903836 0 .3122271536366695 -.0467404913
244331 0 .342839373512626 -.0457847099428882 0 .3741219045454845 -.0444808726997
0885 0 .405942945224326 -.0427830011034333 0 .4381578464381455 -.040621198544665
35 0 .470630761491706 -.0380077029603443 0 .503212642803802 -.0348866663833631 0
 .535773153569477 -.03133602872671005 0 .568167959330852 -.02732286122578315 0 .
600268492536277 -.0230035324883313 0 .631930328821627 -.01837211737034205 0 .663
024731424464 -.01356909863857452 0 .693425367257 -.00868564516311383 0 .72301520
7673751 -.00384857571956408 0 .75166079593815 .000961732554948055 0 .77923591047
5795 .00574122295600452 0 .805616340109915 .01050707646748062 0 .830691719442424
 .0152232592356085 0 .854358127579526 .01985450565755565 0 .876520519548984 .024
313125664885 0 .897083339537124 .02853761223839025 0 .915950688003288 .032524670
5983979 0 .933061079940804 .03615834607368005 0 .948342730091047 .03939929504754
995 0 .961732601083159 .04235188476705645 0 .973090041571205 .0451161128828571 0
 .982551387649235 .04753615028911 0 .989668323911168 .0494960860601034 0 .995407
411019318 .0510310891277435 0 .997598562603899 .0517950812146067 0 .999493714662
98 .0522307538792282 0 .99970177870581 .0522875728879871 0 127 49 74 4 1 1 1 1 1
 1 1 1 1 1 1 1 1 1 1 1 1 1 1 1 1 1 1 1 1 1 1 1 1 1 1 1 1 1 1 1 1 1 1 1 1 1 1 1 1
 1 1 4 128 49 75 .000253070050499726 .0019209713217893 .00445620183362626 .00796
894735397351 .01239591329142452 .0176307792054602 .02370170697532925 .0307826021
3389205 .03873322230265705 .0475272254692375 .0571472898755879 .0675658644089629
 .0787470464948823 .0906568541268995 .1032411887627156 .116438071472907 .1302042
528247654 .1444836225227704 .159221602011206 .174361004883729 .18983893630132 .2
05587894971829 .2215510883836255 .2376524803150665 .2538314606454295 .2700214812
03713 .286156207663648 .30217096914766 .3179872822386275 .333542979834646 .34876
50390405095 .363585194087976 .37794471080891 .3917806459387465 .405030306724199
 .417644058619528 .42956601002785 .4407428380213685 .4511223235615 .460653586155
987 .469301330537498 .477024971667942 .48379275736789 .489591384775547 .49437750
1221489 .498134471353887 .50083513124816 .502463506971403 .502753601342872 74 20
 15 9 0 0 76 77 78 79 80 13 66 2 64 0 0 0 0 0 0 0 0 0 0 0 81 2 76 66 81 1 0 77 0
 0 0 82 81 2 77 69 83 1 76 78 0 0 0 84 81 2 78 70 85 1 77 79 0 0 86 0 81 1 79 72
 87 1 78 80 0 0 88 81 2 80 74 89 1 79 13 0 0 0 0 81 2 13 77 90 1 80 2 0 0 91 0 8
0 2 90 92 93 8004 0 0 0 0 3 5 0 0 0 FFTFFFFFFFFFFF2 3 83 1 91 1 79 16 93 SDL/TYS
A_DENSITY80 2 89 94 95 9000 0 0 0 0 3 5 0 0 0 FFTFFFFFFFFFFF9 1 79 16 95 BODY_RE
CIPE_200180 1 87 96 97 9000 1 1 1 1 1 1 1 1 0 FFTFFFFFFFFFFF1 82 1 88 728511 79
 10 97 BODY_MATCH80 2 85 98 99 9000 0 0 0 0 3 5 0 0 0 FFTFTTTFFTFFFF10 10 98 14
 86 83 117 114 102 97 99 101 45 80 108 97 110 101 49 79 23 99 SWIMPLICITBODYNAME
_ID_U80 2 83 100 101 9000 0 0 0 0 3 5 0 0 0 FFTFFFFFFFFFFF9 1 82 1 84 58 79 30 1
01 LAST_BODY_MODIFYING_FEATURE_ID80 2 81 102 103 9000 0 0 0 0 3 5 0 0 0 FFTFFFFF
FFFFFF9 1 82 1 82 106 79 19 103 ENT_TIME_STAMP_200180 2 12 104 105 9000 0 0 0 0
 3 5 0 0 0 FFTFFFFFFFFFFF9 1 82 1 14 101 79 12 105 ATOM_ID_20011 0 
