**ABCDEFGHIJKLMNOPQRSTUVWXYZabcdefghijklmnopqrstuvwxyz**************************
**PARASOLID !"#$%&'()*+,-./:;<=>?@[\]^_`{|}~0123456789**************************
**PART1;
MC=AMD64;
MC_MODEL=Intel64 Family 6 Model 85 Stepping 4, GenuineIntel;
MC_ID=unknown;
OS=Windows_NT;
OS_RELEASE=unknown;
FRU=Parasolid Version 35.1, build 251, 11- 4-2023;
APPL=SOLIDWORKS 2024-2024157;
SITE=;
USER=unknown;
FORMAT=text;
GUISE=transmit;
KEY=GOE564_5d;
FILE=GOE564_5d.x_t;
DATE=Wed Sep 18 15:52:27 2024;
**PART2;
SCH=SCH_3501251_35102;
USFLD_SIZE=0;
**PART3;
**END_OF_HEADER*****************************************************************
T51 : TRANSMIT FILE created by modeller version 350125117 SCH_3000000_300000 12
 1 98 2 3 0 0 0 0 0 0 1e3 1e-8 0 4 0 1 0 3 1 5 6 7 8 0 0 9 10 11 0 0 0 0 0 0 81
 2 2 97 12 1 13 0 0 0 0 14 70 3 0 4 T1 0 0 9 20 1 15 15 13 5 56 0 1 0 16 0 0 9 1
6 50 6 3 0 16 0 0 0 +0 0 0 0 0 -1 -1 0 0 134 7 32 0 10 17 0 0 +18 19 29 8 54 0 1
1 20 0 0 0 0 19 9 55 0 1 0 0 5 V0 16 10 30 0 ?21 0 22 7 0 0 1 18 11 52 0 23 0 24
 8 ?1 17 23 0 0 0 0 11 25 26 0 27 +18 24 49 0 28 11 29 20 ?1 17 28 0 30 27 25 24
 31 22 0 21 -18 29 46 0 25 24 32 33 ?1 29 20 51 0 24 33 8 .999814882084862 .0873
933343406241 0 29 33 48 0 29 34 20 .999814882084862 .0875228300712786 0 29 34 45
 0 32 35 33 -2 2 0 18 32 43 0 36 29 37 34 ?1 29 35 42 0 37 38 34 6 2 0 18 37 40
 0 39 32 40 35 ?1 29 38 39 0 40 41 35 6 -2 0 18 40 37 0 42 37 43 38 ?1 29 41 36
 0 43 0 38 -2 -2 0 18 43 34 0 44 40 0 41 ?1 17 44 0 45 42 46 43 36 47 0 48 +15 4
5 4 0 44 16 30 17 42 0 45 39 44 40 48 49 0 50 +17 46 0 45 44 39 32 51 52 0 0 +17
 36 0 0 0 0 32 44 47 0 46 -16 47 6 0 ?44 49 0 53 0 0 1 17 48 0 0 0 0 43 42 49 0
 0 -16 49 10 0 ?42 54 47 55 0 0 1 16 54 14 0 ?39 52 49 56 0 0 1 30 55 12 0 49 53
 56 0 +-2 -2 0 1 0 0 30 53 8 0 47 0 55 0 +-2 -2 0 0 -1 0 30 56 16 0 54 55 57 0 +
6 -2 0 0 1 0 30 57 20 0 52 56 58 0 +-2 2 0 -1 0 0 16 52 18 0 ?46 26 54 57 0 0 1
 134 58 24 0 26 57 17 0 +59 60 16 26 22 0 ?23 22 52 58 0 0 1 30 17 28 0 22 58 7
 0 +.999814882084862 .0875228300712786 0 0 1 0 136 59 3 51 3 49 6 FFF1 61 62 63
 135 60 2 0 45 153 61 .999814882084862 .0875228300712811 0 .999603747627984 .087
5304052711156 0 .997611379951212 .0874476793091865 0 .995289052873348 .087572185
5126081 0 .989463390724114 .0875301986536665 0 .982199343541908 .087493626938128
5 0 .972583495871236 .0872802551466352 0 .961052961620805 .0868776443989577 0 .9
47518754944359 .0860891003529573 0 .932089827755156 .0850503105541223 0 .9148016
80364033 .0839288281087784 0 .895735351683198 .0826836311748767 0 .8749693863736
59 .0813165720093927 0 .852589988383412 .0798506918690853 0 .828696697801227 .07
83004036943416 0 .803395755905676 .0766310054726307 0 .776787175346399 .07490436
69150252 0 .748987329863106 .0730839474648701 0 .720115790158703 .07118794621474
77 0 .690297900360539 .0692487946345727 0 .659662674998241 .0672427727714432 0 .
628340385360458 .0651771403403737 0 .596457621679372 .0631176519429603 0 .564160
501791112 .060981874347719 0 .531580538483094 .0588639427487524 0 .4988643323893
4 .0567264370247653 0 .466149024903992 .0545763511970607 0 .433570507647997 .052
436287613523 0 .401270669561994 .050340966134757 0 .369388887274049 .04826193022
86816 0 .3380640823871395 .0462336990593037 0 .3074298595065775 .044217524689723
75 0 .2776164868515605 .04222514408257765 0 .2487538675715625 .04019839730602085
 0 .220943997162731 .03852301859090515 0 .19433207129347 .0368183910168506 0 .16
90198152272745 .035330666014032 0 .1451400503098474 .03359098877626345 0 .122817
129172951 .03146427795335325 0 .1021133731397064 .0293964467690312 0 .0830912922
942898 .0276016742902552 0 .065862558487177 .0255905668048782 0 .050555440730513
 .0229791745363767 0 .03724147831229565 .01997707870227105 0 .02584661328839195
 .0172799490499524 0 .01638439937258 .01436097663187776 0 .00939023237533919 .01
066456196731028 0 .003674831899384915 .00764112745712543 0 .000931029478129306 .
003739429165703055 0 -701685471580475e-19 .001035220001330882 0 261308452010701e
-30 160555398208006e-31 0 127 49 62 4 1 1 1 1 1 1 1 1 1 1 1 1 1 1 1 1 1 1 1 1 1
 1 1 1 1 1 1 1 1 1 1 1 1 1 1 1 1 1 1 1 1 1 1 1 1 1 1 4 128 49 63 .50275360134287
2 .503102654605546 .504696327458962 .507341700534038 .511026038725789 .515727434
576567 .521434369028256 .528111035640402 .535740201627925 .544284068115007 .5537
03099305926 .563967535136195 .575028063553158 .586835265452911 .599339503628536
 .612486633449727 .626227017653128 .640496410954604 .655230676149192 .6703702920
67815 .68585101357932 .701603869981585 .71756912282498 .733668025753225 .7498361
16249246 .766004098686446 .782102893091468 .798068363265547 .813821219667812 .82
9302158998584 .844441667587539 .859175305902703 .873443985970553 .88718529487492
3 .900333237798312 .912838522368624 .92464381189974 .935701821538725 .9459644229
95246 .955381793745045 .963928742691998 .971582256204598 .978310739642969 .98408
0016562925 .988904575307709 .992845402800639 .995821541352588 .998242893536271 .
999817346224571 16 22 26 0 ?31 10 26 17 0 0 1 17 31 0 0 0 0 29 28 22 0 0 +17 39
 0 45 46 42 37 50 54 0 51 +17 50 0 0 0 0 40 39 54 0 0 -17 51 0 0 0 0 37 46 52 0
 0 -14 16 1 64 ?0 0 45 5 6 -0 0 0 0 5 15 30 5 0 25 16 0 17 25 0 30 28 27 29 23 2
6 0 31 -17 27 0 30 25 28 11 21 10 0 0 -17 21 0 0 0 0 24 27 10 0 0 +81 1 64 98 65
 16 66 0 0 0 67 80 1 65 68 69 9000 1 1 1 1 1 1 1 1 0 FFFFTFTFFFFFFF1 81 1 66 86
 70 16 0 64 0 0 71 82 1 67 1531052154 80 1 70 0 72 8001 0 0 0 0 3 5 0 0 0 FFFFTF
TFFFFFFF2 83 3 71 .792156862745098 .819607843137255 .933333333333333 79 15 72 SD
L/TYSA_COLOUR79 14 69 SWEntUnchanged136 18 3 51 3 49 6 FFF1 73 74 75 135 19 2 0
 45 153 73 0 0 0 743332651701012e-19 -.001096663476490806 0 .001575746606381965
 -.003774551770294525 0 .00531166356709995 -.00734312820199675 0 .01108875402636
136 -.0115423453474809 0 .01891903570737875 -.0158352244699792 0 .02888791237442
17 -.01969910872965215 0 .0410057227083619 -.0225850010167323 0 .054760736944086
 -.0264521273452004 0 .0706126414205756 -.02950641264481605 0 .0882558375923657
 -.03219367176832055 0 .1076407900212772 -.03449988280923295 0 .128701367437911
 -.03628493105577445 0 .1513460711621015 -.03762130295223145 0 .175469087175189
 -.0387477946031409 0 .200974015810414 -.0394924849453793 0 .227747006032515 -.0
395340153089203 0 .25566021846181 -.0389115249365002 0 .2845906478843965 -.03756
020190426475 0 .3144348210084505 -.0359029856345711 0 .3450697298217995 -.033874
4895879631 0 .3763640021278385 -.03147384882884905 0 .408183986212674 -.02865961
161428555 0 .440382322436095 -.0253668137007791 0 .472823343173007 -.02161246803
212785 0 .505355773737394 -.01734583864455035 0 .537851765066912 -.0126495681584
6794 0 .570165566063887 -.00749571694674203 0 .60217384397504 -.0020454382246759
5 0 .633731702347766 .003702151358451895 0 .664715083144848 .00960180763482268 0
 .695000611174193 .01555777484117805 0 .724475479950142 .0214389074595281 0 .753
005301544626 .0272601953740981 0 .78046376488206 .03301315860658775 0 .806725829
974313 .03871066413912095 0 .83168218970807 .0443127509398207 0 .855229966413042
 .0497804530959814 0 .877277008673512 .0550225946326258 0 .897729737287077 .0599
742127583018 0 .91649219215082 .0646286516265851 0 .933506832177319 .06886759292
5796 0 .948703116919839 .0726491095110732 0 .962014242163216 .0760755546347003 0
 .973295800283327 .0792421886319476 0 .982689828992564 .0819976663785514 0 .9897
51246029626 .0842101802059967 0 .995447153844177 .0859487784550261 0 .9976417161
90815 .0868009717841315 0 .999609056924608 .0873228946495086 0 .999814882084862
 .0873933343406241 0 127 49 74 4 1 1 1 1 1 1 1 1 1 1 1 1 1 1 1 1 1 1 1 1 1 1 1 1
 1 1 1 1 1 1 1 1 1 1 1 1 1 1 1 1 1 1 1 1 1 1 1 4 128 49 75 .0001974271425737025
 .001865328413863275 .00440055892570024 .00791330444604749 .0123402703834985 .01
757513629753415 .0236460640674032 .030726959225966 .03867757939473105 .047471582
5613115 .0570916469676618 .0675102215010369 .0786914035869563 .0906012112189735
 .1031855458547896 .116382428564981 .1301486099168394 .1444279796148444 .1591659
5910328 .174305361975803 .189783293393394 .205532252063903 .2214954454756995 .23
759683740714 .2537758177375035 .269965838295787 .2861005647557215 .3021153262397
34 .3179316393307015 .33348733692672 .3487093961325835 .36352955118005 .37788906
7900984 .3917250030308205 .404974663816273 .417588415711602 .429510367119924 .44
06871951134425 .451066680653574 .460597943248061 .469245687629572 .4769693287600
16 .483737114459964 .489535741867621 .494321858313563 .498078828445961 .50077948
8340234 .502407864063477 .502753601342872 74 20 15 9 0 0 76 77 78 79 80 13 66 2
 64 0 0 0 0 0 0 0 0 0 0 0 81 2 76 66 81 1 0 77 0 0 0 82 81 2 77 69 83 1 76 78 0
 0 0 84 81 2 78 70 85 1 77 79 0 0 86 0 81 1 79 72 87 1 78 80 0 0 88 81 2 80 74 8
9 1 79 13 0 0 0 0 81 2 13 77 90 1 80 2 0 0 91 0 80 2 90 92 93 8004 0 0 0 0 3 5 0
 0 0 FFTFFFFFFFFFFF2 3 83 1 91 1 79 16 93 SDL/TYSA_DENSITY80 2 89 94 95 9000 0 0
 0 0 3 5 0 0 0 FFTFFFFFFFFFFF9 1 79 16 95 BODY_RECIPE_200180 1 87 96 97 9000 1 1
 1 1 1 1 1 1 0 FFTFFFFFFFFFFF1 82 1 88 809792 79 10 97 BODY_MATCH80 2 85 98 99 9
000 0 0 0 0 3 5 0 0 0 FFTFTTTFFTFFFF10 10 98 14 86 83 117 114 102 97 99 101 45 8
0 108 97 110 101 49 79 23 99 SWIMPLICITBODYNAME_ID_U80 2 83 100 101 9000 0 0 0 0
 3 5 0 0 0 FFTFFFFFFFFFFF9 1 82 1 84 58 79 30 101 LAST_BODY_MODIFYING_FEATURE_ID
80 2 81 102 103 9000 0 0 0 0 3 5 0 0 0 FFTFFFFFFFFFFF9 1 82 1 82 110 79 19 103 E
NT_TIME_STAMP_200180 2 12 104 105 9000 0 0 0 0 3 5 0 0 0 FFTFFFFFFFFFFF9 1 82 1
 14 101 79 12 105 ATOM_ID_20011 0 
