**ABCDEFGHIJKLMNOPQRSTUVWXYZabcdefghijklmnopqrstuvwxyz**************************
**PARASOLID !"#$%&'()*+,-./:;<=>?@[\]^_`{|}~0123456789**************************
**PART1;
MC=AMD64;
MC_MODEL=Intel64 Family 6 Model 85 Stepping 4, GenuineIntel;
MC_ID=unknown;
OS=Windows_NT;
OS_RELEASE=unknown;
FRU=Parasolid Version 35.1, build 251, 11- 4-2023;
APPL=SOLIDWORKS 2024-2024157;
SITE=;
USER=unknown;
FORMAT=text;
GUISE=transmit;
KEY=ia-1;
FILE=ia-1.x_t;
DATE=Wed Sep 18 15:07:55 2024;
**PART2;
SCH=SCH_3501251_35102;
USFLD_SIZE=0;
**PART3;
**END_OF_HEADER*****************************************************************
T51 : TRANSMIT FILE created by modeller version 350125117 SCH_3000000_300000 12
 1 98 2 3 0 0 0 0 0 0 1e3 1e-8 0 4 0 1 0 3 1 5 6 7 8 0 0 9 10 11 0 0 0 0 0 0 81
 2 2 97 12 1 13 0 0 0 0 14 70 3 0 4 T1 0 0 9 20 1 15 15 13 5 56 0 1 0 16 0 0 9 1
6 50 6 3 0 16 0 0 0 +0 0 0 0 0 -1 -1 0 0 30 7 32 0 10 17 0 0 +.98454996548457 .0
459890326566943 0 -.802776476727517 .596280075478759 0 29 8 54 0 11 18 0 .985612
494110727 .0451998158973967 0 19 9 55 0 1 0 0 5 V0 16 10 30 0 ?19 0 20 7 0 0 1 1
8 11 52 0 21 0 22 8 ?1 17 21 0 0 0 0 11 23 24 0 25 +18 22 49 0 26 11 27 18 ?1 17
 26 0 28 25 23 22 29 20 0 19 -18 27 46 0 23 22 30 31 ?1 29 18 51 0 22 31 8 .9845
4996548457 .0459890326566943 0 29 31 48 0 27 32 18 450247456010627e-30 164703613
694398e-31 0 29 32 45 0 30 33 31 -2 2 0 18 30 43 0 34 27 35 32 ?1 29 33 42 0 35
 36 32 5.99 2 0 18 35 40 0 37 30 38 33 ?1 29 36 39 0 38 39 33 5.99 -2 0 18 38 37
 0 40 35 41 36 ?1 29 39 36 0 41 0 36 -2 -2 0 18 41 34 0 42 38 0 39 ?1 17 42 0 43
 40 44 41 34 45 0 46 +15 43 4 0 42 16 28 17 40 0 43 37 42 38 46 47 0 48 +17 44 0
 43 42 37 30 49 50 0 0 +17 34 0 0 0 0 30 42 45 0 44 -16 45 6 0 ?42 47 0 51 0 0 1
 17 46 0 0 0 0 41 40 47 0 0 -16 47 10 0 ?40 52 45 53 0 0 1 16 52 14 0 ?37 50 47
 54 0 0 1 30 53 12 0 47 51 54 0 +-2 -2 0 1 0 0 30 51 8 0 45 0 53 0 +-2 -2 0 0 -1
 0 30 54 16 0 52 53 55 0 +5.99 -2 0 0 1 0 30 55 20 0 50 54 56 0 +-2 2 0 -1 0 0 1
6 50 18 0 ?44 24 52 55 0 0 1 134 56 24 0 24 55 17 0 +57 58 16 24 22 0 ?21 20 50
 56 0 0 1 134 17 28 0 20 56 7 0 +59 60 136 57 3 135 3 133 6 FFF1 61 62 63 135 58
 2 0 45 405 61 0 0 0 -.0003560775556770165 -.000823536691267558 0 -.001113580610
927476 -.002924364605987005 0 -.00163372631211628 -.00659113873395267 0 -.000998
893134943125 -.0103754421411027 0 -.00086228613087869 -.01427446270064432 0 -.00
0457170717677259 -.01830288501021205 0 .001088681916101602 -.0224658117024898 0
 .002714743021163295 -.02669038103617185 0 .00461637271623654 -.0306438627904242
 0 .00623929389273114 -.034616234525056 0 .00814923195708471 -.03819018295770505
 0 .0099145262597923 -.0416532560797127 0 .0119522749788363 -.0448392073593857 0
 .01400521703733582 -.0480365218990425 0 .01642906331341025 -.0512010364639685 0
 .0188151079180902 -.0544469038717894 0 .02127160353727035 -.0577443061772516 0
 .0239645241641406 -.0610730520077424 0 .0268064995245809 -.0644331188253703 0 .
0298157880027224 -.0676312165547859 0 .0327176769515186 -.0707400983260954 0 .03
58169961320705 -.0737346418537775 0 .0388938235746136 -.0769322872195295 0 .0424
5009252975435 -.0798515296323925 0 .0458075022342542 -.0829587405329196 0 .04942
98195106564 -.0857018998417187 0 .0527861360664269 -.0886353813183581 0 .0564768
454386454 -.0914550197700788 0 .0603999944047631 -.0943560261798396 0 .064490900
0955852 -.0972459600812278 0 .0687704229871027 -.0999296328293161 0 .07309364288
32487 -.1028330907518994 0 .0778560507909152 -.1057934323006258 0 .0829200173582
184 -.1087498842544922 0 .0880949026251429 -.1117811085056674 0 .093494572190089
9 -.1146664162600616 0 .0990730363566082 -.1174452970013596 0 .104841964475322 -
.1201442915267232 0 .1107686470718826 -.122858149343169 0 .1168545196325296 -.12
55950124863472 0 .1232416153700222 -.1282125996669872 0 .1298945325093062 -.1307
79860458541 0 .1369128703205756 -.1333231748684572 0 .1442932489648186 -.1358746
18090374 0 .1520954981035915 -.1385053747121084 0 .1604247520644525 -.1408958808
417046 0 .169124943041288 -.1434560139287016 0 .178518060629566 -.14576871790034
12 0 .188713774017785 -.1480691373539794 0 .199717773607604 -.15039254624737 0 .
2111777353862265 -.152559455927901 0 .2228040144155715 -.1545383368043795 0 .234
434289508478 -.1561782212304515 0 .2460062160499585 -.157869680151859 0 .2576150
20865573 -.15896180310394 0 .26917365970313 -.1601641804888655 0 .28073741297758
75 -.161092849153157 0 .2922863562301305 -.1618811266133 0 .3038249200627035 -.1
62494638532236 0 .315352071048926 -.162937752705775 0 .3268695114595415 -.163168
2826951115 0 .338372467188408 -.1632910223439735 0 .349867462945751 -.1632848172
394625 0 .361353885183186 -.1630745165173895 0 .372836915034576 -.16297422522122
25 0 .384307231416975 -.162519984667385 0 .395772820536528 -.162066627530599 0 .
407220818312397 -.161308776134679 0 .418673849257461 -.1606397660083555 0 .43010
69650320785 -.159682328480005 0 .441523002682079 -.158484192093399 0 .4529423185
14552 -.157289087143722 0 .464339190852111 -.1558494618579775 0 .475737950897935
 -.15437461429476 0 .48713487962096 -.152808185333722 0 .498505312302952 -.15099
2663598113 0 .509876452890484 -.149137222920997 0 .521235827134643 -.14715641264
71184 0 .532615635464811 -.1452412696992736 0 .543974574418153 -.143126613145924
 0 .555300506263852 -.1407929771062822 0 .566657481342361 -.1385368220217102 0 .
578005337973085 -.1361129467986232 0 .589273570605903 -.1332750070943268 0 .6006
11698386296 -.1306949693004204 0 .611934853721794 -.1280572721415382 0 .62327041
1530797 -.1253870640125148 0 .634565270604253 -.122422006493708 0 .6458368877286
69 -.1192628359354744 0 .657111054380089 -.116064604667376 0 .66842626188072 -.1
129681673066876 0 .679697069986588 -.109650172318171 0 .690946035618505 -.106193
3693580838 0 .702178729697976 -.102892700829654 0 .713198141887292 -.09914479699
08932 0 .724094722079451 -.095531066204078 0 .734819849343633 -.0919299871823189
 0 .74531962763185 -.0881846930182745 0 .755561124742342 -.0845059372462398 0 .7
65559654967979 -.0809309816569926 0 .775181705568417 -.0773435498299536 0 .78449
9800935175 -.073670291540957 0 .793581329786392 -.0700895104649986 0 .8022457160
95467 -.066458302759405 0 .81074763250045 -.0630958433366072 0 .818931139936575
 -.0594258331936223 0 .827132974780136 -.0559644475057033 0 .835082882899317 -.0
523753030690529 0 .842817991032242 -.04893788453905 0 .850228887324212 -.0454171
08635734 0 .857394126132344 -.0419869256195675 0 .864373772176227 -.038564717676
60745 0 .871237690886495 -.03509574035060705 0 .87808162091368 -.031762301290140
05 0 .884756978203088 -.02826813602166275 0 .891477808727771 -.02478594274566445
 0 .898188488129676 -.0211837175030712 0 .90464131529574 -.0174734168952557 0 .9
10932725441021 -.01402723817266484 0 .916984311862445 -.0104624733568617 0 .9229
39846070102 -.00726803595533005 0 .928265322373414 -.003793142213378215 0 .93359
9566080571 -.000494892691945329 0 .939260802569136 .00318312120617751 0 .9453238
45171052 .00725777705125098 0 .951479044026891 .01148984787307642 0 .95745451602
6678 .01554073630078815 0 .96298676647982 .02006131179974625 0 .968869227061345
 .02448977794229785 0 .973891403337399 .0298046034854014 0 .978950770097324 .035
269534989272 0 .98175123231947 .03962952835310405 0 .984568536666008 .0436927963
4259335 0 .985612494110727 .0451998158973967 0 127 133 62 4 1 1 1 1 1 1 1 1 1 1
 1 1 1 1 1 1 1 1 1 1 1 1 1 1 1 1 1 1 1 1 1 1 1 1 1 1 1 1 1 1 1 1 1 1 1 1 1 1 1 1
 1 1 1 1 1 1 1 1 1 1 1 1 1 1 1 1 1 1 1 1 1 1 1 1 1 1 1 1 1 1 1 1 1 1 1 1 1 1 1 1
 1 1 1 1 1 1 1 1 1 1 1 1 1 1 1 1 1 1 1 1 1 1 1 1 1 1 1 1 1 1 1 1 1 1 1 1 1 1 1 1
 1 4 128 133 63 .004288817611850895 .00553976709837172 .00745369465808292 .00935
99448950769 .01088162673227492 .0129165030123784 .0149839604085194 .017060915337
07325 .01925494929048305 .02111613168127695 .02305954099521025 .0249202463284883
5 .02655075585077475 .0283469552533661 .03023417310334865 .0321239000593128 .033
98398445987145 .03598576542752675 .03811334489594955 .04013881150021265 .0421285
8210775585 .0440617604699287 .0461681648916175 .0483299817214154 .05049177876015
56 .0525641710149802 .0546809090060182 .0567254760270519 .059059337467175 .06150
80421345751 .0637300128677228 .0661249280361139 .06879336412925 .071573293039939
4 .0743287317039467 .0771830741724975 .080136474243921 .0830470899846392 .086093
1937892725 .089256369016729 .0923818977379621 .0957489027912888 .099232563753167
 .1028249178966406 .106674398362661 .1107496585252786 .1149467091002812 .1193611
74218671 .1242799774924494 .1295697679817068 .1350945905650074 .1405963069517896
 .1460672529161002 .151526926032663 .156954492855403 .1623767460378195 .16778552
71593755 .17318343865589 .1785716061117535 .183950689982517 .189321569161304 .19
46876566425815 .200044716941616 .2054027614928905 .2107603508749345 .21610936266
90045 .2214617447985925 .2268131016593075 .232159801366909 .23751209356849 .2428
624909353835 .2482190121149615 .2535749541798635 .2589331963583695 .264299628665
9005 .269668759022048 .2750418503029515 .280418730504851 .285800700850046 .29118
64677717365 .296582252670052 .3019786619594905 .307386280159193 .312813994782497
5 .318233939493772 .323653884205047 .3290800141965525 .334526166411312 .33998971
7192748 .345457103762077 .3509216078707725 .356401873561459 .361893527594195 .36
7386239127889 .372778899002699 .378175086294682 .3834482234226365 .3886063694500
505 .393770867257556 .398673002746857 .403461968800698 .408136867742255 .4126856
728305985 .4171188786009445 .421280004925222 .4254745878433715 .4296644787201205
 .4337342654467455 .4376773547523005 .4415062492040005 .4452123057885865 .448791
4872921155 .452381375247395 .455971939488024 .459441034890786 .462921823877319 .
466562119859149 .470095364375564 .473335059361792 .4765970688131 .47992133591903
2 .482783570557589 .485488553328444 .488696123140678 .492227817350909 .495707672
050889 .499149524743629 .502316988121574 .505708630805178 .50940178129284 .51262
9757587297 .515762505608173 .517695788353538 16 20 26 0 ?29 10 24 17 0 0 1 136 5
9 3 105 3 103 6 FFF1 64 65 66 135 60 2 0 45 315 64 .98454996548457 .045989032656
6943 0 .98307332924215 .0443252814966332 0 .9795936630627 .0404535168970396 0 .9
75559443937205 .0367504668254521 0 .97065228039338 .0324207896416967 0 .96641070
164376 .0280514507348784 0 .961720928926959 .0246132985465591 0 .956825835482321
 .0208477449448436 0 .951137907381552 .01701835036644625 0 .945515593314097 .012
6557146323767 0 .93855120421807 .00934382814948528 0 .931927362997046 .005054980
50124619 0 .924764994702101 .001361243455974902 0 .917369762242704 -.00250171051
26624 0 .909871101211916 -.0059682199543397 0 .902484734496781 -.009611096898173
11 0 .895449490587383 -.01311824205548744 0 .888192999888514 -.01656980011408205
 0 .880665982097114 -.02004532904361845 0 .872853229963586 -.02352015914346265 0
 .864817562687504 -.02711766121869775 0 .856385326164396 -.0306675026168452 0 .8
47493988944207 -.03423257498771065 0 .838148871284292 -.0378281284132574 0 .8282
88792017717 -.04155053988819515 0 .817900089918427 -.0450886674430198 0 .8072235
54442009 -.0488353812296241 0 .796269526521739 -.0524959179536029 0 .78504945064
114 -.0557651309183295 0 .773775424567011 -.0589988883405737 0 .762483930457381
 -.0620637582604883 0 .751190802113058 -.0649697120890447 0 .739858440139745 -.0
675511901383446 0 .728503177704903 -.0698248306597181 0 .717158398535986 -.07198
37801943803 0 .70574970436539 -.0736036238877944 0 .694388284755662 -.0754246431
980537 0 .68298699406217 -.0769056262089944 0 .671564790294679 -.078122790479471
1 0 .660144896535351 -.079256403033727 0 .648723725877359 -.0803885070632137 0 .
63727724186044 -.0811368798959216 0 .625832273888617 -.0819363240250435 0 .61437
0887472955 -.0823808553353545 0 .602918582871775 -.0831246908171876 0 .591439566
037376 -.0833829074495858 0 .579950388376185 -.0835031071206855 0 .5684554055573
48 -.0835333955235276 0 .556954640277931 -.083408289163593 0 .545449902134637 -.
0832185832013516 0 .533928507072406 -.0830907884526248 0 .522408218910982 -.0825
406693212169 0 .510876849164082 -.082016809586345 0 .499328338022718 -.081512491
8896334 0 .487790712229236 -.0806032419777369 0 .476234090673215 -.0797566765410
368 0 .464656122726215 -.0788816979752332 0 .453109608427059 -.0775180923524263
 0 .441515112096878 -.0764319440393634 0 .429941650404239 -.0750649431656679 0 .
418343315585911 -.0737188829110569 0 .406748450926869 -.0721482680897504 0 .3951
410404111335 -.0704497340379558 0 .383522488625221 -.0686558085993206 0 .3719054
856100835 -.06672912662665 0 .3602792436781695 -.0647672674733375 0 .34871614052
8921 -.0627902805619684 0 .3372853219929015 -.0604528196406541 0 .32598938174610
1 -.0582504786277414 0 .314989299781874 -.0559420090847849 0 .304331635745321 -.
0537062978554268 0 .2940585651087935 -.0513515528371116 0 .2840405674389095 -.04
90021221247433 0 .274216471764884 -.0465653907854163 0 .264584226697566 -.044098
60731355875 0 .2550924005164785 -.0417958997111864 0 .2458956312013445 -.0393893
3087719565 0 .236917941102995 -.0368338998134653 0 .2279656200386525 -.034498129
6376087 0 .219146737937194 -.0320213218734727 0 .21041356946433 -.02954512093435
425 0 .2017845315438335 -.0270879191933684 0 .1930122308180955 -.024793632460481
15 0 .184217371048796 -.0222551848325482 0 .1752680602194295 -.01987887343341095
 0 .1663724872719155 -.01734774630949805 0 .1574329839532605 -.01498523956668792
 0 .148434890539149 -.012520349510074 0 .1392355432098446 -.01011145540598262 0
 .129779663448582 -.00766160649799867 0 .119959609410268 -.00525245583113846 0 .
1097549866823566 -.00301043430905526 0 .0991366399615568 -.000678602790119032 0
 .0880289900541571 .00137818898468313 0 .0765951431211038 .003408738838217235 0
 .0649850281212813 .0051553743310054 0 .053407694689113 .00656238409012855 0 .04
18337218622366 .00733364260593215 0 .030336933893299 .00766891290960746 0 .01874
458414798 .00746647876454679 0 .00996809113442039 .00634247971138605 0 .00289630
487791485 .00534513568499263 0 .001024911311572276 .00221282823659512 0 .0001875
43476791025 .000433750827263836 0 450247456010627e-30 164703613694398e-31 0 127
 103 65 4 1 1 1 1 1 1 1 1 1 1 1 1 1 1 1 1 1 1 1 1 1 1 1 1 1 1 1 1 1 1 1 1 1 1 1
 1 1 1 1 1 1 1 1 1 1 1 1 1 1 1 1 1 1 1 1 1 1 1 1 1 1 1 1 1 1 1 1 1 1 1 1 1 1 1 1
 1 1 1 1 1 1 1 1 1 1 1 1 1 1 1 1 1 1 1 1 1 1 1 1 1 1 4 128 103 66 .5176957883535
38 .520017623135828 .522873224423598 .526393154103812 .52883892604054 .531440642
245876 .534492586943926 .537486285167956 .541033602716143 .544410637693511 .5482
31156377442 .552062056054854 .555676829042571 .559904209110778 .563616468541354
 .567199198533437 .570901801713553 .574858063212042 .578797906885696 .5828644859
74821 .587175209017206 .591596702419322 .596266015333398 .601183887817987 .60634
0233616179 .611618639962594 .617014607230231 .622495485736323 .627966767963258 .
633423750556 .638863836598869 .644280040288781 .649681659931604 .655065776237688
 .660433248869358 .665800316954492 .671163479497762 .676515585843338 .6818704354
07666 .687219447201736 .69257093398068 .697917633688282 .703269606133598 .708616
593906483 .713971443470811 .719330200643614 .724691877177999 .730053011066898 .7
35420862310563 .740790195862136 .746171188319185 .751554654966291 .7569406939625
6 .762341685855817 .767744572657192 .773153353778748 .77858325538003 .7840085219
07218 .789444817828158 .79488690899069 .800343848461546 .805813834399635 .811299
102095963 .816791069699944 .822288283558278 .827795172816136 .83320148539742 .83
8610171595952 .84389626654674 .848926117997093 .853844921270871 .85864100017761
 .863321917229299 .86800545221181 .872551735888468 .876986367350725 .88130430735
8346 .885610261223367 .889929719446586 .894119319289726 .898310208207161 .902481
632004042 .906804139905818 .911116051317591 .91543550954081 .919742946115485 .92
4051869854244 .928487960306544 .933046994290083 .937717953945006 .94263284802538
5 .947663951843831 .952926278608178 .958435488443067 .96391031190277 .9693498965
50236 .974749028529878 .980122764752766 .985472992191362 .990830581573406 .99283
27685905 .994888183082808 .995547049142326 17 29 0 0 0 0 27 26 20 0 0 +17 37 0 4
3 44 40 35 48 52 0 49 +17 48 0 0 0 0 38 37 52 0 0 -17 49 0 0 0 0 35 44 50 0 0 -1
4 16 1 67 ?0 0 43 5 6 -0 0 0 0 5 15 28 5 0 23 16 0 17 23 0 28 26 25 27 21 24 0 2
9 -17 25 0 28 23 26 11 19 10 0 0 -17 19 0 0 0 0 22 25 10 0 0 +81 1 67 98 68 16 6
9 0 0 0 70 80 1 68 71 72 9000 1 1 1 1 1 1 1 1 0 FFFFTFTFFFFFFF1 81 1 69 86 73 16
 0 67 0 0 74 82 1 70 -1436548986 80 1 73 0 75 8001 0 0 0 0 3 5 0 0 0 FFFFTFTFFFF
FFF2 83 3 74 .792156862745098 .819607843137255 .933333333333333 79 15 75 SDL/TYS
A_COLOUR79 14 72 SWEntUnchanged74 20 15 9 0 0 76 77 78 79 80 13 69 2 67 0 0 0 0
 0 0 0 0 0 0 0 81 2 76 66 81 1 0 77 0 0 0 82 81 2 77 69 83 1 76 78 0 0 0 84 81 2
 78 70 85 1 77 79 0 0 86 0 81 1 79 72 87 1 78 80 0 0 88 81 2 80 74 89 1 79 13 0
 0 0 0 81 2 13 77 90 1 80 2 0 0 91 0 80 2 90 92 93 8004 0 0 0 0 3 5 0 0 0 FFTFFF
FFFFFFFF2 3 83 1 91 1 79 16 93 SDL/TYSA_DENSITY80 2 89 94 95 9000 0 0 0 0 3 5 0
 0 0 FFTFFFFFFFFFFF9 1 79 16 95 BODY_RECIPE_200180 1 87 96 97 9000 1 1 1 1 1 1 1
 1 0 FFTFFFFFFFFFFF1 82 1 88 502366 79 10 97 BODY_MATCH80 2 85 98 99 9000 0 0 0
 0 3 5 0 0 0 FFTFTTTFFTFFFF10 10 98 14 86 83 117 114 102 97 99 101 45 80 108 97
 110 101 49 79 23 99 SWIMPLICITBODYNAME_ID_U80 2 83 100 101 9000 0 0 0 0 3 5 0 0
 0 FFTFFFFFFFFFFF9 1 82 1 84 69 79 30 101 LAST_BODY_MODIFYING_FEATURE_ID80 2 81
 102 103 9000 0 0 0 0 3 5 0 0 0 FFTFFFFFFFFFFF9 1 82 1 82 106 79 19 103 ENT_TIME
_STAMP_200180 2 12 104 105 9000 0 0 0 0 3 5 0 0 0 FFTFFFFFFFFFFF9 1 82 1 14 101
 79 12 105 ATOM_ID_20011 0 
