**ABCDEFGHIJKLMNOPQRSTUVWXYZabcdefghijklmnopqrstuvwxyz**************************
**PARASOLID !"#$%&'()*+,-./:;<=>?@[\]^_`{|}~0123456789**************************
**PART1;
MC=AMD64;
MC_MODEL=Intel64 Family 6 Model 85 Stepping 4, GenuineIntel;
MC_ID=unknown;
OS=Windows_NT;
OS_RELEASE=unknown;
FRU=Parasolid Version 35.1, build 251, 11- 4-2023;
APPL=SOLIDWORKS 2024-2024157;
SITE=;
USER=unknown;
FORMAT=text;
GUISE=transmit;
KEY=MSHD_5d;
FILE=MSHD_5d.x_t;
DATE=Wed Sep 18 15:15:57 2024;
**PART2;
SCH=SCH_3501251_35102;
USFLD_SIZE=0;
**PART3;
**END_OF_HEADER*****************************************************************
T51 : TRANSMIT FILE created by modeller version 350125117 SCH_3000000_300000 12
 1 98 2 3 0 0 0 0 0 0 1e3 1e-8 0 4 0 1 0 3 1 5 6 7 8 0 0 9 10 11 0 0 0 0 0 0 81
 2 2 97 12 1 13 0 0 0 0 14 70 3 0 4 T1 0 0 9 20 1 15 15 13 5 56 0 1 0 16 0 0 9 1
6 50 6 3 0 16 0 0 0 +0 0 0 0 0 -1 -1 0 0 30 7 32 0 10 17 0 0 +.981756384604062 .
0769599120095801 0 -.844795706886121 .535088977298896 0 29 8 54 0 11 18 0 .98338
4811151913 .0759284755463107 0 19 9 55 0 1 0 0 5 V0 16 10 30 0 ?19 0 20 7 0 0 1
 18 11 52 0 21 0 22 8 ?1 17 21 0 0 0 0 11 23 24 0 25 +18 22 49 0 26 11 27 18 ?1
 17 26 0 28 25 23 22 29 20 0 19 -18 27 46 0 23 22 30 31 ?1 29 18 51 0 22 31 8 .9
81756384604062 .07695991200958 0 29 31 48 0 27 32 18 -104948711442975e-30 152323
8551526355e-32 0 29 32 45 0 30 33 31 -2 2 0 18 30 43 0 34 27 35 32 ?1 29 33 42 0
 35 36 32 5.99 2 0 18 35 40 0 37 30 38 33 ?1 29 36 39 0 38 39 33 5.99 -2 0 18 38
 37 0 40 35 41 36 ?1 29 39 36 0 41 0 36 -2 -2 0 18 41 34 0 42 38 0 39 ?1 17 42 0
 43 40 44 41 34 45 0 46 +15 43 4 0 42 16 28 17 40 0 43 37 42 38 46 47 0 48 +17 4
4 0 43 42 37 30 49 50 0 0 +17 34 0 0 0 0 30 42 45 0 44 -16 45 6 0 ?42 47 0 51 0
 0 1 17 46 0 0 0 0 41 40 47 0 0 -16 47 10 0 ?40 52 45 53 0 0 1 16 52 14 0 ?37 50
 47 54 0 0 1 30 53 12 0 47 51 54 0 +-2 -2 0 1 0 0 30 51 8 0 45 0 53 0 +-2 -2 0 0
 -1 0 30 54 16 0 52 53 55 0 +5.99 -2 0 0 1 0 30 55 20 0 50 54 56 0 +-2 2 0 -1 0
 0 16 50 18 0 ?44 24 52 55 0 0 1 134 56 24 0 24 55 17 0 +57 58 16 24 22 0 ?21 20
 50 56 0 0 1 134 17 28 0 20 56 7 0 +59 60 136 57 3 135 3 133 6 FFF1 61 62 63 135
 58 2 0 45 405 61 0 0 0 -.000327919152105331 -.000837503926179099 0 -.0010133140
3487313 -.002968684747081395 0 -.001406132066088338 -.00666037900660449 0 -.0006
37741855670804 -.01042941133207254 0 -.000364477947665199 -.01433080148197706 0
 .000182313766865677 -.01835243692495895 0 .001876639824046355 -.022468914902337
6 0 .003653477967999795 -.0266443424643963 0 .00569690600658405 -.03053854470373
24 0 .00746177538346784 -.0344614221183919 0 .00950024912874311 -.03797510450449
 0 .01138993496147564 -.04138276862526 0 .01354287969794692 -.04450327104545975
 0 .0157114431718197 -.0476346260240223 0 .0182504434066279 -.0507201448815676 0
 .02075441877420655 -.0538884882242061 0 .0233307772643656 -.0571059962380952 0
 .0261450907884893 -.0603466339639653 0 .0291098280927205 -.063613435453807 0 .0
322365188236607 -.0667121174738195 0 .0352524919087719 -.0697251773110662 0 .038
46225710901075 -.0726167822119661 0 .04165659480953595 -.0757126482020347 0 .045
3215131964315 -.0785128276307845 0 .0487937837683002 -.0815082772330974 0 .05251
87113429822 -.0841297400266965 0 .0559838088734296 -.0869511799200714 0 .0597799
295463604 -.089646869395713 0 .0638117626268838 -.0924159441638051 0 .0680112726
405045 -.0951680571875835 0 .0723925296754861 -.0977069321490359 0 .076825252971
946 -.1004644665249204 0 .0816999595824164 -.1032636239187508 0 .086876641676243
6 -.1060483346180956 0 .0921670617299636 -.1089040742398578 0 .0976775733593471
 -.1116057657977422 0 .1033634840784884 -.1141945801185762 0 .1092374131578508 -
.116696698411572 0 .115269905943228 -.119208188238925 0 .121462685400244 -.12173
7156344315 0 .127953067474207 -.1241360915662644 0 .1347079976685298 -.126475308
41945 0 .141828180765399 -.1287777508182802 0 .1493113528730534 -.13107567100845
18 0 .1572199437275385 -.1334382909644806 0 .1656481005400965 -.1355417827788682
 0 .1744538088370225 -.137802235401738 0 .183945057952237 -.1397905633579876 0 .
194239944635741 -.1417385056226502 0 .2053454037746175 -.1436812017498746 0 .216
902186004766 -.1454511599826756 0 .2286190122749085 -.1470269260901606 0 .240327
9822136805 -.1482629344040984 0 .25198030094358 -.1495526530861038 0 .2636485979
164825 -.1502406467520985 0 .275270494162064 -.151040852046236 0 .28688793857802
25 -.1515666678539865 0 .298485634260637 -.151952353179354 0 .3100668173560855 -
.152163315657072 0 .3216306053496715 -.1522039672454085 0 .333177227749259 -.152
0319846041635 0 .344705567886732 -.1517525207351335 0 .3562214223523945 -.151344
154173668 0 .3677215473352925 -.150731617733179 0 .3792221223695975 -.1502294111
00111 0 .3906975777825525 -.1493730510302126 0 .4021683281715055 -.1485177413794
146 0 .41361080229398 -.1473579946162988 0 .425061426907523 -.1462870759266698 0
 .436482009262861 -.1449278977386232 0 .447877061380838 -.1433281768515746 0 .45
9275503745958 -.141731378272976 0 .470642906972524 -.139890396217362 0 .48201096
9124234 -.1380140612640054 0 .493373992638951 -.1360460410690372 0 .504701757072
925 -.1338293983525952 0 .516028834154347 -.1315727387383158 0 .527339737289343
 -.1291908913083156 0 .53867340933374 -.1268741167214524 0 .54997919379506 -.124
3581928366726 0 .561244249678388 -.12162404271901 0 .572543116366928 -.118966429
5746834 0 .583826980234425 -.116141107788118 0 .595016588154018 -.11290374797259
1 0 .606285242017913 -.109922317656808 0 .617536878784189 -.1068836460669466 0 .
628799803373948 -.1038119700008742 0 .640011639362314 -.100446327782853 0 .65119
3399783038 -.0968870297387534 0 .662376347874299 -.0932885101732543 0 .673603973
301233 -.0897905353460647 0 .68477936677982 -.0860721499743356 0 .69592802156826
7 -.0822154662845185 0 .707065837301995 -.0785157725519487 0 .717974333662421 -.
0743754851374704 0 .728764466833069 -.0703739140302822 0 .739383275340423 -.0663
910161305366 0 .749771276362682 -.062271522461504 0 .759902850487075 -.058227725
0952687 0 .769794643680998 -.0542964183737776 0 .779308830504935 -.0503657836024
541 0 .78851550217948 -.0463597988202637 0 .797488408896003 -.042454737037067 0
 .806041644084426 -.0385137498149309 0 .814441513587987 -.034847687595401 0 .822
511630728495 -.0308846502417631 0 .830607407563264 -.02712997867040195 0 .838446
326158443 -.0232561277128044 0 .846075359036733 -.01954179558125185 0 .853376669
398925 -.0157552957277608 0 .860435041243974 -.01206814913817974 0 .867307759051
303 -.00839548516887756 0 .874062901124473 -.00468001476316152 0 .88080275964435
2 -.001101030429059832 0 .887368113378898 .002633077317790595 0 .893979442560494
 .00635678199366106 0 .900576402713627 .01020038357683346 0 .906911256870584 .01
414323777092366 0 .913093638302848 .0178158386772729 0 .91903160759008 .02159885
291750335 0 .92488630438316 .025007500390145 0 .930099976368369 .028675075965857
5 0 .93532861169424 .03216599017404145 0 .940871553355563 .0360488048232876 0 .9
4680316139434 .04034304575761375 0 .952821587522442 .04479821435291995 0 .958666
295898784 .0490655806532685 0 .964050538186344 .0537879891692499 0 .969788855130
994 .0584303714784316 0 .974634301357319 .0639306414355617 0 .979511754828959 .0
695825936705406 0 .981646041222199 .0731752857509862 0 .983237636984354 .0756961
177325766 0 .983384811151913 .0759284755463107 0 127 133 62 4 1 1 1 1 1 1 1 1 1
 1 1 1 1 1 1 1 1 1 1 1 1 1 1 1 1 1 1 1 1 1 1 1 1 1 1 1 1 1 1 1 1 1 1 1 1 1 1 1 1
 1 1 1 1 1 1 1 1 1 1 1 1 1 1 1 1 1 1 1 1 1 1 1 1 1 1 1 1 1 1 1 1 1 1 1 1 1 1 1 1
 1 1 1 1 1 1 1 1 1 1 1 1 1 1 1 1 1 1 1 1 1 1 1 1 1 1 1 1 1 1 1 1 1 1 1 1 1 1 1 1
 1 1 4 128 133 63 .0059106181477454 .00716156763426622 .00907549519397743 .01098
17454309714 .01250342726816944 .0145383035482729 .0166057609444139 .018682715872
96775 .02087674982637755 .02273793221717145 .02468134153110475 .0265420468643829
 .02817255638666925 .0299687557892606 .03185597363924315 .0337457005952073 .0356
0578499576595 .03760756596342125 .03973514543184405 .04176061203610715 .04375038
264365035 .0456835610058232 .047789965427512 .0499517822573099 .0521135792960501
 .0541859715508747 .0563027095419127 .0583472765629464 .0606811380030695 .063129
8426704696 .0653518134036173 .0677467285720084 .0704151646651445 .07319509357583
39 .0759505322398412 .078804874708392 .0817582747798155 .0846688905205337 .08771
4994325167 .0908781695526235 .0940036982738566 .0973707033271833 .10085436428906
14 .1044467184325352 .1082961988985556 .1123714590611732 .1165685096361758 .1209
829747545654 .125901778028344 .1311915685176012 .136716391100902 .14221810748768
4 .1476890534519948 .1531487265685575 .1585762933912975 .163998546573714 .169407
32769527 .1748052391917845 .180193406647648 .1855724905184115 .1909433696971985
 .196309457178476 .2016665174775105 .207024562028785 .212382151410829 .217731163
204899 .223083545334487 .228434902195202 .2337816019028035 .2391338941043845 .24
4484291471278 .249840812650856 .255196754715758 .260554996894264 .26592142920179
5 .2712905595579425 .276663650838846 .2820405310407455 .2874225013859405 .292808
268307631 .2982040532059465 .303600462495385 .3090080806950875 .314435795318392
 .3198557400296665 .3252756847409415 .330701814732447 .3361479669472065 .3416115
177286425 .3470789042979715 .352543408406667 .3580236740973535 .3635153281300895
 .3690080396637835 .3744006995385935 .3797968868305765 .385070023958531 .3902281
69985945 .3953926677934505 .4002948032827515 .4050837693365925 .4097586682781495
 .414307473366493 .418740679136839 .4229018054611165 .427096388379266 .431286279
256015 .43535606598264 .439299155288195 .443128049739895 .446834106324481 .45041
328782801 .454003175783289 .457593740023919 .46106283542668 .464543624413214 .46
8183920395044 .471717164911458 .474956859897686 .478218869348994 .48154313645492
6 .484405371093483 .487110353864339 .490317923676573 .493849617886804 .497329472
586784 .500771325279523 .503938788657469 .507330431341072 .511023581828734 .5142
51558123191 .517384306144068 .517695788353538 16 20 26 0 ?29 10 24 17 0 0 1 136
 59 3 105 3 103 6 FFF1 64 65 66 135 60 2 0 45 315 64 .981756384604062 .076959912
00958 0 .981332450040198 .0764675846581372 0 .979247378034619 .0740828377785787
 0 .976062400657383 .0709475959080151 0 .971297712822072 .0664383042525211 0 .96
7201217671639 .0619125635033266 0 .962623129424121 .0583040368061768 0 .95785079
8069865 .0543603253094229 0 .95228641188013 .050324918626521 0 .946806415358408
 .0457575885969354 0 .939945122898423 .04219598212057995 0 .933459181486554 .037
6675372424453 0 .926412905801626 .0337164538282142 0 .919139259021036 .029587696
53028235 0 .911748124504458 .0258524922031648 0 .904475660373465 .02194452560211
43 0 .897550214274415 .01818482360816605 0 .890401171032032 .01447307035675268 0
 .882981943308359 .01072783794928494 0 .875276432907239 .00697330929516448 0 .86
7351890308141 .00308808510883854 0 .859028383962974 -.000763264909872796 0 .8502
45468023337 -.00464593537108719 0 .841009006022149 -.00857501818930144 0 .831261
076347795 -.01264920747471614 0 .820977107488407 -.01655726872186645 0 .81041207
4863197 -.0206843684304765 0 .799566026131605 -.02473484108943465 0 .78843975126
5442 -.0284025801402144 0 .777258186884476 -.03203668607815245 0 .76605321394600
1 -.035502205978326 0 .754841044129488 -.0388085755917549 0 .743578217031188 -.0
4179124708805015 0 .732281677850849 -.0444663178118377 0 .720991628716488 -.0470
261205108859 0 .709618686886053 -.0490480649846425 0 .698300144381122 -.05126990
00349392 0 .686929761589255 -.0531524702194335 0 .675529197734999 -.054771469597
9022 0 .664128025084513 -.0563066832549646 0 .652725520418769 -.0578404302934539
 0 .641284231225089 -.0589906281561267 0 .629846247575016 -.0601919379146539 0 .
618379398825772 -.0610382585263327 0 .606932119637638 -.0621841143509615 0 .5954
41089963743 -.0628443954779383 0 .583935052338214 -.0633667620673562 0 .57242005
3384057 -.0637992556306678 0 .560893824913266 -.0640762718169216 0 .549361356290
55 -.0642887089489148 0 .537814366160011 -.0645637535460221 0 .526253710027437 -
.0644156607143576 0 .514682870671199 -.0642942631121942 0 .503095542166386 -.064
1930430662247 0 .491504952496585 -.0636857675501172 0 .47989752523955 -.06324195
60025278 0 .46826771842593 -.062770426030191 0 .4566523284118 -.0618082727156836
 0 .444998575180113 -.0611257640636496 0 .4333560695829565 -.0601611520222047 0
 .4216893778591295 -.0592183891751802 0 .410018306661363 -.0580505386433586 0 .3
98330191376217 -.0567549732585144 0 .3866275771454515 -.0553642313641255 0 .3749
218700648515 -.0538404353464246 0 .363205676461664 -.0522817208732018 0 .3515522
08163022 -.0507056420081262 0 .340018655908548 -.048763800262664 0 .328624956381
7395 -.0469526074752242 0 .317523944701446 -.0450247410320635 0 .306768524198442
5 -.0431577868817823 0 .2963942378652175 -.04115812577542085 0 .2862756780885695
 -.03915486504298625 0 .276348321627718 -.0370573599982923 0 .2666121161592315 -
.03492303586690745 0 .2570223271923575 -.0329481759080172 0 .247724502506974 -.0
3085894178626425 0 .238640950800023 -.02861290805784835 0 .229590499431902 -.026
5860504296775 0 .2206687975124935 -.0244132282893929 0 .211832987605163 -.022238
0154129251 0 .2031021638540815 -.02007819358303515 0 .194233514177223 -.01808659
74819102 0 .1853337221762775 -.0158511820462641 0 .1762848682359045 -.0137836035
5101848 0 .1672844345079425 -.011559045471338 0 .1582458890131945 -.009504953829
1579 0 .149145064140154 -.00735034091841007 0 .1398445753647742 -.00525886745453
03 0 .1302856510160638 -.00313533883189572 0 .1203633085053596 -.001065323632354
35 0 .1100615391868168 .000823801938121551 0 .0993421453381904 .0027884281204387
45 0 .0881421733868835 .00446039210789963 0 .07661632440394 .00609465412381846 0
 .0649238168570072 .00743831452664419 0 .0532760327188924 .00844287335680931 0 .
0416538569751273 .0088106328794418 0 .03012426056444625 .00874430511275735 0 .01
85177386475884 .00813594382018598 0 .00976447702689539 .0067028401258257 0 .0027
14616701004705 .00545626249502698 0 .000949375117161254 .0022527417158823 0 .000
1727126490033145 .000441107269013276 0 -104948711442975e-30 1523238551526355e-32
 0 127 103 65 4 1 1 1 1 1 1 1 1 1 1 1 1 1 1 1 1 1 1 1 1 1 1 1 1 1 1 1 1 1 1 1 1
 1 1 1 1 1 1 1 1 1 1 1 1 1 1 1 1 1 1 1 1 1 1 1 1 1 1 1 1 1 1 1 1 1 1 1 1 1 1 1 1
 1 1 1 1 1 1 1 1 1 1 1 1 1 1 1 1 1 1 1 1 1 1 1 1 1 1 1 1 1 4 128 103 66 .5176957
88353538 .518401149680455 .521256750968225 .524776680648438 .527222452585167 .52
9824168790503 .532876113488553 .535869811712583 .53941712926077 .542794164238138
 .546614682922069 .550445582599481 .554060355587198 .558287735655405 .5619999950
85981 .565582725078064 .56928532825818 .573241589756669 .577181433430323 .581248
012519448 .585558735561833 .589980228963949 .594649541878025 .599567414362614 .6
04723760160806 .610002166507221 .615398133774858 .62087901228095 .62635029450788
5 .631807277100627 .637247363143496 .642663566833408 .648065186476231 .653449302
782314 .658816775413985 .664183843499119 .669547006042389 .674899112387965 .6802
53961952293 .685602973746363 .690954460525307 .696301160232909 .701653132678224
 .70700012045111 .712354970015438 .717713727188241 .723075403722626 .72843653761
1525 .73380438885519 .739173722406763 .744554714863812 .749938181510918 .7553242
20507187 .760725212400444 .766128099201819 .771536880323375 .776966781924657 .78
2392048451845 .787828344372784 .793270435535317 .798727375006173 .80419736094426
2 .80968262864059 .815174596244571 .820671810102905 .826178699360763 .8315850119
42047 .836993698140578 .842279793091367 .84730964454172 .852228447815498 .857024
526722236 .861705443773926 .866388978756437 .870935262433095 .875369893895352 .8
79687833902973 .883993787767994 .888313245991213 .892502845834353 .8966937347517
87 .900865158548669 .905187666450444 .909499577862218 .913819036085436 .91812647
2660112 .922435396398871 .926871486851171 .93143052083471 .936101480489633 .9410
16374570012 .946047478388458 .951309805152805 .956819014987694 .962293838447397
 .967733423094863 .973132555074505 .978506291297393 .983856518735989 .9892141081
18033 .991216295135127 .993271709627435 .993930575686953 17 29 0 0 0 0 27 26 20
 0 0 +17 37 0 43 44 40 35 48 52 0 49 +17 48 0 0 0 0 38 37 52 0 0 -17 49 0 0 0 0
 35 44 50 0 0 -14 16 1 67 ?0 0 43 5 6 -0 0 0 0 5 15 28 5 0 23 16 0 17 23 0 28 26
 25 27 21 24 0 29 -17 25 0 28 23 26 11 19 10 0 0 -17 19 0 0 0 0 22 25 10 0 0 +81
 1 67 98 68 16 69 0 0 0 70 80 1 68 71 72 9000 1 1 1 1 1 1 1 1 0 FFFFTFTFFFFFFF1
 81 1 69 86 73 16 0 67 0 0 74 82 1 70 -446234486 80 1 73 0 75 8001 0 0 0 0 3 5 0
 0 0 FFFFTFTFFFFFFF2 83 3 74 .792156862745098 .819607843137255 .933333333333333
 79 15 75 SDL/TYSA_COLOUR79 14 72 SWEntUnchanged74 20 15 9 0 0 76 77 78 79 80 13
 69 2 67 0 0 0 0 0 0 0 0 0 0 0 81 2 76 66 81 1 0 77 0 0 0 82 81 2 77 69 83 1 76
 78 0 0 0 84 81 2 78 70 85 1 77 79 0 0 86 0 81 1 79 72 87 1 78 80 0 0 88 81 2 80
 74 89 1 79 13 0 0 0 0 81 2 13 77 90 1 80 2 0 0 91 0 80 2 90 92 93 8004 0 0 0 0
 3 5 0 0 0 FFTFFFFFFFFFFF2 3 83 1 91 1 79 16 93 SDL/TYSA_DENSITY80 2 89 94 95 90
00 0 0 0 0 3 5 0 0 0 FFTFFFFFFFFFFF9 1 79 16 95 BODY_RECIPE_200180 1 87 96 97 90
00 1 1 1 1 1 1 1 1 0 FFTFFFFFFFFFFF1 82 1 88 583013 79 10 97 BODY_MATCH80 2 85 9
8 99 9000 0 0 0 0 3 5 0 0 0 FFTFTTTFFTFFFF10 10 98 14 86 83 117 114 102 97 99 10
1 45 80 108 97 110 101 49 79 23 99 SWIMPLICITBODYNAME_ID_U80 2 83 100 101 9000 0
 0 0 0 3 5 0 0 0 FFTFFFFFFFFFFF9 1 82 1 84 69 79 30 101 LAST_BODY_MODIFYING_FEAT
URE_ID80 2 81 102 103 9000 0 0 0 0 3 5 0 0 0 FFTFFFFFFFFFFF9 1 82 1 82 109 79 19
 103 ENT_TIME_STAMP_200180 2 12 104 105 9000 0 0 0 0 3 5 0 0 0 FFTFFFFFFFFFFF9 1
 82 1 14 101 79 12 105 ATOM_ID_20011 0 
